<svg width="67" height="81" viewBox="0 0 67 81" fill="none" xmlns="http://www.w3.org/2000/svg">
<path d="M33.5 40.3971H59.5556C57.5828 55.4909 47.3467 68.9688 33.5 73.1554V40.3971H7.44444V19.464L33.5 8.04269M33.5 0L0 14.6898V36.7246C0 57.1068 14.2933 76.1301 33.5 80.7941C52.7067 76.1301 67 57.1068 67 36.7246V14.6898L33.5 0Z" fill="#4DBB72"/>
<path d="M27.9224 25.0244L26.1287 26.0601L29.1997 30.8488L29.5277 30.2532C29.5287 30.2513 29.5296 30.2498 29.5306 30.2479L29.6101 30.1036L29.643 30.0435C30.0617 29.2834 30.0336 28.3555 29.5696 27.6215L27.9224 25.0244Z" fill="#4DBB72"/>
<path d="M25.4198 21.0625C24.9833 20.3725 24.2237 19.9541 23.4072 19.9541H22.2124L25.687 25.3721L27.3527 21.4216L26.1033 22.1429L25.4198 21.0625Z" fill="#4DBB72"/>
<path d="M18.7334 19.9548C17.9303 19.9667 17.1868 20.3825 16.7567 21.0626L15.092 23.7016L16.7442 24.6555L19.7593 19.9541L18.7334 19.9548Z" fill="#4DBB72"/>
<path d="M16.3422 25.282L16.3409 25.279L16.34 25.2761L16.3371 25.2766L13.897 25.5819L12.0718 25.8105L13.303 26.5212L12.6067 27.6219C12.1427 28.356 12.1147 29.2838 12.5333 30.044L12.8821 30.6774L16.3422 25.282Z" fill="#4DBB72"/>
<path d="M14.8064 34.1715C15.2251 34.9321 16.0244 35.4042 16.5818 35.4042H20.3012V33.7234H14.5596L14.7217 34.0177C14.7232 34.0201 14.724 34.0225 14.7255 34.0248L14.7361 34.0434L14.8064 34.1715Z" fill="#4DBB72"/>
<path d="M21.1188 33.7234L21.0884 33.7635L23.6855 37.1929V35.4044H25.2843C26.1524 35.4044 26.9517 34.9321 27.3704 34.1717L27.6172 33.7234H21.1188Z" fill="#4DBB72"/>
<path d="M20.3009 31.2337H13.4712L12.7507 29.9252C12.3756 29.2443 12.4009 28.4129 12.8163 27.7555L13.5127 26.6548C13.5488 26.5978 13.5601 26.5284 13.5439 26.4628C13.5278 26.3972 13.4855 26.341 13.427 26.3072L12.8356 25.9659L16.1841 25.5468L17.4954 28.6564L16.8769 28.2991C16.762 28.2326 16.6143 28.2688 16.5431 28.3814L15.1813 30.5344C15.1081 30.6503 15.1425 30.8035 15.2584 30.8768C15.3739 30.9499 15.5273 30.9155 15.6007 30.7998L16.8351 28.8481L17.8872 29.4558C17.9794 29.5091 18.0956 29.4975 18.1754 29.4269C18.2553 29.3563 18.2813 29.2427 18.2399 29.1444L16.5723 25.1901C16.5319 25.082 16.4189 25.0167 16.3053 25.0313L12.0408 25.5651C11.9351 25.5783 11.8496 25.6578 11.8284 25.7622C11.8073 25.8666 11.8553 25.973 11.9475 26.0262L12.9549 26.6077L12.3967 27.4901C11.8845 28.3005 11.8534 29.3252 12.3159 30.1645L13.1025 31.5929C13.104 31.5958 13.1054 31.5987 13.107 31.6015L14.5037 34.1374C14.5057 34.1411 14.5079 34.1452 14.5095 34.1479L14.5888 34.2915C15.0159 35.0675 15.8726 35.6527 16.5815 35.6527H20.3009C20.438 35.6527 20.5491 35.5416 20.5491 35.4046V31.4817C20.5491 31.3449 20.438 31.2337 20.3009 31.2337ZM20.0528 35.1566H16.5816C16.1246 35.1566 15.399 34.7344 15.0237 34.0525L14.943 33.9063C14.9417 33.9038 14.9403 33.9012 14.9389 33.8986L13.8748 31.9666C13.8745 31.966 13.8742 31.9654 13.8738 31.9648L13.7446 31.7301H20.0529L20.0528 35.1566Z" fill="#4DBB72"/>
<path d="M29.7792 27.4885L28.1319 24.8914C28.0606 24.7791 27.9136 24.7428 27.7983 24.8094L24.3483 26.8013C24.2897 26.8351 24.2475 26.8913 24.2313 26.9569C24.2153 27.0226 24.2265 27.0919 24.2626 27.149L26.5398 30.7436C26.5872 30.8182 26.6675 30.8591 26.7497 30.8591C26.7951 30.8591 26.8411 30.8467 26.8823 30.8205C26.998 30.7471 27.0325 30.5939 26.9591 30.478L24.8201 27.1019L27.8401 25.3583L29.3597 27.754C29.7753 28.4115 29.8005 29.2428 29.4252 29.9242L29.3134 30.1274C29.3123 30.1293 29.3111 30.1316 29.3098 30.134C28.9342 30.8107 28.2201 31.2315 27.4462 31.2322H23.9331V30.3331C23.9331 30.2265 23.865 30.1318 23.7639 30.0979C23.6629 30.0639 23.5513 30.0983 23.4871 30.1832L20.8899 33.6127C20.8228 33.7013 20.8228 33.8237 20.8899 33.9123L23.4871 37.3418C23.5349 37.4049 23.6088 37.4402 23.6849 37.4402C23.7113 37.4402 23.7379 37.436 23.7639 37.4273C23.8651 37.3933 23.9331 37.2986 23.9331 37.192V35.6516H25.2836C26.2421 35.6516 27.1248 35.1301 27.587 34.2904L29.7448 30.3727C29.7449 30.3725 29.745 30.3723 29.7451 30.3721C29.7459 30.3706 29.7468 30.3691 29.7475 30.3675L29.86 30.1631C30.3227 29.3238 30.2917 28.2991 29.7792 27.4885ZM27.1528 34.051C26.7777 34.7321 26.0616 35.1553 25.284 35.1553H23.6853C23.5482 35.1553 23.4372 35.2664 23.4372 35.4034V36.4533L21.3994 33.7626L23.4372 31.0718V31.4804C23.4372 31.6174 23.5482 31.7285 23.6853 31.7285H27.4468C27.8427 31.7282 28.226 31.6387 28.5718 31.4744L27.1528 34.051Z" fill="#4DBB72"/>
<path d="M20.746 22.2024C20.6301 22.1294 20.4768 22.1638 20.4037 22.2797L18.4594 25.3591L15.4396 23.6156L16.9665 21.1951C17.3522 20.5852 18.0129 20.2144 18.7344 20.2028C19.4548 20.2151 20.1146 20.5859 20.5004 21.1951L22.3056 24.0488L21.2888 24.6359C21.1965 24.6892 21.1485 24.7955 21.1697 24.9C21.1908 25.0045 21.2763 25.0839 21.3821 25.0971L25.6507 25.6316C25.661 25.6329 25.6715 25.6336 25.6817 25.6336C25.7804 25.6336 25.8711 25.5746 25.9103 25.4818L27.5816 21.5178C27.623 21.4196 27.5971 21.3059 27.5172 21.2353C27.4373 21.1648 27.3214 21.1532 27.2289 21.2064L26.1858 21.8086L25.6298 20.9297C25.145 20.1633 24.3142 19.7058 23.4073 19.7058H20.009C20.0054 19.7058 20.0018 19.7059 19.9981 19.706H18.7693C18.7544 19.706 18.7395 19.706 18.7245 19.7066C18.7239 19.7066 18.7232 19.7067 18.7226 19.7067C17.8348 19.7222 17.022 20.1791 16.5471 20.9301L14.882 23.569C14.846 23.6261 14.8348 23.6954 14.851 23.761C14.8673 23.8266 14.9094 23.8827 14.9679 23.9163L18.4178 25.9081C18.4569 25.9306 18.4995 25.9414 18.5417 25.9414C18.6241 25.9414 18.7046 25.9002 18.7517 25.8256L20.8234 22.5446C20.8964 22.4289 20.8619 22.2756 20.746 22.2024ZM23.4071 20.2021C24.1427 20.2021 24.8168 20.5732 25.2101 21.195L25.8935 22.2755C25.9648 22.388 26.1121 22.4244 26.2273 22.3578L26.8371 22.0058L25.5257 25.1159L22.1767 24.6965L22.7776 24.3496C22.8362 24.3159 22.8784 24.2597 22.8945 24.1941C22.9106 24.1285 22.8994 24.0592 22.8633 24.002L20.9197 20.9299C20.7369 20.6409 20.504 20.3957 20.2362 20.2021H23.4071Z" fill="#4DBB72"/>
<path d="M22.9013 27.8122L22.3397 27.6668C22.3345 27.6654 22.3293 27.6644 22.3241 27.6635C22.3272 27.6592 22.3301 27.6547 22.3328 27.6501L22.6271 27.1502C22.6709 27.0759 22.6587 26.9814 22.5978 26.9204L22.2945 26.6171C22.2335 26.5561 22.139 26.5441 22.0648 26.5878L21.5649 26.8821C21.5602 26.8848 21.5558 26.8877 21.5515 26.8907C21.5506 26.8856 21.5495 26.8803 21.5481 26.8751L21.4027 26.3136C21.3811 26.2301 21.3058 26.1719 21.2196 26.1719H20.7906C20.7043 26.1719 20.6291 26.2301 20.6074 26.3136L20.462 26.8751C20.4606 26.8803 20.4595 26.8856 20.4586 26.8907C20.4544 26.8876 20.4499 26.8848 20.4452 26.8821L19.9454 26.5878C19.871 26.544 19.7766 26.5561 19.7157 26.6171L19.4123 26.9204C19.3514 26.9813 19.3394 27.0758 19.383 27.1502L19.6773 27.6501C19.6801 27.6547 19.683 27.6592 19.686 27.6635C19.6808 27.6644 19.6756 27.6654 19.6704 27.6668L19.1088 27.8122C19.0253 27.8338 18.967 27.909 18.967 27.9953V28.4242C18.967 28.5105 19.0253 28.5857 19.1088 28.6073L19.6704 28.7527C19.6757 28.754 19.6808 28.7551 19.686 28.756C19.6829 28.7603 19.68 28.7648 19.6773 28.7694L19.383 29.2693C19.3393 29.3436 19.3514 29.438 19.4123 29.499L19.7157 29.8023C19.7766 29.8633 19.8711 29.8753 19.9454 29.8316L20.4452 29.5373C20.4499 29.5346 20.4544 29.5316 20.4586 29.5287C20.4595 29.5338 20.4606 29.5391 20.462 29.5443L20.6074 30.1059C20.6291 30.1893 20.7043 30.2476 20.7906 30.2476H21.2196C21.3058 30.2476 21.3811 30.1893 21.4027 30.1059L21.5481 29.5443C21.5495 29.539 21.5506 29.5338 21.5515 29.5287C21.5558 29.5317 21.5602 29.5346 21.5649 29.5373L22.0648 29.8316C22.1391 29.8754 22.2335 29.8634 22.2945 29.8023L22.5978 29.499C22.6587 29.438 22.6708 29.3435 22.6271 29.2693L22.3328 28.7694C22.33 28.7648 22.3271 28.7603 22.3241 28.756C22.3293 28.7551 22.3346 28.754 22.3397 28.7527L22.9013 28.6073C22.9848 28.5857 23.0431 28.5105 23.0431 28.4242V27.9953C23.0431 27.909 22.9848 27.8337 22.9013 27.8122ZM21.0052 28.9035C20.622 28.9035 20.3114 28.5929 20.3114 28.2098C20.3114 27.8266 20.622 27.5161 21.0052 27.5161C21.3883 27.5161 21.6989 27.8266 21.6989 28.2098C21.6989 28.5929 21.3883 28.9035 21.0052 28.9035Z" fill="#4DBB72"/>
</svg>
