<svg width="16" height="16" viewBox="0 0 16 16" fill="none" xmlns="http://www.w3.org/2000/svg">
<path d="M8 0C6.41775 0 4.87103 0.469192 3.55544 1.34824C2.23985 2.22729 1.21447 3.47672 0.608967 4.93853C0.00346628 6.40034 -0.15496 8.00887 0.153721 9.56072C0.462403 11.1126 1.22433 12.538 2.34315 13.6569C3.46197 14.7757 4.88743 15.5376 6.43928 15.8463C7.99113 16.155 9.59966 15.9965 11.0615 15.391C12.5233 14.7855 13.7727 13.7602 14.6518 12.4446C15.5308 11.129 16 9.58225 16 8C15.9978 5.87895 15.1542 3.84542 13.6544 2.34562C12.1546 0.845814 10.121 0.00223986 8 0ZM3.85231 13.3462C4.29749 12.6499 4.91078 12.0769 5.63563 11.68C6.36049 11.2832 7.1736 11.0751 8 11.0751C8.8264 11.0751 9.63951 11.2832 10.3644 11.68C11.0892 12.0769 11.7025 12.6499 12.1477 13.3462C10.9618 14.2684 9.50233 14.7692 8 14.7692C6.49768 14.7692 5.03821 14.2684 3.85231 13.3462ZM5.53846 7.38461C5.53846 6.89777 5.68283 6.42185 5.95331 6.01706C6.22379 5.61226 6.60822 5.29676 7.05801 5.11045C7.5078 4.92414 8.00273 4.87539 8.48022 4.97037C8.95772 5.06535 9.39632 5.29979 9.74057 5.64404C10.0848 5.9883 10.3193 6.4269 10.4142 6.90439C10.5092 7.38188 10.4605 7.87682 10.2742 8.3266C10.0879 8.77639 9.77236 9.16083 9.36756 9.43131C8.96276 9.70178 8.48685 9.84615 8 9.84615C7.34716 9.84615 6.72106 9.58681 6.25943 9.12518C5.7978 8.66356 5.53846 8.03745 5.53846 7.38461ZM13.0585 12.4931C12.3721 11.4985 11.4071 10.7291 10.2846 10.2815C10.8876 9.80665 11.3275 9.15568 11.5433 8.41915C11.7591 7.68262 11.7401 6.89715 11.4888 6.17196C11.2375 5.44677 10.7665 4.81791 10.1412 4.37284C9.51592 3.92776 8.7675 3.6886 8 3.6886C7.23251 3.6886 6.48409 3.92776 5.85882 4.37284C5.23355 4.81791 4.76252 5.44677 4.51122 6.17196C4.25993 6.89715 4.24086 7.68262 4.45667 8.41915C4.67249 9.15568 5.11245 9.80665 5.71539 10.2815C4.59294 10.7291 3.62787 11.4985 2.94154 12.4931C2.07429 11.5178 1.50744 10.3126 1.30927 9.02269C1.11109 7.73273 1.29004 6.41299 1.82455 5.22238C2.35907 4.03177 3.22637 3.02106 4.32201 2.31195C5.41765 1.60284 6.69491 1.22557 8 1.22557C9.30509 1.22557 10.5824 1.60284 11.678 2.31195C12.7736 3.02106 13.6409 4.03177 14.1754 5.22238C14.71 6.41299 14.8889 7.73273 14.6907 9.02269C14.4926 10.3126 13.9257 11.5178 13.0585 12.4931Z" fill="#4DBB72"/>
</svg>
