<svg width="25" height="38" viewBox="0 0 25 38" fill="none" xmlns="http://www.w3.org/2000/svg">
<mask id="mask0_331_36" style="mask-type:luminance" maskUnits="userSpaceOnUse" x="11" y="0" width="14" height="13">
<path d="M11.9642 0H25V12.4725H11.9642V0Z" fill="white"/>
</mask>
<g mask="url(#mask0_331_36)">
<path d="M12.9103 12.1389C13.8375 10.4562 16.2922 6.7418 21.2861 3.48389C16.9065 5.50562 13.6968 9.77507 12.5112 11.5327C11.176 8.7048 11.2632 3.15075 25.0005 0C24.1929 11.2135 16.1938 13.3975 12.9103 12.1389Z" fill="#5D9830"/>
</g>
<path d="M11.406 12.2232C10.8491 11.23 9.37505 9.03788 6.37605 7.11484C9.00619 8.30836 10.9337 10.8282 11.6458 11.8655C12.4474 10.1961 12.3952 6.91812 4.1449 5.05859C4.63026 11.6772 9.43443 12.966 11.406 12.2232Z" fill="#5D9830"/>
<path d="M18.2405 19.6369C18.5082 19.9055 18.7632 20.1845 19.0028 20.4778C19.1629 20.6742 18.8848 20.315 19.0332 20.5182C19.0767 20.5783 19.1207 20.6375 19.1638 20.698C19.2918 20.8783 19.4134 21.0626 19.5295 21.2506C19.7205 21.56 19.8947 21.8794 20.0517 22.2077C20.093 22.2942 20.1329 22.3821 20.172 22.4696C20.1452 22.4095 20.0749 22.2153 20.181 22.4983C20.2482 22.6772 20.3158 22.8553 20.3757 23.0369C20.4873 23.3751 20.5807 23.7191 20.6565 24.0671C20.6914 24.229 20.7209 24.3918 20.7504 24.5546C20.8053 24.8574 20.7636 24.6282 20.7559 24.5641C20.7704 24.6811 20.7826 24.7982 20.7935 24.9157C20.8584 25.6427 20.848 26.3787 20.7559 27.103C20.7976 26.7747 20.7128 27.325 20.6996 27.3914C20.6679 27.5542 20.632 27.7157 20.5921 27.8767C20.5009 28.2462 20.3893 28.6104 20.2572 28.9674C20.2241 29.0571 20.1892 29.1464 20.1543 29.2352C20.064 29.4657 20.2464 29.0374 20.1425 29.263C20.0717 29.4159 20 29.5689 19.9229 29.7186C19.7455 30.0653 19.5477 30.4017 19.3312 30.7255C19.2219 30.8897 19.1071 31.0502 18.9887 31.2081C19.1321 31.0171 18.8544 31.3678 18.8104 31.4194C18.5454 31.7266 18.2628 32.0185 17.9642 32.2935C17.8154 32.4298 17.6634 32.5621 17.5073 32.69C17.4493 32.7375 17.3907 32.785 17.3318 32.8312C17.5237 32.6823 17.3227 32.8353 17.2896 32.8581C16.9634 33.0801 16.6376 33.2977 16.2923 33.4896C16.1217 33.5843 15.9489 33.6744 15.7737 33.7592C15.7084 33.791 15.6422 33.822 15.5759 33.852C15.5401 33.8686 15.2624 33.9892 15.4303 33.9193C15.5977 33.8493 15.3178 33.9614 15.2806 33.9758C15.213 34.0009 15.1454 34.026 15.0773 34.0502C14.8736 34.122 14.6676 34.1875 14.4594 34.2471C14.1145 34.3454 13.7647 34.4265 13.4113 34.4893C13.3169 34.5059 13.223 34.5203 13.1287 34.5355C13.1922 34.5252 13.4295 34.5041 13.1182 34.5351C12.9286 34.5539 12.7389 34.5714 12.5488 34.5813C12.1922 34.6006 11.8342 34.6014 11.4776 34.5849C11.3111 34.5768 11.1446 34.5651 10.9785 34.5494C10.8837 34.5405 10.7889 34.5306 10.6941 34.5189C11.0076 34.5575 10.6764 34.5117 10.6142 34.501C9.88149 34.3763 9.16101 34.1745 8.47183 33.8969C8.73952 34.0049 8.23817 33.787 8.18146 33.7592C8.02766 33.6847 7.87657 33.6067 7.72685 33.5251C7.38158 33.3358 7.0472 33.1277 6.72598 32.9007C6.6974 32.8806 6.44877 32.6989 6.58397 32.8007C6.70602 32.8922 6.51092 32.742 6.50593 32.7375C6.35031 32.6092 6.19605 32.4805 6.04678 32.3451C5.74598 32.0719 5.4606 31.7817 5.19382 31.4763C5.15299 31.4297 4.81906 31.0126 4.96606 31.2081C4.86216 31.0704 4.76189 30.9296 4.6648 30.787C4.44612 30.4636 4.24603 30.1286 4.06546 29.7832C3.98697 29.6334 3.91528 29.4809 3.84178 29.3289C3.71066 29.0553 3.80231 29.2406 3.82726 29.302C3.79097 29.2132 3.75603 29.1244 3.72246 29.0347C3.58771 28.6786 3.47337 28.3149 3.37946 27.9457C3.32728 27.7394 3.28146 27.5313 3.24199 27.3219C3.22883 27.2519 3.21703 27.1824 3.20433 27.1124C3.12221 26.6572 3.22883 27.4219 3.18255 26.9626C3.14217 26.5635 3.11767 26.1639 3.12085 25.7629C3.12357 25.3624 3.14852 24.9614 3.19888 24.5641C3.1585 24.8816 3.25333 24.2846 3.26921 24.2062C3.31186 23.9972 3.3604 23.7895 3.41575 23.5832C3.52101 23.1917 3.65213 22.8091 3.8005 22.4315C3.89124 22.2014 3.70839 22.6292 3.81229 22.4041C3.86265 22.2947 3.91301 22.1857 3.96655 22.0776C4.05275 21.904 4.1435 21.7331 4.23923 21.5645C4.45746 21.181 4.70064 20.8119 4.96606 20.4585C4.94701 20.4841 4.83993 20.6159 4.952 20.4778C5.03094 20.3809 5.11125 20.2849 5.19382 20.1908C5.36078 19.9997 5.53546 19.8167 5.71467 19.6369C6.30721 19.0422 6.31447 18.0433 5.71467 17.45C5.11896 16.8607 4.09858 16.853 3.50377 17.45C0.945789 20.0176 -0.371314 23.6523 0.0914642 27.2434C0.569668 30.9565 2.76378 34.3149 6.0849 36.1604C9.21863 37.9015 13.1173 38.1827 16.4484 36.8247C19.9428 35.3998 22.6637 32.42 23.5897 28.7678C24.6146 24.7237 23.4041 20.4146 20.451 17.45C19.8584 16.8553 18.8344 16.8625 18.2405 17.45C17.638 18.046 17.6462 19.0404 18.2405 19.6369Z" fill="#80CC2A"/>
<path d="M13.3558 26.4849C13.3558 22.8322 13.3558 19.1794 13.3558 15.5271C13.3558 15.0042 13.3558 14.4812 13.3558 13.9578C13.3558 13.1491 12.6146 12.374 11.7439 12.4117C10.8708 12.4489 10.132 13.0908 10.132 13.9578C10.132 17.6105 10.132 21.2628 10.132 24.9155C10.132 25.4385 10.132 25.9619 10.132 26.4849C10.132 27.2936 10.8736 28.0686 11.7439 28.0314C12.6174 27.9937 13.3558 27.3519 13.3558 26.4849Z" fill="#80CC2A"/>
</svg>
