<svg width="88" height="85" viewBox="0 0 88 56" fill="none" xmlns="http://www.w3.org/2000/svg">
<path d="M62 32C57.2 32 49.72 33.36 44 36C38.28 33.32 30.8 32 26 32C17.32 32 0 36.32 0 45V56H88V45C88 36.32 70.68 32 62 32ZM46 50H6V45C6 42.84 16.24 38 26 38C35.76 38 46 42.84 46 45V50ZM82 50H52V45C52 43.16 51.2 41.56 49.92 40.12C53.44 38.92 57.76 38 62 38C71.76 38 82 42.84 82 45V50ZM26 28C33.72 28 40 21.72 40 14C40 6.28 33.72 0 26 0C18.28 0 12 6.28 12 14C12 21.72 18.28 28 26 28ZM26 6C30.4 6 34 9.6 34 14C34 18.4 30.4 22 26 22C21.6 22 18 18.4 18 14C18 9.6 21.6 6 26 6ZM62 28C69.72 28 76 21.72 76 14C76 6.28 69.72 0 62 0C54.28 0 48 6.28 48 14C48 21.72 54.28 28 62 28ZM62 6C66.4 6 70 9.6 70 14C70 18.4 66.4 22 62 22C57.6 22 54 18.4 54 14C54 9.6 57.6 6 62 6Z" fill="#4DBB72"/>
</svg>
