<svg width="303" height="159" viewBox="0 0 303 159" fill="none" xmlns="http://www.w3.org/2000/svg">
<mask id="path-1-inside-1_479_250" fill="white">
<path d="M0 10C0 4.47715 4.47715 0 10 0H293C298.523 0 303 4.47715 303 10V159H0V10Z"/>
</mask>
<path d="M0 10C0 4.47715 4.47715 0 10 0H293C298.523 0 303 4.47715 303 10V159H0V10Z" fill="#009EDB"/>
<path d="M-1 10C-1 3.92487 3.92487 -1 10 -1H293C299.075 -1 304 3.92487 304 10H302C302 5.02944 297.971 1 293 1H10C5.02944 1 1 5.02944 1 10H-1ZM303 159H0H303ZM-1 159V10C-1 3.92487 3.92487 -1 10 -1V1C5.02944 1 1 5.02944 1 10V159H-1ZM293 -1C299.075 -1 304 3.92487 304 10V159H302V10C302 5.02944 297.971 1 293 1V-1Z" fill="#E1E1E3" mask="url(#path-1-inside-1_479_250)"/>
<path d="M193.258 128.454C193.446 128.345 193.641 128.248 193.842 128.163C194.042 128.078 194 128.163 194.024 128.26C191.475 130.831 188.305 132.704 184.819 133.697C182.446 134.352 179.967 134.529 177.523 134.218C173.823 133.724 170.295 132.351 167.236 130.214C165.352 129 163.491 127.714 161.631 126.451C160.613 125.782 159.471 125.322 158.273 125.097C157.075 124.872 155.844 124.887 154.651 125.141C153.301 125.286 154.323 125.93 154.53 126.027C157.857 127.653 161.011 129.613 163.941 131.876C165.935 133.333 169.486 136.731 169.486 136.731L166.823 139C166.823 139 164.792 136.731 163.917 135.845C160.375 132.104 156.273 128.936 151.757 126.451C151.588 126.305 151.373 126.225 151.149 126.225C150.926 126.225 150.71 126.305 150.541 126.451C146.027 128.939 141.926 132.107 138.382 135.845C137.506 136.731 135.475 139 135.475 139L132.813 136.731C132.813 136.731 136.363 133.308 138.357 131.876C141.288 129.613 144.441 127.653 147.769 126.027C147.976 125.93 148.985 125.286 147.659 125.141C146.465 124.885 145.232 124.87 144.032 125.095C142.831 125.32 141.688 125.781 140.668 126.451C138.807 127.665 136.947 128.976 135.062 130.214C132.005 132.353 128.476 133.727 124.775 134.218C122.332 134.529 119.853 134.352 117.479 133.697C113.991 132.697 110.817 130.821 108.262 128.248C108.314 128.196 108.383 128.165 108.457 128.163C108.657 128.248 108.852 128.345 109.04 128.454C112.83 130.314 117.145 130.816 121.261 129.874C124.102 129.216 126.865 128.26 129.505 127.022C131.426 126.209 133.323 125.299 135.305 124.655C140.34 123.029 145.742 122.907 150.845 124.303H151.38C156.484 122.907 161.885 123.029 166.92 124.655C168.902 125.299 170.799 126.209 172.72 127.022C175.36 128.26 178.123 129.216 180.965 129.874C185.079 130.816 189.397 130.314 193.185 128.454M206.074 117.01C204.435 118.32 202.562 119.308 200.554 119.922C197.73 120.755 194.804 121.192 191.86 121.221C188.067 121.342 184.284 121.67 180.527 122.204C180.296 122.204 180.186 122.131 180.259 122.058C180.279 122.052 180.3 122.052 180.32 122.058C183.602 120.702 186.245 118.151 187.713 114.922C188.929 112.653 190.875 108.211 191.361 107.483V107.301C191.106 107.374 187.397 110.541 185.707 112.095C183.615 114.036 181.646 116.112 179.542 118.053C176.743 120.451 173.406 122.141 169.814 122.981L169.68 123.041C169.648 123.091 169.619 123.144 169.595 123.199H169.68C170.994 123.502 174.812 124.328 176.782 124.85C179.767 125.711 182.83 126.28 185.926 126.549C189.868 126.945 193.845 126.27 197.435 124.595C201.025 122.92 204.094 120.308 206.317 117.034C206.277 117.015 206.234 117.006 206.19 117.006C206.146 117.006 206.102 117.015 206.062 117.034M217.577 99.4248C215.671 101.655 213.446 103.593 210.975 105.177C208.832 106.592 206.565 107.811 204.202 108.818C201.218 110.053 198.416 111.686 195.872 113.672L195.386 114.036C195.301 114.109 195.203 114.036 195.313 113.879C195.422 113.721 199.277 109.801 200.432 101.488C200.833 98.5752 200.894 95.4199 201.83 92.6529C201.839 92.6124 201.838 92.5705 201.827 92.5304C201.817 92.4904 201.797 92.4534 201.77 92.4223C199.045 95.8245 196.923 99.6661 195.495 103.782C194.717 106.002 193.975 108.235 193.173 110.444C192.185 113.471 190.522 116.235 188.309 118.527L188.102 118.745C188.096 118.789 188.096 118.834 188.102 118.879L188.868 118.745C191.434 118.211 193.988 117.604 196.578 117.167C200.791 116.534 204.774 114.843 208.153 112.252C211.684 109.701 214.555 106.348 216.531 102.471C217.057 101.454 217.485 100.39 217.808 99.2913C217.772 99.2733 217.733 99.264 217.693 99.264C217.653 99.264 217.613 99.2733 217.577 99.2913M222.611 79.4976C221.369 83.0914 219.285 86.3369 216.531 88.9636C213.365 92.0426 210.442 95.3616 207.789 98.8908C207.728 98.9757 207.582 98.8908 207.631 98.7816C208.718 95.1644 208.997 91.3528 208.445 87.6165C207.947 84.4612 206.561 81.0267 206.22 77.1675C206.192 77.0923 206.135 77.0313 206.062 76.9976C205.989 76.9636 206.062 77.0704 205.928 77.3617C205.105 79.851 204.559 82.4231 204.299 85.0316C204.129 88.1748 204.724 92.216 204.469 95.4563C204.165 99.2063 203.91 102.908 202.195 106.294V106.609C203.569 105.723 207.497 103.417 210.087 101.682C213.348 99.5949 216.176 96.9002 218.416 93.7451C221.264 89.7028 222.781 84.8761 222.757 79.9345C222.768 79.7688 222.768 79.6026 222.757 79.4369C222.746 79.2706 222.575 79.5218 222.563 79.5461M214.233 81.682C214.233 81.682 214.172 81.682 214.16 81.7549C214.148 81.8277 214.039 81.682 214.039 81.6578C214.16 80.6019 214.185 79.5376 214.112 78.4782C213.844 74.8374 211.607 71.7306 209.649 68.6481C208.306 66.6424 207.119 64.5367 206.099 62.3495C206.042 62.2961 205.969 62.2621 205.892 62.2524C205.892 62.5922 205.892 63.6723 206.013 64.3762C206.753 69.6757 208.091 74.8746 210.002 79.8738C211.226 82.9892 211.705 86.3469 211.4 89.6796C211.4 89.9709 211.4 90.0073 211.473 90.0922C212.689 88.3689 214.999 85.9539 216.434 84.2185C217.869 82.483 225.809 73.4296 221.955 61.0267C221.803 60.4983 221.599 59.9861 221.347 59.4976C221.094 59.0085 221.176 59.6553 221.176 59.6917C221.176 68.6117 216.872 72.4345 215.097 78.5388C214.744 79.7524 214.476 80.784 214.245 81.682M214.245 63.2597C214.245 63.2597 213.82 62.0461 213.406 61.0874C213.236 60.6505 213.054 60.25 212.908 59.9587C211.534 57.2282 209.746 55.8204 207.46 53.9515C205.735 52.3966 204.207 50.6358 202.913 48.7087C202.846 48.682 202.772 48.682 202.706 48.7087H202.609C202.682 49.085 203.922 53.017 204.712 54.8495C205.989 57.4104 207.573 59.8066 209.43 61.9854L209.807 62.483C211.982 65.5026 213.721 68.8115 214.975 72.3131C214.975 72.3859 215.157 72.4466 215.157 72.4223C215.401 71.5121 216.519 67.9806 217.358 65.6019C218.14 63.2133 218.786 60.7822 219.292 58.3204C220.131 52.4587 218.197 44.8374 214.768 40.6748C214.708 40.6748 214.659 40.8568 214.671 40.8811L214.841 41.4272C214.914 41.682 214.987 41.9369 215.048 42.2039C215.756 45.4175 215.806 48.7403 215.194 51.9733C214.719 54.5352 214.479 57.1349 214.476 59.7403C214.476 60.1772 214.768 63.3811 214.732 63.5146C214.695 63.6481 214.549 63.5146 214.537 63.5146M203.971 30.4563C205.061 31.4841 205.93 32.7229 206.524 34.0971C207.473 36.3058 207.74 39.6432 208.36 42.1553C208.737 43.6966 208.968 44.7767 209.503 46.5121C209.503 46.6699 209.394 46.7306 209.309 46.585C207.533 44.1578 205.345 42.6893 202.22 40.7233C200.428 39.6514 198.86 38.2466 197.599 36.585C197.368 36.2694 197.125 35.966 196.894 35.6626C196.894 35.6626 196.723 35.5777 196.687 35.6019C196.675 35.7311 196.675 35.8611 196.687 35.9903C197.295 38.9545 198.699 41.6979 200.748 43.9272C202.414 45.5049 204.287 46.9126 206.062 48.3811C208.344 50.3241 210.43 52.4866 212.288 54.8374C214.146 57.1881 212.434 54.9223 212.434 54.8374C212.434 54.3762 212.373 53.6238 212.373 52.7743C212.373 50.8325 212.458 48.2476 212.543 46.4636C212.543 45.7476 212.604 45.0194 212.604 44.3034C212.663 42.1386 212.27 39.9852 211.449 37.9806C210.121 34.7061 207.656 32.018 204.506 30.4078L203.898 30.1772C203.881 30.2156 203.873 30.2569 203.873 30.2985C203.873 30.3402 203.881 30.3815 203.898 30.4199M190.327 24.1699C192.18 25.8798 193.814 27.812 195.191 29.9223C196.463 31.9937 198 33.8908 199.763 35.5655C200.979 36.7791 204.554 39.5704 205.454 40.2621H205.527C205.345 39.2427 203.727 31.767 199.022 28.017C196.329 25.8958 193.204 24.3881 189.865 23.5995C189.851 23.6341 189.844 23.6712 189.844 23.7087C189.844 23.7462 189.851 23.7834 189.865 23.818C190.023 23.9636 190.145 24.0485 190.291 24.1942M116.361 126.743C119.461 126.475 122.527 125.906 125.517 125.044C127.474 124.522 131.293 123.697 132.618 123.393H132.691C132.667 123.338 132.638 123.286 132.606 123.235L132.472 123.175C128.88 122.335 125.544 120.645 122.744 118.248C120.653 116.306 118.683 114.231 116.579 112.289C114.901 110.735 111.181 107.568 110.925 107.434C110.903 107.497 110.903 107.566 110.925 107.629C111.472 108.357 113.43 112.799 114.573 115.068C116.042 118.3 118.69 120.852 121.978 122.204C122.063 122.277 121.978 122.386 121.711 122.35H121.65C117.893 121.815 114.11 121.486 110.317 121.367C107.373 121.336 104.447 120.899 101.623 120.068C99.6161 119.451 97.7433 118.463 96.1026 117.155C96.0626 117.137 96.0191 117.127 95.975 117.127C95.9309 117.127 95.8873 117.137 95.8473 117.155C98.0651 120.432 101.131 123.047 104.72 124.722C108.309 126.398 112.285 127.071 116.227 126.67M113.296 118.939L114.05 119.073C114.06 119.029 114.06 118.983 114.05 118.939L113.844 118.721C111.634 116.426 109.972 113.663 108.98 110.638C108.177 108.43 107.435 106.197 106.657 103.976C105.229 99.863 103.111 96.022 100.395 92.6165C100.379 92.6506 100.37 92.688 100.37 92.7257C100.37 92.7635 100.379 92.8008 100.395 92.835C101.343 95.6384 101.392 98.7694 101.805 101.682C102.948 109.995 106.791 113.915 106.925 114.073C107.058 114.231 106.925 114.303 106.84 114.231L106.353 113.867C103.813 111.881 101.015 110.248 98.036 109.012C95.673 108.005 93.4061 106.786 91.2631 105.371C88.7885 103.791 86.5632 101.853 84.6604 99.6189C84.6223 99.6015 84.5808 99.5924 84.5388 99.5924C84.4969 99.5924 84.4554 99.6015 84.4172 99.6189C84.7456 100.717 85.1772 101.782 85.7062 102.799C87.6739 106.678 90.5422 110.032 94.072 112.58C97.456 115.17 101.443 116.861 105.66 117.495C108.238 117.932 110.791 118.551 113.369 119.073M92.09 101.743C94.68 103.478 98.6075 105.784 99.9815 106.67C101.356 107.556 100.079 106.5 100.042 106.415C100.006 106.33 100.042 106.415 100.042 106.354C98.3157 102.968 98.0603 99.267 97.7563 95.517C97.501 92.2767 98.0968 88.2354 97.9266 85.0922C97.6783 82.482 97.1316 79.9086 96.2972 77.4223C96.2729 77.2945 96.2278 77.1715 96.1634 77.0583C96.099 76.9454 96.0297 77.1796 96.0054 77.2282C95.6649 81.0874 94.2787 84.5097 93.768 87.6772C93.2167 91.4135 93.4948 95.2251 94.5827 98.8422C94.6435 99 94.4854 99.0364 94.4368 98.9515C91.7759 95.4248 88.8491 92.1061 85.6818 89.0243C82.9365 86.3909 80.8534 83.1475 79.602 79.5583C78.3508 75.9697 79.444 79.4248 79.4075 79.449C79.3978 79.6147 79.3978 79.7809 79.4075 79.9466C79.3664 84.9058 80.8846 89.753 83.7485 93.8058C85.9916 96.958 88.819 99.6522 92.0778 101.743M90.7159 90.1529C90.7159 90.1529 90.8375 90.0316 90.7889 89.7403C90.4906 86.4078 90.9692 83.0516 92.1872 79.9345C94.1138 74.9553 95.4602 69.7716 96.1999 64.4854C96.2789 63.7803 96.3215 63.0716 96.3215 62.3617C96.244 62.3713 96.1716 62.4053 96.1148 62.4587C95.0983 64.6454 93.9153 66.7511 92.5763 68.7573C90.6186 71.8398 88.3813 74.8981 88.1016 78.5874C88.0287 79.6468 88.0542 80.7112 88.1746 81.767C88.2962 82.8228 88.1746 81.8884 88.053 81.8641C88.0385 81.8566 88.0256 81.8463 88.0152 81.8338C88.0047 81.8213 87.9969 81.8069 87.9922 81.7913C87.749 80.8932 87.4815 79.8131 87.141 78.6481C85.3414 72.5801 81.0612 68.7209 81.0612 59.801C81.0612 59.801 80.9396 59.6068 80.8788 59.6068C80.638 60.0991 80.4387 60.6106 80.283 61.1359C76.4284 73.5388 84.247 82.4345 85.8034 84.3277C87.3599 86.2209 89.5608 88.4781 90.7524 90.2015M85.159 65.5534C85.9858 67.9806 87.1045 71.4636 87.3477 72.3738C87.3477 72.3738 87.5058 72.3738 87.5301 72.2646C88.7838 68.7605 90.5278 65.4511 92.7101 62.4345L93.0749 61.9369C94.9357 59.761 96.5203 57.3643 97.7928 54.801C98.6007 52.792 99.3029 50.7423 99.8964 48.6602C100.49 46.5777 99.8964 48.6602 99.7992 48.6602C99.7313 48.6432 99.6603 48.6432 99.5924 48.6602C98.2293 50.6142 96.6282 52.3916 94.8259 53.9515C92.5399 55.8204 90.7646 57.2282 89.3784 59.9587C89.2325 60.25 89.0622 60.6505 88.8798 61.0752C88.4664 62.0583 88.053 63.2354 88.0408 63.2597C88.0287 63.284 87.8949 63.4417 87.8463 63.2597C87.7976 63.0777 88.0773 59.9223 88.1016 59.4854C88.105 56.8798 87.8648 54.2795 87.3842 51.7184C86.7724 48.485 86.8262 45.1611 87.5423 41.949C87.5423 41.682 87.676 41.4272 87.749 41.1723C87.8219 40.9175 87.8463 40.8204 87.9071 40.6262C87.9057 40.5492 87.8753 40.4755 87.8219 40.4199C84.3808 44.5825 82.4474 52.2039 83.2864 58.0655C83.7946 60.5279 84.4442 62.9591 85.2319 65.3471M89.9012 46.2816C89.9863 48.0655 90.0715 50.6505 90.0836 52.5922V54.6553C90.0836 55.1165 90.2174 54.6553 90.2174 54.6553C92.0669 52.3012 94.1485 50.1382 96.4309 48.199C98.2062 46.7306 100.079 45.3228 101.745 43.7451C103.794 41.5159 105.198 38.7724 105.806 35.8083C105.837 35.6806 105.857 35.5508 105.867 35.4199C105.83 35.4157 105.793 35.419 105.757 35.4294C105.722 35.4398 105.689 35.4572 105.66 35.4806C105.417 35.784 105.186 36.0874 104.955 36.4029C103.691 38.0619 102.123 39.4662 100.334 40.5413C97.197 42.5073 95.0083 44 93.233 46.4029C93.1478 46.5485 92.9898 46.4879 93.0384 46.3301C93.5734 44.5947 93.8045 43.5146 94.1814 41.9733C94.7894 39.4612 95.0691 36.1238 96.0175 33.915C96.6161 32.5432 97.4844 31.3052 98.571 30.2743C98.5917 30.1947 98.5917 30.1111 98.571 30.0316C98.3599 30.0961 98.1529 30.1731 97.9509 30.2621C94.825 31.8702 92.3762 34.5381 91.0442 37.7864C90.1906 39.783 89.776 41.9391 89.8283 44.1092V46.2694M96.7836 40.1165H96.8687C97.7563 39.4248 101.331 36.6456 102.559 35.4199C104.316 33.7387 105.852 31.8426 107.131 29.7767C108.508 27.6658 110.142 25.7336 111.995 24.0243L112.421 23.6481C112.421 23.6481 112.482 23.4903 112.421 23.4296C109.083 24.2208 105.959 25.7282 103.265 27.8471C98.5589 31.5607 96.9416 39.0728 96.7593 40.0922M149.799 80.9903C150.176 80.432 149.252 80.0922 149.009 81.051C148.766 82.0097 149.435 81.5485 149.799 80.9903ZM159.843 57.8228C159.479 57.6408 158.019 59.4248 158.25 59.716C158.899 59.193 159.44 58.551 159.843 57.8228ZM160.159 57.5073C160.378 57.6286 161.375 57.0947 161.169 56.9612C160.962 56.8277 159.843 56.2816 159.819 56.6092C159.819 57.1311 159.941 57.3981 160.159 57.5073ZM177.864 73.8665C178.362 73.7573 178.302 72.9563 177.864 72.9806C177.426 73.0049 176.903 73.6602 177.037 73.6723C177.377 73.6723 177.621 73.9272 177.888 73.8665M171.456 56.3301C171.054 56.3301 170.957 56.767 171.334 56.9612C171.665 57.0279 172.01 56.9757 172.307 56.8155C172.562 56.6456 172.866 56.4393 172.818 56.0388C172.769 55.6384 172.21 55.1044 172.514 54.8252C172.818 54.5461 173.158 54.9951 173.474 54.8252C173.79 54.6553 173.827 54.4612 173.827 54.1335C173.827 53.8058 173.669 53.0898 173.146 53.0898C172.623 53.0898 172.076 54.1335 172.039 54.1942C171.928 54.4789 171.928 54.7953 172.039 55.0801C172.27 55.6262 172.185 56.2937 171.444 56.2937M180.126 56.3544C180.126 56.5971 180.807 58.2718 180.879 58.7816C180.952 59.2913 181.098 60.6019 181.463 60.4684C181.828 60.3349 181.67 59.534 181.621 59.2549C181.475 58.2852 181.244 57.3313 180.928 56.4029C180.746 55.8325 179.943 53.9757 179.712 54.0485C179.481 54.1214 180.113 55.3956 180.211 55.8204C180.248 56.025 180.248 56.2347 180.211 56.4393M175.627 34.1456C176.052 34.3155 176.052 33.5146 175.323 32.932C174.593 32.3495 173.632 32.6286 173.888 32.932C174.413 33.409 174.998 33.8167 175.627 34.1456ZM155.867 28.4782C155.004 27.932 155.721 27.1675 155.028 26.6456C154.662 26.5178 154.269 26.4898 153.888 26.5645C153.508 26.6391 153.154 26.8138 152.864 27.0704C152.28 27.8228 153.618 27.5801 154.08 27.7864C154.542 27.9927 155.782 29 155.989 28.818C156.195 28.6359 155.989 28.5752 155.855 28.4782M161.084 25.8568C159.928 25.3228 155.563 25.3471 155.673 26.4879C155.782 27.6286 158.19 26.5485 158.822 26.4879C159.454 26.4272 162.105 26.3786 161.084 25.8568ZM149.082 76.6214C148.863 76.5121 148.377 76.7184 148.316 76.5C148.255 76.2816 147.89 76.318 147.976 76.5C148.061 76.682 147.866 76.9126 148.061 77.1553C148.214 77.2778 148.405 77.3446 148.602 77.3446C148.798 77.3446 148.989 77.2778 149.143 77.1553C149.213 77.0791 149.251 76.9795 149.251 76.8762C149.251 76.7729 149.213 76.6734 149.143 76.5971M146.711 67.8107C147.076 67.8107 147.064 67.5316 147.27 67.5437C147.477 67.5558 147.27 67.8228 147.672 67.8228C148.073 67.8228 148.413 66.8884 147.246 66.8884C146.298 66.8884 146.431 67.7985 146.711 67.8107ZM148.219 68.7694C147.501 68.5874 147.647 69 147.197 69.0485C146.468 69.1214 147.124 68.5024 146.76 68.2112C146.602 68.0898 146.164 68.7209 146.139 69.1092C146.139 69.3034 146.139 69.9466 146.419 69.9587C146.699 69.9709 148.377 70.1651 148.924 70.2985C149.471 70.432 148.924 68.9393 148.219 68.7694ZM140.157 77.4466C140.376 77.4466 140.534 76.6578 140.4 76.233C140.266 75.8083 139.549 76.1359 139.488 76.318C139.427 76.5 139.938 77.4102 140.157 77.4102M129.578 77.3374C129.578 76.9976 129.578 76.0024 129.347 75.8083C129.116 75.6141 129.14 75.9782 128.97 75.9539C128.8 75.9296 128.848 75.4806 128.678 75.4806C128.508 75.4806 128.739 76.2694 128.921 76.6942C129.104 77.1189 129.542 77.9078 129.578 77.301M129.323 74.8738C129.545 74.0831 129.668 73.2677 129.687 72.4466C129.627 71.8155 129.298 71.233 129.213 71.233C129.128 71.233 129.213 71.6699 129.286 72.2767C129.228 72.9491 129.093 73.6127 128.885 74.2549C128.885 74.534 129.152 75.1772 129.323 74.8131M115.704 104.534C111.04 99.8809 107.34 94.3564 104.816 88.2761C102.291 82.1958 100.992 75.6788 100.991 69.0971C100.99 41.6141 123.647 19 151.184 19C178.719 19 201.379 41.6141 201.379 69.0971C201.379 96.5789 178.72 119.193 151.184 119.194C144.593 119.212 138.063 117.925 131.973 115.409C125.883 112.893 120.354 109.196 115.704 104.534ZM103.203 70.2015C103.427 82.1787 108.173 93.63 116.493 102.265L121.953 96.8277C120.879 95.7021 119.872 94.5148 118.937 93.2719C118.494 93.1118 118.097 92.845 117.782 92.4951C117.32 91.9248 117.077 91.0752 116.858 91.0752C116.639 91.0752 116.858 91.6092 116.347 91.682C115.666 91.7791 114.718 90.1044 114.341 89.4976C113.964 88.8908 113.125 88.7694 112.821 88.1019C112.724 87.9078 112.48 87.301 112.249 87.6651C111.885 88.2597 110.596 86.3544 110.267 86.4515C109.939 86.5485 110.267 86.9733 110.036 87.1432C109.805 87.3131 108.601 85.6869 108.188 85.8689C107.775 86.051 107.726 86.2694 107.702 86.7427C107.677 87.216 108.298 88.5024 108.079 88.5995C107.86 88.6966 106.218 84.7646 106.559 84.5947C106.899 84.4248 106.717 84.7646 106.936 84.5947C107.155 84.4248 106.778 84.182 106.68 83.7573C106.583 83.3325 106.182 83.2961 106.145 82.7985C106.109 82.301 106.814 82.4709 106.814 82.2282C106.8 82.1028 106.816 81.976 106.861 81.858C106.905 81.7399 106.976 81.6339 107.069 81.5485C107.3 81.3422 107.848 81.5485 107.957 80.8568C108.066 80.1651 108.358 80.8568 108.419 81.2573C108.48 81.6578 109.805 81.9005 109.866 81.5485C109.927 81.1966 109.343 81.3301 109.343 81.1359C109.343 80.7597 110.061 81.1359 110.559 81.1359C110.778 81.1359 111.167 80.8083 111.654 81.0631C112.028 81.2883 112.44 81.4445 112.87 81.5243C111.655 77.8302 110.987 73.9789 110.888 70.0922H103.203M146.916 59.0364C147.281 58.3932 148.132 57.6651 148.132 57.8228C148.132 57.9806 147.622 58.4053 147.342 58.9029C148.23 58.5681 149.158 58.3518 150.102 58.2597V50.5777C145.924 50.8191 141.951 52.466 138.83 55.25L144.266 60.6748C144.89 60.1588 145.572 59.7151 146.296 59.3519L146.88 59.085M142.806 71.6092V71.0874C142.803 71.0551 142.803 71.0226 142.806 70.9903C142.839 70.9528 142.881 70.925 142.928 70.91C142.975 70.895 143.026 70.8934 143.074 70.9053C143.269 70.9053 143.512 71.051 143.743 71.0631C143.834 71.0714 143.926 71.0556 144.009 71.0172C144.092 70.9789 144.164 70.9194 144.217 70.8447C144.28 70.7561 144.339 70.6626 144.387 70.5655C144.427 70.4856 144.451 70.3993 144.46 70.3107C144.467 70.2787 144.467 70.2455 144.46 70.2136C144.46 70.1286 144.302 70.1044 144.083 70.2136H143.95C143.861 70.2257 143.771 70.2257 143.682 70.2136H143.56C143.5 70.2052 143.442 70.1848 143.39 70.1535C143.338 70.1223 143.292 70.0808 143.256 70.0316C143.227 69.9899 143.203 69.9452 143.183 69.8981C143.162 69.8419 143.134 69.7888 143.098 69.7403C142.953 69.5564 142.765 69.4107 142.551 69.3155C142.441 69.255 142.339 69.1817 142.247 69.0971C142.186 69.0584 142.133 69.0091 142.089 68.9515L141.98 68.8301L141.907 68.7573H141.445C141.301 68.7348 141.154 68.7473 141.017 68.7938C140.879 68.8403 140.755 68.9194 140.654 69.0243L140.52 69.1578L140.399 69.3155C140.349 69.3783 140.308 69.4478 140.277 69.5218C140.18 69.6881 140.099 69.8629 140.034 70.0437C139.414 71.6699 138.684 71.1723 138.818 71.7549C138.818 71.8277 139.001 71.8762 139.256 71.8884H141.056L141.214 71.8277L141.469 71.7306C141.543 71.7002 141.621 71.6798 141.7 71.6699C141.851 71.6301 142.011 71.6365 142.158 71.6885C142.306 71.7404 142.434 71.8354 142.527 71.9612C142.639 72.1517 142.713 72.3617 142.746 72.5801V72.3981C142.752 72.3619 142.752 72.325 142.746 72.2888V72.1675M128.154 84.8617C128.495 85.5777 129.078 86.1723 129.09 87.0219C129.103 87.1711 129.103 87.3216 129.09 87.4709C129.48 87.9563 129.893 88.4417 130.306 88.9029L135.754 83.466C133.137 80.5783 131.392 77.0105 130.72 73.1748C130.646 73.1993 130.567 73.1983 130.494 73.1719C130.421 73.1454 130.359 73.0951 130.319 73.0291C130.209 72.8471 130.319 72.6529 130.61 72.4587C130.525 71.8762 130.477 71.2451 130.44 70.699H126.792C126.792 71.2816 127.06 72.1068 126.683 72.3981C126.306 72.6893 125.929 72.3981 125.637 72.3981C124.944 72.4951 124.786 73.3325 124.968 73.9029C125.139 74.2403 125.214 74.6177 125.187 74.9951C125.187 75.3714 124.92 75.6748 125.54 76.0024C126.16 76.3301 127.011 77.4466 126.938 77.6529C126.865 77.8592 126.282 77.4102 126.245 77.8714C126.209 78.3325 127.072 77.7985 127.023 78.7573C127.001 79.2876 127.093 79.818 127.291 80.3107C127.704 80.9867 127.943 81.7536 127.984 82.5437C127.857 83.3069 127.916 84.0892 128.154 84.8252M123.363 75.6262C124.141 75.9053 125.625 75.2743 124.579 74.0607C124.141 73.551 124.883 72.0947 124.993 71.8155C125.102 71.5364 125.783 71.1238 125.99 70.6019H122.767C122.826 72.2718 123.033 73.9333 123.388 75.5655M123.996 95.1044C123.424 94.7403 122.889 94.5097 122.561 94.7039H122.488C122.78 95.0316 123.071 95.3592 123.375 95.6748L123.996 95.068M132.167 61.2087C133.059 59.185 134.27 57.3167 135.754 55.6748L130.379 49.9223C125.751 54.8867 123.07 61.3495 122.828 68.1262H126.622C127.267 67.1068 127.048 66.3301 127.267 65.699C127.491 65.1396 127.777 64.6068 128.118 64.1092C128.397 63.6602 128.714 63.1505 129.334 63.1505C130.55 63.1505 130.89 62.4952 131.668 62.1311C132.447 61.767 133.845 61.5607 133.687 61.1481C133.529 60.7354 130.793 61.9612 130.732 61.7427C130.671 61.5243 131.607 61.4151 132.021 61.0388C132.095 60.9766 132.177 60.9236 132.264 60.8811M137.371 56.8641C136.397 57.9409 135.556 59.1306 134.866 60.4078L135.097 60.2985C135.506 60.0858 135.954 59.9578 136.414 59.9224C136.873 59.8869 137.336 59.9447 137.772 60.0922C138.457 60.4745 139.101 60.9259 139.694 61.4393C139.864 61.5607 139.937 61.318 140.727 61.2087C141.068 61.2087 141.141 61.4879 141.615 61.5485C141.777 61.5655 141.94 61.5655 142.101 61.5485L137.371 56.8277M130.683 66.5364C130.324 66.3641 129.937 66.2572 129.54 66.2209C129.243 66.1849 128.942 66.2329 128.671 66.3595C128.4 66.4861 128.171 66.6862 128.008 66.9369C127.789 67.2741 127.71 67.6835 127.789 68.0777H130.537C130.537 67.5558 130.61 67.0461 130.683 66.5364ZM132.994 72.6893C133.64 75.9521 135.152 78.9822 137.371 81.4636L142.806 76.0388C142.346 75.5012 141.938 74.92 141.591 74.3034C141.51 74.3916 141.44 74.4894 141.384 74.5947C141.274 74.8374 141.384 75.6505 141.08 75.9903C140.776 76.3301 139.487 75.0073 139.11 74.8859C139.027 74.8643 138.94 74.8619 138.856 74.8788C138.772 74.8957 138.693 74.9314 138.625 74.9834C138.557 75.0354 138.502 75.1021 138.464 75.1786C138.426 75.2551 138.405 75.3393 138.405 75.4248V75.432C138.466 75.8568 138.405 76.0146 138.198 76.051C137.991 76.0874 137.116 75.4685 137.517 75.3107C137.918 75.1529 137.395 74.7282 137.189 74.5704C136.982 74.4126 136.289 74.5704 136.034 74.1942C135.781 73.8765 135.45 73.6298 135.073 73.4782C134.964 73.4782 134.429 73.2233 134.076 73.4053C133.723 73.5874 133.504 73.2597 133.298 73.0534L132.945 72.6893M137.31 53.8058C140.838 50.6273 145.356 48.7587 150.102 48.5146V40.8447C143.312 41.0843 136.836 43.7601 131.863 48.3811L137.286 53.8058M130.343 46.8762C135.713 41.856 142.725 38.9498 150.078 38.6966V31.0388C140.709 31.2994 131.765 34.9979 124.956 41.4272L130.379 46.8519M123.436 42.9442C116.955 49.7599 113.238 58.7327 113.003 68.1262H120.676C120.93 60.7872 123.842 53.789 128.872 48.4296L123.436 42.9442ZM113.003 70.1893C113.104 74.068 113.806 77.9078 115.083 81.5728H115.204C115.998 81.6346 116.796 81.5013 117.527 81.1845C118.281 80.6019 117.527 78.5146 118.05 77.6529C118.633 76.5728 120.092 74.0121 120.481 74.0121C120.871 74.0121 120.858 74.2791 121.053 74.3277C120.818 72.9593 120.676 71.5767 120.627 70.1893H113.003ZM150.114 109.388C140.158 109.13 130.652 105.195 123.436 98.3447L117.989 103.782C126.643 112.081 138.115 116.818 150.114 117.046V109.388ZM150.114 99.5825C143.362 99.3679 136.877 96.9027 131.693 92.5801C131.8 92.7112 131.897 92.8483 131.984 92.9927C132.337 93.5995 133.577 94.8374 132.787 95.335C131.997 95.8325 131.06 95.4685 130.452 95.4563C129.844 95.4442 128.823 96.4393 128.264 96.5364C127.651 96.6743 127.01 96.6061 126.44 96.3422C126.222 96.2364 126.014 96.1104 125.82 95.966L124.956 96.8277C131.766 103.282 140.727 106.995 150.114 107.252V99.5825ZM150.114 96.8884C149.077 97.0241 148.024 96.954 147.014 96.682C146.211 96.1238 145.251 95.5777 145.141 95.1408C144.947 94.3762 143.925 93.8058 143.925 93.0898C143.925 92.3738 145.032 92.0219 144.74 91.2209C144.448 90.4199 145.129 89.7646 146.284 89.2063C142.965 88.3896 139.9 86.768 137.359 84.4854L131.887 89.9709C136.855 94.598 143.335 97.2711 150.127 97.4951L150.114 96.8884ZM149.786 86.9005C150.455 87.3981 151.245 86.7427 151.78 86.6456C152.595 86.5121 153.458 86.2816 154.212 86.2087C154.966 86.1359 154.212 87.2646 154.65 87.3131C155.088 87.3617 157.58 87.7743 157.751 87.2403C157.921 86.7063 157.921 86.6092 158.419 86.5C159.312 86.4471 160.178 86.1717 160.936 85.699C161.228 85.4806 161.836 85.4078 162.007 85.068C162.177 84.7282 161.885 83.1869 161.301 83.4417C161.022 83.5631 160.669 83.9636 160.085 84.267C159.502 84.5704 159.149 84.6675 158.76 84.1456C158.371 83.6238 158.967 83.3083 159.258 82.9927C159.708 82.4951 160.122 81.9976 160.62 81.9976C160.815 81.9976 161.836 81.4879 161.763 81.0146C161.69 80.5413 160.438 81.0146 160.158 80.8204C159.879 80.6262 160.158 80.2015 160.012 80.1408C159.866 80.0801 159.417 80.6748 159.769 81.0024C159.939 81.1723 159.477 81.6578 158.954 81.318C158.432 80.9782 158.444 82.5316 158.48 82.7743C158.517 83.017 159.076 82.9685 158.699 83.4539C158.322 83.9393 158.201 83.5752 157.921 83.818C157.641 84.0607 157.52 84.2185 157.921 84.6311C158.322 85.0437 157.739 85.5898 157.617 84.9951C157.532 84.6068 156.717 84.7282 156.559 84.2791C156.401 83.8301 155.72 83.8786 154.917 83.4539C154.297 83.1384 154.37 84.0728 155.416 84.3155C156.462 84.5583 156.267 84.6189 156.012 85.1772C155.756 85.7354 155.842 84.8252 154.796 84.5461C154.115 84.3641 154.091 84 153.58 84.0121C153.069 84.0243 153.215 84.534 152.644 84.4005C152.072 84.267 152.145 84.8738 151.744 85.0437C151.343 85.2136 151.282 86.1238 150.795 86.3665C150.054 86.7306 148.546 86.4636 148.619 85.7354C148.692 85.0073 148.716 84.4612 149.142 84.2063C149.567 83.9515 150.127 84.6311 150.637 84.4005C151.148 84.1699 151.051 83.5874 150.722 83.1869C150.625 83.0655 150.224 82.8714 150.236 82.7379C150.248 82.6044 151.014 82.5194 151.452 82.2646C151.814 81.9175 152.152 81.5437 152.461 81.1481C152.668 80.9782 153.094 80.9418 153.13 80.784C153.166 80.6262 152.838 80.2379 152.862 79.9951C152.887 79.7524 152.984 79.5704 153.166 79.5825C153.349 79.5947 153.58 80.1408 153.458 80.2621C153.337 80.3835 153.556 80.6505 153.811 80.5534C154.066 80.4563 155.027 80.0922 155.234 80.0316C155.44 79.9709 155.136 79.1214 155.234 78.9757C155.331 78.8301 155.452 78.9757 155.586 78.8908C155.72 78.8058 155.307 78.6117 155.367 78.3204C155.428 78.0291 156.364 77.8471 156.097 77.6772C155.829 77.5073 155.489 77.9927 155.282 78.0898C154.808 78.2961 154.589 77.7864 154.601 77.3981C154.601 77.2039 154.869 76.5364 154.601 76.4029C154.334 76.2694 154.237 77.0218 154.188 77.1796C153.993 77.568 154.021 78.0316 154.261 78.3932C154.443 78.733 154.346 79.9102 153.993 80.0437C153.641 80.1772 153.434 79.4369 153.252 79.1456C153.234 79.1109 153.205 79.0827 153.17 79.0652C153.135 79.0478 153.096 79.0419 153.057 79.0485V79.1092L152.935 79.3034C152.935 79.3034 152.85 79.4733 152.777 79.6796C152.758 79.7398 152.723 79.7938 152.676 79.8364C152.629 79.8789 152.572 79.9086 152.51 79.9223C152.106 79.9708 151.7 79.9952 151.294 79.9951H150.832C150.883 80.2245 150.956 80.4478 151.051 80.6626C151.27 81.0631 151.671 81.3908 151.598 81.6942C151.525 81.9976 150.285 82.2524 150.187 82.034C150.09 81.8155 150.504 81.2209 150.467 80.9782C150.467 80.5291 150.175 80.2621 150.2 79.9466C148.064 79.7284 146.042 78.8838 144.387 77.5194L138.952 82.9442C141.696 85.3836 145.102 86.9586 148.74 87.4709C149.263 87.1432 149.482 86.5728 149.896 86.8762M156.899 99.0121C155.402 99.2901 153.886 99.4564 152.364 99.5097V107.18C155.414 107.097 158.444 106.648 161.386 105.845C160.778 105.335 160.511 104.51 159.769 104.255C158.492 103.818 158.152 103.041 158.833 101.888C159.21 101.282 159.064 101.039 158.626 100.383C158.206 99.7593 157.603 99.2803 156.899 99.0121ZM152.364 97.3738C153.587 97.324 154.806 97.1942 156.012 96.9854C155.855 96.8647 155.672 96.7839 155.477 96.75C155.282 96.7162 155.081 96.7303 154.893 96.7913C153.677 97.1311 154.066 96.1481 152.327 96.3908V97.3738M152.327 116.973C164.328 116.747 175.8 112.01 184.453 103.709L179.006 98.2719C176.181 100.942 172.987 103.194 169.521 104.959C168.383 105.753 167.16 106.416 165.873 106.937C165.433 107.191 164.944 107.348 164.438 107.398C164.283 107.397 164.131 107.351 164.001 107.265C160.22 108.519 156.274 109.21 152.291 109.316V116.973M173.655 48.1869C173.659 48.2192 173.659 48.2517 173.655 48.284C173.651 48.3045 173.642 48.3238 173.63 48.3405C173.617 48.3573 173.601 48.3711 173.582 48.3811C174.852 49.7454 175.991 51.2242 176.987 52.7985C177.109 52.6529 177.206 52.5194 177.364 52.7015C177.522 52.8835 177.084 53.5752 177.887 53.4296C178.373 53.3325 178.264 53.9515 177.887 54.2913C178.142 54.7282 178.373 55.1893 178.604 55.6384C178.884 55.7718 179.103 55.9175 179.139 56.1117C179.327 56.6748 179.473 57.2512 179.577 57.835C179.967 58.8022 180.304 59.7913 180.586 60.7961C180.988 60.4684 181.425 60.6505 181.474 61.2087C181.496 61.7937 181.366 62.375 181.097 62.8956C181.447 64.574 181.654 66.2791 181.717 67.9927H189.402C189.254 63.0343 188.147 58.1512 186.143 53.6117C185.997 53.733 185.791 53.7451 185.535 54.0728C185.28 54.4005 184.514 53.9515 184.174 53.5267C183.529 52.7257 182.009 50.5049 181.328 50.3835C180.647 50.2621 180.331 49.5583 179.735 49.4369C179.139 49.3155 178.386 48.9757 178.288 48.3447V48.3325C178.287 48.0678 178.182 47.8139 177.996 47.6256C177.809 47.4372 177.556 47.3294 177.291 47.3252C176.589 47.232 175.945 46.8869 175.479 46.3544L173.643 48.1869M178.325 92.8835C178.601 93.4918 178.673 94.1726 178.531 94.8252L178.957 95.2379C185.42 88.4385 189.139 79.497 189.402 70.1286H181.717C181.461 77.4648 178.554 84.4608 173.534 89.8252L176.294 92.5922C176.319 92.5583 176.339 92.5217 176.355 92.483C176.504 91.9757 176.563 91.4454 176.525 90.9175C176.525 90.6262 177.607 90.699 177.741 91.1723C177.92 91.7561 178.135 92.3277 178.386 92.8835M172.05 98.1505C171.722 98.7573 173.011 99.0243 172.768 99.6068C172.525 100.189 171.552 100.966 171.71 101.257C173.781 99.9469 175.719 98.439 177.498 96.7549L172.075 91.3422C171.701 91.6978 171.296 92.0376 170.859 92.3617C170.761 92.9927 170.859 93.4782 171.613 93.7087C172.367 93.9393 173.814 94.801 173.522 95.6141C173.23 96.4272 172.391 97.4223 172.002 98.1505M175.285 66.7184C175.71 67.3131 174.288 67.1432 173.984 67.932C173.968 67.967 173.948 67.9997 173.923 68.0291H179.589C179.589 67.216 179.48 66.4151 179.383 65.6019L179.261 65.8447C178.835 66.7306 178.762 66.1966 178.799 65.8447C178.868 65.3459 179.008 64.8604 179.212 64.4005L179.066 63.6238C178.856 63.8917 178.579 64.1008 178.264 64.2306C178.021 64.3519 177.778 64.9345 177.692 65.1651C177.607 65.3956 176.951 65.1044 176.476 65.3471C175.589 65.7718 174.665 65.8447 175.321 66.767M176.379 55.9296C175.208 53.7299 173.757 51.6904 172.063 49.8617L166.627 55.2864C167.547 56.3244 168.361 57.4504 169.059 58.6481C169.862 58.7282 170.603 59.1153 171.126 59.7282C171.528 60.2379 172.671 61.2573 172.5 61.7184C172.33 62.1796 172.634 62.3495 172.889 62.5316C173.145 62.7136 173.57 62.7985 173.789 62.5316C174.19 62.0218 174.251 61.318 174.786 60.9053C175.321 60.4927 176.768 61.9126 176.768 62.1917C176.768 62.4709 176.416 62.5437 176.318 63.0413C176.185 63.733 175.601 64.5461 176.318 64.7767C177.291 65.1165 177.413 64.7767 177.887 64.0364C178.094 63.7209 178.057 63.2112 178.288 62.9078C178.448 62.7367 178.637 62.5959 178.848 62.4951C178.488 60.9879 178 59.5141 177.388 58.0898C177.251 57.9361 177.075 57.8227 176.878 57.7621C176.525 57.6408 176.72 57.3374 176.258 57.1917C175.796 57.0461 175.528 56.8762 175.479 55.9782C175.431 55.0801 176.112 56.2209 176.27 56.0874C176.428 55.9539 176.343 56.0146 176.379 55.966M167.211 59.7039C166.699 58.8484 166.118 58.0366 165.472 57.2767C165.247 57.2791 165.024 57.2379 164.815 57.1553L163.028 58.9393C163.368 59.0364 163.745 58.9393 164.171 59.0971C164.597 59.2549 164.414 57.7743 165.144 57.8835C165.873 57.9927 166.08 58.5024 165.472 58.733C164.864 58.9636 165.594 59.3034 164.998 59.5097C164.402 59.716 165.436 60.1772 165.423 60.3956C165.411 60.6141 164.682 60.7961 165.788 61.1359C166.895 61.4757 165.788 60.2136 165.958 60.0316C166.129 59.8495 166.749 60.3714 166.919 60.1286C167.089 59.8859 167.077 59.8859 167.211 59.7039ZM165.107 86.3301C164.718 86.2087 162.59 85.3956 162.602 85.6869C162.615 85.9782 162.238 85.7718 162.116 85.8932C163.218 86.5862 164.397 87.1483 165.63 87.568C166.319 87.7636 167.045 87.7886 167.746 87.6408C168.5 87.4952 168.719 87.835 169.071 87.8228C169.424 87.8107 169.91 87.1189 170.202 86.7063C170.98 85.6019 170.834 85.4927 171.041 85.2743C171.248 85.0558 172.063 86.7549 171.965 87.8228C171.965 87.9927 171.965 88.1505 171.904 88.3083L171.99 88.3811C176.621 83.4173 179.305 76.9551 179.553 70.1772H173.728C174.071 70.6614 174.38 71.1675 174.653 71.6942C174.944 72.301 175.115 73.2597 175.613 73.3083C176.416 73.3811 177.243 74.0485 177.255 74.6068C177.255 75.7597 173.704 76.0388 173.23 75.8932C172.756 75.7476 172.561 75.7476 172.537 76.3665C172.512 76.9854 171.236 77.0825 170.725 77.5073C170.214 77.932 170.105 78.8422 169.728 79.449C169.149 80.132 168.506 80.7579 167.807 81.318C166.943 81.9248 165.302 81.9612 166.056 82.3617C166.591 82.6408 167.794 82.7379 167.649 82.4587C167.503 82.1796 167.734 82.1068 167.94 82.3738C168.147 82.6408 168.67 82.1796 168.658 81.8155C168.646 81.4515 168.573 80.9053 168.889 80.8932C169.4 80.8932 169.947 80.2743 170.214 80.335C170.482 80.3956 170.895 81.0388 170.603 83.0291C170.36 84.4594 169.804 85.8186 168.974 87.0097C168.573 87.6772 168.159 87.1675 167.612 86.8884C166.817 86.635 166.004 86.4403 165.18 86.3058M185.888 102.265C194.208 93.63 198.954 82.1787 199.178 70.2015H191.506C191.247 80.138 187.304 89.6255 180.44 96.8277L185.888 102.265ZM199.191 68.1262C198.974 56.1272 194.222 44.653 185.888 36.0024L180.197 41.682C181.016 42.9419 181.984 44.099 183.079 45.1286C183.651 45.7112 184.295 46.2694 184.745 46.7791C185.195 47.2888 188.332 51.1238 187.736 51.6335L187.603 51.7549C190.019 56.8469 191.348 62.3848 191.506 68.017H199.178M152.244 28.8301C158.565 28.984 164.76 30.6266 170.325 33.6238C170.789 33.5776 171.247 33.4757 171.687 33.3204C172.38 33.0049 173.717 33.7209 174.374 34.0971C175.031 34.4733 175.42 34.9466 176.064 35.3107C177.008 35.8837 177.708 36.7816 178.034 37.835C178.277 38.9151 178.958 38.8422 178.618 39.2791C178.448 39.4976 178.703 39.5704 179.031 39.7646L184.369 34.449C175.718 26.1443 164.245 21.403 152.244 21.1723V28.8301ZM152.244 38.6359C158.539 38.8564 164.611 41.0234 169.62 44.8374C169.072 44.1092 168.525 43.3568 168.258 43.0898C167.784 42.5922 166.033 41.9733 166.203 41.682C166.373 41.3908 167.954 42.6529 168.221 42.4223C168.489 42.1917 167.431 40.7233 167.516 40.6748C168.376 41.2944 169.089 42.0937 169.607 43.017C169.875 43.4175 170.605 43.2233 171.164 43.6117C171.723 44 171.687 44.5097 172.1 44.8252C172.173 44.8859 173.049 45.3956 172.538 45.335C172.392 45.335 172.173 45.0073 172.003 45.165C171.833 45.3228 172.064 45.7961 172.368 46.3786L174.909 43.8301C174.544 43.0777 173.815 42.0947 173.304 41.9733C172.793 41.8519 172.453 42.2767 172.088 42.5801C171.723 42.8835 171.286 42.9806 171.225 42.7743C171.208 42.4347 171.208 42.0944 171.225 41.7549C171.225 41.4636 170.957 41.233 170.884 40.9539C170.702 40.2864 170.969 39.5461 170.556 39.1092C170.144 38.547 169.782 37.9501 169.474 37.3252C168.928 36.6406 168.549 35.8388 168.367 34.983C163.342 32.4591 157.819 31.0749 152.195 30.9296L152.244 38.6359ZM152.244 48.4539C156.992 48.6907 161.511 50.5603 165.035 53.7451L170.459 48.3204C165.486 43.6994 159.01 41.0236 152.219 40.784L152.244 48.4539ZM152.244 58.2718C152.974 58.3447 153.695 58.4915 154.396 58.7087C154.578 58.2597 155.04 58.0413 155.405 57.7864C155.77 57.5316 156.183 57.1432 156.11 57.9563C156.108 58.4296 155.888 58.8774 155.515 59.1699C156.272 59.4915 156.991 59.8981 157.655 60.3835L158.08 60.7233L158.822 59.983C158.815 59.9552 158.815 59.9259 158.822 59.8981C158.822 59.4854 159.43 58.9879 160.135 58.6845L162.567 56.2573H162.385C162.069 56.2573 161.606 56.8883 161.29 56.7063C160.974 56.5243 162.348 55.25 162.981 55.4927L163.26 55.6019L163.564 55.2985C160.444 52.5146 156.471 50.8676 152.292 50.6262L152.244 58.2718ZM151.344 60.3714H151.174C150.287 60.3714 149.407 60.5024 148.559 60.7597C148.45 60.8811 148.377 60.9903 148.438 61.0752C148.644 61.3786 149.289 60.7354 149.374 61.3301C149.459 61.9248 148.656 61.4515 148.729 61.767C148.802 62.0825 149.325 61.9126 149.337 62.2646C149.29 62.6965 149.081 63.0948 148.754 63.3811C148.413 63.5995 146.577 63.8422 146.395 64.267C146.26 64.6426 146.053 64.9887 145.787 65.2864C145.483 65.6141 143.999 66.5 143.999 66.7184C143.999 67.2524 144.705 66.5728 144.911 66.3544C145.118 66.1359 145.653 66.0267 146.127 65.7597C146.602 65.4927 147.027 66.682 146.322 66.7306C145.884 66.7306 145.519 67.9442 144.838 67.75C144.668 67.6893 144.17 67.3859 144.072 67.75C143.975 68.1141 145.082 68.1262 145.446 68.3689C146.346 68.9636 144.753 68.9151 144.498 69.085C144.243 69.2549 144.376 69.5825 144.717 69.449C145.057 69.3155 145.495 68.9636 145.714 69.5218C145.981 70.2864 144.498 73.0655 144.012 72.7743C143.768 72.6044 143.513 72.835 143.282 72.932C143.588 73.557 143.968 74.1444 144.413 74.6796C144.717 74.1942 145.191 73.466 145.398 73.466C145.604 73.466 145.58 73.2354 145.69 73.0413C145.799 72.8471 146.164 73.0413 146.188 72.7136C146.212 72.3859 147.051 71.9126 147.149 71.4272C147.149 71.1723 146.881 70.9053 147.015 70.699C147.056 70.6098 147.117 70.5308 147.193 70.4678C147.268 70.4049 147.357 70.3595 147.453 70.335C147.623 70.2743 148.024 70.6748 148.146 70.5049C148.267 70.335 148.863 70.5049 149.362 70.7476C149.568 70.8811 149.97 70.7476 150.213 71.0752C150.456 71.4029 150.213 71.6092 150.213 71.7063C150.213 71.8034 150.42 71.7063 150.517 71.7063C150.614 71.7063 149.617 72.5316 149.739 72.9199C149.86 73.3083 148.827 74.9709 148.523 75.2379C148.219 75.5049 147.477 75.2379 147.222 75.2379C146.966 75.2379 146.893 75.5534 146.468 75.4442C146.092 75.4064 145.713 75.487 145.386 75.6748C146.973 77.0744 149.019 77.8469 151.137 77.8471C151.605 77.8435 152.073 77.8022 152.535 77.7257C152.786 77.3653 152.94 76.9478 152.985 76.5121C152.982 76.2439 153.023 75.9782 153.107 75.7233C153.229 75.5291 153.934 74.6553 154.226 74.6675C154.517 74.6796 154.639 74.8981 155.004 74.7888C155.697 74.5704 156.135 74.7888 156.147 75.0558C156.159 75.3228 155.259 75.3471 155.296 75.5898C155.332 75.8325 155.964 76.0024 156.183 75.7597C156.324 75.6071 156.42 75.4189 156.461 75.2156C156.501 75.0122 156.485 74.8016 156.414 74.6068C156.135 74.2549 156.147 74.1092 156.548 74.2427C156.949 74.3762 156.791 73.3568 157.034 73.0291C157.278 72.7015 156.439 72.8714 156.062 72.932C155.685 72.9927 155.393 72.216 155.393 71.949C155.393 71.682 156.074 72.6286 156.426 72.6529C156.635 72.6331 156.831 72.5468 156.987 72.407C157.142 72.2671 157.248 72.081 157.29 71.8762C157.29 71.5364 156.536 71.5 156.414 71.0874C156.354 70.8689 157.034 71.0874 156.986 70.8689C156.937 70.6505 157.059 70.2136 156.621 70.0316C156.183 69.8495 155.806 68.4782 155.405 68.3932C155.004 68.3083 154.846 68.7209 154.663 68.8665C154.481 69.0121 154.177 68.7573 154.335 68.6117C154.679 68.345 154.965 68.0103 155.174 67.6286C155.344 67.0461 156.098 67.6286 155.964 66.8519C155.831 66.0752 155.077 66.1481 155.417 65.7233C155.505 65.6244 155.558 65.4995 155.569 65.3676C155.579 65.2357 155.546 65.1042 155.474 64.9929C155.402 64.8816 155.296 64.7967 155.172 64.7511C155.048 64.7055 154.912 64.7017 154.785 64.7403C154.457 64.801 154.104 64.2549 154.068 63.7937C154.068 63.5388 153.301 63.5752 153.338 63.2961C153.399 62.75 152.56 62.6893 152.049 62.7257C151.421 62.5933 150.854 62.2611 150.432 61.7791C150.322 61.585 149.617 61.949 149.848 61.2087C150.079 60.4684 150.784 61.3422 151.064 61.1238C151.168 61.0602 151.243 60.9594 151.275 60.842C151.307 60.7247 151.292 60.5997 151.234 60.4927M150.018 21.2937C138.017 21.5268 126.546 26.2678 117.893 34.5704L123.34 40.0073C130.556 33.1552 140.062 29.2162 150.018 28.9515V21.2937ZM116.373 36.0752C108.104 44.7283 103.403 56.1707 103.204 68.1262H110.877C111.115 58.1662 115.054 48.6503 121.93 41.4272L116.47 35.9903" fill="white"/>
</svg>
