<svg width="144" height="120" viewBox="0 0 144 120" fill="none" xmlns="http://www.w3.org/2000/svg">
<path d="M114.258 109.454C114.446 109.345 114.641 109.248 114.842 109.163C115.042 109.078 115 109.163 115.024 109.26C112.475 111.831 109.305 113.704 105.819 114.697C103.446 115.352 100.967 115.529 98.5234 115.218C94.8227 114.724 91.2949 113.351 88.2364 111.214C86.3516 110 84.4912 108.714 82.6308 107.451C81.6125 106.782 80.4711 106.322 79.2729 106.097C78.0746 105.872 76.8435 105.887 75.6512 106.141C74.3015 106.286 75.3229 106.93 75.5296 107.027C78.8574 108.653 82.0108 110.613 84.9411 112.876C86.9353 114.333 90.4859 117.731 90.4859 117.731L87.8229 120C87.8229 120 85.7923 117.731 84.9168 116.845C81.375 113.104 77.273 109.936 72.7572 107.451C72.5885 107.305 72.3726 107.225 72.1492 107.225C71.9258 107.225 71.71 107.305 71.5412 107.451C67.0273 109.939 62.9257 113.107 59.3816 116.845C58.5061 117.731 56.4755 120 56.4755 120L53.8125 117.731C53.8125 117.731 57.3631 114.308 59.3573 112.876C62.2876 110.613 65.441 108.653 68.7688 107.027C68.9755 106.93 69.9848 106.286 68.6594 106.141C67.4651 105.885 66.2319 105.87 65.0315 106.095C63.8312 106.32 62.6877 106.781 61.6676 107.451C59.8072 108.665 57.9468 109.976 56.062 111.214C53.0048 113.353 49.4764 114.727 45.775 115.218C43.3321 115.529 40.8528 115.352 38.4792 114.697C34.9907 113.697 31.8173 111.821 29.2622 109.248C29.3139 109.196 29.3835 109.165 29.4568 109.163C29.6574 109.248 29.852 109.345 30.0405 109.454C33.8295 111.314 38.1449 111.816 42.2609 110.874C45.102 110.216 47.8655 109.26 50.5051 108.022C52.4263 107.209 54.3232 106.299 56.3052 105.655C61.3402 104.029 66.7415 103.907 71.8452 105.303H72.3802C77.4839 103.907 82.8853 104.029 87.9202 105.655C89.9022 106.299 91.7991 107.209 93.7204 108.022C96.36 109.26 99.1234 110.216 101.965 110.874C106.079 111.816 110.397 111.314 114.185 109.454M127.074 98.0097C125.435 99.3196 123.562 100.308 121.554 100.922C118.73 101.755 115.804 102.192 112.86 102.221C109.067 102.342 105.284 102.67 101.527 103.204C101.296 103.204 101.186 103.131 101.259 103.058C101.279 103.052 101.3 103.052 101.32 103.058C104.602 101.702 107.245 99.151 108.713 95.9223C109.929 93.6529 111.875 89.2112 112.361 88.483V88.301C112.106 88.3738 108.397 91.5413 106.707 93.0947C104.615 95.0364 102.646 97.1117 100.542 99.0534C97.7426 101.451 94.406 103.141 90.8142 103.981L90.6805 104.041C90.6478 104.091 90.6193 104.144 90.5953 104.199H90.6805C91.9937 104.502 95.8118 105.328 97.7817 105.85C100.767 106.711 103.83 107.28 106.926 107.549C110.868 107.945 114.845 107.27 118.435 105.595C122.025 103.92 125.094 101.308 127.317 98.034C127.277 98.0154 127.234 98.0058 127.19 98.0058C127.146 98.0058 127.102 98.0154 127.062 98.034M138.577 80.4248C136.671 82.6552 134.446 84.5934 131.975 86.1772C129.832 87.5922 127.565 88.8107 125.202 89.818C122.218 91.0529 119.416 92.6859 116.872 94.6723L116.386 95.0364C116.301 95.1092 116.203 95.0364 116.313 94.8786C116.422 94.7209 120.277 90.801 121.432 82.4879C121.833 79.5752 121.894 76.4199 122.83 73.6529C122.839 73.6124 122.838 73.5705 122.827 73.5304C122.817 73.4904 122.797 73.4534 122.77 73.4223C120.045 76.8245 117.923 80.6661 116.495 84.7816C115.717 87.0024 114.975 89.2354 114.173 91.4442C113.185 94.4709 111.522 97.2345 109.309 99.5267L109.102 99.7452C109.096 99.7894 109.096 99.8344 109.102 99.8786L109.868 99.7452C112.434 99.2112 114.988 98.6044 117.578 98.1675C121.791 97.5337 125.774 95.8425 129.153 93.2524C132.684 90.7011 135.555 87.3483 137.531 83.4709C138.057 82.4539 138.485 81.3896 138.808 80.2913C138.772 80.2733 138.733 80.264 138.693 80.264C138.653 80.264 138.613 80.2733 138.577 80.2913M143.611 60.4976C142.369 64.0914 140.285 67.3369 137.531 69.9636C134.365 73.0426 131.442 76.3616 128.789 79.8908C128.728 79.9757 128.582 79.8908 128.631 79.7816C129.718 76.1644 129.997 72.3528 129.445 68.6165C128.947 65.4612 127.561 62.0267 127.22 58.1675C127.192 58.0923 127.135 58.0313 127.062 57.9976C126.989 57.9636 127.062 58.0704 126.928 58.3617C126.105 60.851 125.559 63.4231 125.299 66.0316C125.129 69.1748 125.724 73.216 125.469 76.4563C125.165 80.2063 124.91 83.9078 123.195 87.2937V87.6092C124.569 86.7233 128.497 84.4175 131.087 82.682C134.348 80.5949 137.176 77.9002 139.416 74.7451C142.264 70.7028 143.781 65.8761 143.757 60.9345C143.768 60.7688 143.768 60.6026 143.757 60.4369C143.746 60.2706 143.575 60.5218 143.563 60.5461M135.233 62.682C135.233 62.682 135.172 62.682 135.16 62.7549C135.148 62.8277 135.039 62.682 135.039 62.6578C135.16 61.6019 135.185 60.5376 135.112 59.4782C134.844 55.8374 132.607 52.7306 130.649 49.6481C129.306 47.6424 128.119 45.5367 127.099 43.3495C127.042 43.2961 126.969 43.2621 126.892 43.2524C126.892 43.5922 126.892 44.6723 127.013 45.3762C127.753 50.6757 129.091 55.8746 131.002 60.8738C132.226 63.9892 132.705 67.3469 132.4 70.6796C132.4 70.9709 132.4 71.0073 132.473 71.0922C133.689 69.3689 135.999 66.9539 137.434 65.2185C138.869 63.483 146.809 54.4296 142.955 42.0267C142.803 41.4983 142.599 40.9861 142.347 40.4976C142.094 40.0085 142.176 40.6553 142.176 40.6917C142.176 49.6117 137.872 53.4345 136.097 59.5388C135.744 60.7524 135.476 61.784 135.245 62.682M135.245 44.2597C135.245 44.2597 134.82 43.0461 134.406 42.0874C134.236 41.6505 134.054 41.25 133.908 40.9587C132.534 38.2282 130.746 36.8204 128.46 34.9515C126.735 33.3966 125.207 31.6358 123.913 29.7087C123.846 29.682 123.772 29.682 123.706 29.7087H123.609C123.682 30.085 124.922 34.017 125.712 35.8495C126.989 38.4104 128.573 40.8066 130.43 42.9854L130.807 43.483C132.982 46.5026 134.721 49.8115 135.975 53.3131C135.975 53.3859 136.157 53.4466 136.157 53.4223C136.401 52.5121 137.519 48.9806 138.358 46.6019C139.14 44.2133 139.786 41.7822 140.292 39.3204C141.131 33.4587 139.197 25.8374 135.768 21.6748C135.707 21.6748 135.659 21.8568 135.671 21.8811L135.841 22.4272C135.914 22.682 135.987 22.9369 136.048 23.2039C136.756 26.4175 136.806 29.7403 136.194 32.9733C135.719 35.5352 135.479 38.1349 135.476 40.7403C135.476 41.1772 135.768 44.3811 135.732 44.5146C135.695 44.6481 135.549 44.5146 135.537 44.5146M124.971 11.4563C126.061 12.4841 126.93 13.7229 127.524 15.0971C128.473 17.3058 128.74 20.6432 129.36 23.1553C129.737 24.6966 129.968 25.7767 130.503 27.5121C130.503 27.6699 130.394 27.7306 130.309 27.585C128.533 25.1578 126.345 23.6893 123.22 21.7233C121.428 20.6514 119.86 19.2466 118.599 17.585C118.368 17.2694 118.125 16.966 117.894 16.6626C117.894 16.6626 117.723 16.5777 117.687 16.6019C117.675 16.7311 117.675 16.8611 117.687 16.9903C118.295 19.9545 119.699 22.6979 121.748 24.9272C123.414 26.5049 125.287 27.9126 127.062 29.3811C129.344 31.3241 131.43 33.4866 133.288 35.8374C135.146 38.1881 133.434 35.9223 133.434 35.8374C133.434 35.3762 133.373 34.6238 133.373 33.7743C133.373 31.8325 133.458 29.2476 133.543 27.4636C133.543 26.7476 133.604 26.0194 133.604 25.3034C133.663 23.1386 133.27 20.9852 132.449 18.9806C131.121 15.7061 128.656 13.018 125.506 11.4078L124.898 11.1772C124.881 11.2156 124.873 11.2569 124.873 11.2985C124.873 11.3402 124.881 11.3815 124.898 11.4199M111.327 5.1699C113.18 6.87981 114.814 8.81196 116.191 10.9223C117.463 12.9937 119 14.8908 120.763 16.5655C121.979 17.7791 125.554 20.5704 126.454 21.2621H126.527C126.345 20.2427 124.727 12.767 120.022 9.01699C117.329 6.89579 114.204 5.38807 110.865 4.59951C110.851 4.63412 110.844 4.67125 110.844 4.70874C110.844 4.74623 110.851 4.78335 110.865 4.81796C111.023 4.96359 111.145 5.04854 111.291 5.19418M37.3605 107.743C40.4607 107.475 43.5272 106.906 46.5167 106.044C48.4744 105.522 52.2926 104.697 53.618 104.393H53.6909C53.6669 104.338 53.6384 104.286 53.6058 104.235L53.472 104.175C49.8803 103.335 46.5437 101.645 43.7443 99.2476C41.6529 97.3058 39.683 95.2306 37.5794 93.2888C35.9014 91.7354 32.1806 88.568 31.9252 88.4345C31.9033 88.4974 31.9033 88.5658 31.9252 88.6286C32.4724 89.3568 34.4301 93.7986 35.5731 96.068C37.0419 99.3003 39.6901 101.852 42.9783 103.204C43.0634 103.277 42.9783 103.386 42.7108 103.35H42.65C38.8933 102.815 35.11 102.486 31.3172 102.367C28.373 102.336 25.4472 101.899 22.6231 101.068C20.6161 100.451 18.7433 99.4634 17.1026 98.1553C17.0626 98.1368 17.0191 98.1272 16.975 98.1272C16.9309 98.1272 16.8873 98.1368 16.8473 98.1553C19.0651 101.432 22.1315 104.047 25.7201 105.722C29.3088 107.398 33.2854 108.071 37.2268 107.67M34.2963 99.9393L35.0502 100.073C35.06 100.029 35.06 99.9833 35.0502 99.9393L34.8435 99.7209C32.6343 97.4257 30.9718 94.6631 29.9797 91.6384C29.1771 89.4296 28.4354 87.1966 27.6572 84.9757C26.2288 80.863 24.1113 77.022 21.395 73.6165C21.3788 73.6506 21.3703 73.688 21.3703 73.7257C21.3703 73.7635 21.3788 73.8008 21.395 73.835C22.3434 76.6384 22.3921 79.7694 22.8055 82.682C23.9485 90.9951 27.7909 94.915 27.9247 95.0728C28.0584 95.2306 27.9247 95.3034 27.8396 95.2306L27.3532 94.8665C24.8132 92.8809 22.0153 91.2479 19.036 90.0121C16.673 89.0049 14.4061 87.7864 12.2631 86.3714C9.78848 84.7914 7.56322 82.8527 5.66044 80.6189C5.62229 80.6015 5.58081 80.5924 5.53884 80.5924C5.49687 80.5924 5.4554 80.6015 5.41725 80.6189C5.74556 81.7172 6.17722 82.7816 6.70616 83.7986C8.67392 87.6779 11.5422 91.0315 15.072 93.5801C18.456 96.1702 22.443 97.8613 26.6601 98.4952C29.2379 98.932 31.7914 99.551 34.3693 100.073M13.09 82.7427C15.68 84.4782 19.6075 86.784 20.9815 87.6699C22.3556 88.5558 21.0788 87.5 21.0423 87.4151C21.0059 87.3301 21.0423 87.4151 21.0423 87.3544C19.3157 83.9685 19.0603 80.267 18.7563 76.517C18.501 73.2767 19.0968 69.2354 18.9266 66.0922C18.6783 63.482 18.1316 60.9086 17.2972 58.4223C17.2729 58.2945 17.2278 58.1715 17.1634 58.0583C17.099 57.9454 17.0297 58.1796 17.0054 58.2282C16.6649 62.0874 15.2787 65.5097 14.768 68.6772C14.2167 72.4135 14.4948 76.2251 15.5827 79.8422C15.6435 80 15.4854 80.0364 15.4368 79.9515C12.7759 76.4248 9.84911 73.1061 6.68185 70.0243C3.93654 67.3909 1.85337 64.1475 0.602039 60.5583C-0.649186 56.9697 0.443964 60.4248 0.407485 60.449C0.397757 60.6147 0.397757 60.7809 0.407485 60.9466C0.366351 65.9058 1.88459 70.753 4.74847 74.8058C6.99164 77.958 9.81903 80.6522 13.0778 82.7427M11.7159 71.1529C11.7159 71.1529 11.8375 71.0316 11.7889 70.7403C11.4906 67.4078 11.9692 64.0516 13.1872 60.9345C15.1138 55.9553 16.4602 50.7716 17.1999 45.4854C17.2789 44.7803 17.3215 44.0716 17.3215 43.3617C17.244 43.3713 17.1717 43.4053 17.1148 43.4587C16.0983 45.6454 14.9153 47.7511 13.5763 49.7573C11.6186 52.8398 9.38128 55.8981 9.10161 59.5874C9.02865 60.6468 9.05419 61.7112 9.17457 62.767C9.29616 63.8228 9.17457 62.8884 9.05297 62.8641C9.03846 62.8566 9.0256 62.8463 9.01515 62.8338C9.00471 62.8213 8.99689 62.8069 8.99217 62.7913C8.74898 61.8932 8.48147 60.8131 8.141 59.6481C6.34138 53.5801 2.06119 49.7209 2.06119 40.801C2.06119 40.801 1.9396 40.6068 1.8788 40.6068C1.63802 41.0991 1.43873 41.6106 1.28298 42.1359C-2.57162 54.5388 5.24701 63.4345 6.80344 65.3277C8.35987 67.2209 10.5608 69.4782 11.7524 71.2015M6.15898 46.5534C6.98584 48.9806 8.10452 52.4636 8.34771 53.3738C8.34771 53.3738 8.50579 53.3738 8.53011 53.2646C9.78384 49.7605 11.5278 46.4511 13.7101 43.4345L14.0749 42.9369C15.9357 40.761 17.5203 38.3643 18.7928 35.801C19.6007 33.792 20.3029 31.7423 20.8964 29.6602C21.4898 27.5777 20.8964 29.6602 20.7992 29.6602C20.7313 29.6432 20.6603 29.6432 20.5924 29.6602C19.2293 31.6142 17.6282 33.3916 15.8259 34.9515C13.5399 36.8204 11.7646 38.2282 10.3784 40.9587C10.2325 41.25 10.0622 41.6505 9.87982 42.0752C9.4664 43.0583 9.05297 44.2354 9.04081 44.2597C9.02865 44.284 8.8949 44.4418 8.84626 44.2597C8.79762 44.0777 9.07729 40.9223 9.10161 40.4854C9.10498 37.8798 8.8648 35.2795 8.38419 32.7184C7.77245 29.485 7.82623 26.1611 8.54227 22.949C8.54227 22.682 8.67602 22.4272 8.74898 22.1723C8.82194 21.9175 8.84626 21.8204 8.90705 21.6262C8.90573 21.5492 8.87533 21.4755 8.82194 21.4199C5.38077 25.5825 3.44739 33.2039 4.2864 39.0655C4.79459 41.5279 5.44418 43.9591 6.23194 46.3471M10.9012 27.2816C10.9863 29.0655 11.0715 31.6505 11.0836 33.5922V35.6553C11.0836 36.1165 11.2174 35.6553 11.2174 35.6553C13.0669 33.3012 15.1485 31.1382 17.4309 29.199C19.2062 27.7306 21.0788 26.3228 22.7447 24.7451C24.7943 22.5159 26.1982 19.7724 26.806 16.8083C26.8366 16.6806 26.8569 16.5508 26.8668 16.4199C26.83 16.4157 26.7928 16.419 26.7573 16.4294C26.7218 16.4398 26.6887 16.4572 26.6601 16.4806C26.4169 16.784 26.1859 17.0874 25.9548 17.4029C24.691 19.0619 23.123 20.4662 21.3342 21.5413C18.197 23.5073 16.0083 25 14.233 27.4029C14.1478 27.5485 13.9898 27.4879 14.0384 27.3301C14.5734 25.5947 14.8045 24.5146 15.1814 22.9733C15.7894 20.4612 16.0691 17.1238 17.0175 14.915C17.6161 13.5432 18.4844 12.3052 19.571 11.2743C19.5917 11.1947 19.5917 11.1111 19.571 11.0316C19.3599 11.0961 19.1529 11.1731 18.9509 11.2621C15.825 12.8702 13.3762 15.5381 12.0442 18.7864C11.1906 20.783 10.776 22.9391 10.8283 25.1092V27.2694M17.7836 21.1165H17.8687C18.7563 20.4248 22.3313 17.6456 23.5594 16.4199C25.3156 14.7387 26.8518 12.8426 28.1314 10.7767C29.5081 8.66583 31.1418 6.73359 32.9952 5.02427L33.4208 4.64806C33.4208 4.64806 33.4816 4.49029 33.4208 4.42961C30.0835 5.22076 26.9589 6.72822 24.2646 8.84709C19.5589 12.5607 17.9416 20.0728 17.7593 21.0922M70.7995 61.9903C71.1764 61.432 70.2523 61.0922 70.0091 62.051C69.7659 63.0097 70.4347 62.5485 70.7995 61.9903ZM80.8433 38.8228C80.4785 38.6408 79.0194 40.4248 79.2504 40.716C79.8985 40.193 80.4396 39.551 80.8433 38.8228ZM81.1595 38.5073C81.3784 38.6286 82.3754 38.0947 82.1687 37.9612C81.962 37.8277 80.8433 37.2816 80.819 37.6092C80.819 38.1311 80.9406 38.3981 81.1595 38.5073ZM98.8639 54.8665C99.3624 54.7573 99.3016 53.9563 98.8639 53.9806C98.4261 54.0049 97.9033 54.6602 98.037 54.6723C98.3775 54.6723 98.6207 54.9272 98.8882 54.8665M92.4558 37.3301C92.0545 37.3301 91.9572 37.767 92.3342 37.9612C92.6649 38.0279 93.0102 37.9757 93.3069 37.8155C93.5623 37.6456 93.8663 37.4393 93.8176 37.0388C93.769 36.6384 93.2097 36.1044 93.5136 35.8252C93.8176 35.5461 94.1581 35.9951 94.4743 35.8252C94.7904 35.6553 94.8269 35.4612 94.8269 35.1335C94.8269 34.8058 94.6688 34.0898 94.146 34.0898C93.6231 34.0898 93.0759 35.1335 93.0394 35.1942C92.9276 35.4789 92.9276 35.7953 93.0394 36.0801C93.2705 36.6262 93.1853 37.2937 92.4436 37.2937M101.126 37.3544C101.126 37.5971 101.807 39.2718 101.879 39.7816C101.952 40.2913 102.098 41.6019 102.463 41.4684C102.828 41.3349 102.67 40.534 102.621 40.2549C102.475 39.2852 102.244 38.3313 101.928 37.4029C101.746 36.8325 100.943 34.9757 100.712 35.0485C100.481 35.1214 101.113 36.3956 101.211 36.8204C101.248 37.025 101.248 37.2347 101.211 37.4393M96.6265 15.1456C97.0521 15.3155 97.0521 14.5146 96.3225 13.932C95.5929 13.3495 94.6323 13.6286 94.8877 13.932C95.413 14.409 95.9979 14.8167 96.6265 15.1456ZM76.8671 9.47816C76.0038 8.93204 76.7212 8.16748 76.0281 7.64563C75.6621 7.51782 75.2686 7.4898 74.8881 7.56447C74.5076 7.63914 74.154 7.81378 73.8637 8.07039C73.28 8.82282 74.6176 8.5801 75.0797 8.78641C75.5417 8.99272 76.782 10 76.9887 9.81796C77.1954 9.63592 76.9887 9.57524 76.855 9.47816M82.0836 6.8568C80.9284 6.32282 76.5631 6.34709 76.6726 7.48786C76.782 8.62864 79.1896 7.54854 79.8219 7.48786C80.4542 7.42718 83.105 7.37864 82.0836 6.8568ZM70.0821 57.6214C69.8632 57.5121 69.3768 57.7185 69.316 57.5C69.2552 57.2816 68.8904 57.318 68.9755 57.5C69.0607 57.682 68.8661 57.9126 69.0607 58.1553C69.2143 58.2778 69.4051 58.3446 69.6018 58.3446C69.7984 58.3446 69.9892 58.2778 70.1429 58.1553C70.2127 58.0791 70.2514 57.9795 70.2514 57.8762C70.2514 57.7729 70.2127 57.6734 70.1429 57.5971M67.7109 48.8107C68.0757 48.8107 68.0636 48.5316 68.2703 48.5437C68.477 48.5558 68.2703 48.8228 68.6716 48.8228C69.0728 48.8228 69.4133 47.8884 68.246 47.8884C67.2975 47.8884 67.4313 48.7985 67.7109 48.8107ZM69.2187 49.7694C68.5013 49.5874 68.6472 50 68.1973 50.0485C67.4677 50.1214 68.1244 49.5024 67.7596 49.2112C67.6015 49.0898 67.1638 49.7209 67.1394 50.1092C67.1394 50.3034 67.1394 50.9466 67.4191 50.9587C67.6988 50.9709 69.3768 51.1651 69.924 51.2985C70.4712 51.432 69.924 49.9393 69.2187 49.7694ZM61.1569 58.4466C61.3758 58.4466 61.5339 57.6578 61.4001 57.233C61.2663 56.8083 60.5489 57.1359 60.4881 57.318C60.4273 57.5 60.938 58.4102 61.1569 58.4102M50.5781 58.3374C50.5781 57.9976 50.578 57.0024 50.347 56.8083C50.116 56.6141 50.1403 56.9782 49.9701 56.9539C49.7998 56.9296 49.8485 56.4806 49.6782 56.4806C49.508 56.4806 49.739 57.2694 49.9214 57.6942C50.1038 58.1189 50.5416 58.9078 50.5781 58.301M50.3227 55.8738C50.5453 55.0831 50.6679 54.2677 50.6875 53.4466C50.6267 52.8155 50.2984 52.233 50.2133 52.233C50.1281 52.233 50.2133 52.6699 50.2862 53.2767C50.2277 53.9491 50.0931 54.6127 49.885 55.2549C49.885 55.534 50.1525 56.1772 50.3227 55.8131M36.7039 85.534C32.0401 80.8809 28.3402 75.3564 25.8157 69.2761C23.2912 63.1958 21.9915 56.6788 21.9908 50.0971C21.9896 22.6141 44.6466 0 72.1845 0C99.7187 0 122.379 22.6141 122.379 50.0971C122.379 77.5789 99.7199 100.193 72.1845 100.194C65.593 100.212 59.0635 98.9252 52.9732 96.4089C46.883 93.8926 41.3542 90.1964 36.7039 85.534ZM24.2026 51.2015C24.4266 63.1787 29.1733 74.63 37.4931 83.2646L42.9528 77.8277C41.879 76.7021 40.872 75.5148 39.9372 74.2719C39.4939 74.1118 39.0971 73.845 38.782 73.4951C38.3199 72.9248 38.0768 72.0752 37.8579 72.0752C37.639 72.0752 37.8579 72.6092 37.3472 72.682C36.6662 72.7791 35.7178 71.1044 35.3408 70.4976C34.9639 69.8908 34.1249 69.7694 33.8209 69.1019C33.7236 68.9078 33.4804 68.301 33.2494 68.6651C32.8846 69.2597 31.5957 67.3544 31.2674 67.4515C30.9391 67.5485 31.2674 67.9733 31.0363 68.1432C30.8053 68.3131 29.6015 66.6869 29.1881 66.8689C28.7746 67.051 28.726 67.2694 28.7017 67.7427C28.6774 68.216 29.2975 69.5024 29.0786 69.5995C28.8598 69.6966 27.2182 65.7646 27.5587 65.5947C27.8992 65.4248 27.7168 65.7646 27.9356 65.5947C28.1545 65.4248 27.7776 65.182 27.6803 64.7573C27.583 64.3325 27.1817 64.2961 27.1453 63.7985C27.1088 63.301 27.814 63.4709 27.814 63.2282C27.8003 63.1028 27.8162 62.976 27.8606 62.858C27.9049 62.7399 27.9765 62.6339 28.0694 62.5485C28.3004 62.3422 28.8476 62.5485 28.957 61.8568C29.0665 61.1651 29.3583 61.8568 29.4191 62.2573C29.4799 62.6578 30.8053 62.9005 30.8661 62.5485C30.9269 62.1966 30.3432 62.3301 30.3432 62.1359C30.3432 61.7597 31.0607 62.1359 31.5592 62.1359C31.7781 62.1359 32.1672 61.8083 32.6536 62.0631C33.0279 62.2883 33.4398 62.4445 33.8695 62.5243C32.6548 58.8302 31.9871 54.9789 31.8875 51.0922H24.2026M67.9164 40.0364C68.2812 39.3932 69.1324 38.6651 69.1324 38.8228C69.1324 38.9806 68.6217 39.4053 68.342 39.9029C69.2297 39.5681 70.1578 39.3518 71.1023 39.2597V31.5777C66.9239 31.8191 62.9507 33.466 59.8303 36.25L65.2656 41.6748C65.8904 41.1588 66.5716 40.7151 67.2963 40.3519L67.88 40.085M63.8065 52.6092V52.0874C63.8028 52.0551 63.8028 52.0226 63.8065 51.9903C63.8388 51.9528 63.881 51.925 63.9282 51.91C63.9754 51.895 64.0259 51.8934 64.074 51.9053C64.2686 51.9053 64.5117 52.051 64.7428 52.0631C64.8341 52.0714 64.926 52.0556 65.0092 52.0172C65.0924 51.9789 65.1641 51.9194 65.217 51.8447C65.2802 51.7561 65.3386 51.6626 65.3872 51.5655C65.4266 51.4856 65.4513 51.3993 65.4602 51.3107C65.4675 51.2787 65.4675 51.2455 65.4602 51.2136C65.4602 51.1286 65.3021 51.1044 65.0833 51.2136H64.9495C64.8607 51.2257 64.7707 51.2257 64.682 51.2136H64.5604C64.5001 51.2052 64.442 51.1848 64.3898 51.1535C64.3375 51.1223 64.2922 51.0808 64.2564 51.0316C64.2271 50.9899 64.2027 50.9452 64.1834 50.8981C64.1624 50.8419 64.1338 50.7888 64.0983 50.7403C63.9532 50.5564 63.7654 50.4107 63.5511 50.3155C63.4415 50.255 63.3394 50.1817 63.2472 50.0971C63.1861 50.0584 63.1326 50.0091 63.0891 49.9515L62.9796 49.8301L62.9067 49.7573H62.4446C62.3011 49.7348 62.1542 49.7473 62.0165 49.7938C61.8789 49.8403 61.7546 49.9194 61.6542 50.0243L61.5205 50.1578L61.3989 50.3155C61.3489 50.3783 61.308 50.4478 61.2773 50.5218C61.18 50.6881 61.0985 50.8629 61.0341 51.0437C60.414 52.6699 59.6844 52.1723 59.8181 52.7549C59.8181 52.8277 60.0005 52.8762 60.2559 52.8884H62.0555L62.2136 52.8277L62.4689 52.7306C62.5429 52.7002 62.6206 52.6798 62.7 52.6699C62.8512 52.6301 63.0109 52.6365 63.1583 52.6885C63.3058 52.7404 63.4342 52.8354 63.5268 52.9612C63.6387 53.1517 63.7129 53.3617 63.7457 53.5801V53.3981C63.7518 53.3619 63.7518 53.325 63.7457 53.2888V53.1675M49.1542 65.8617C49.4946 66.5777 50.0783 67.1723 50.0905 68.0219C50.1026 68.1711 50.1026 68.3216 50.0905 68.4709C50.4796 68.9563 50.893 69.4418 51.3064 69.9029L56.7539 64.466C54.1368 61.5783 52.3915 58.0105 51.7198 54.1748C51.6463 54.1993 51.5666 54.1983 51.4937 54.1719C51.4208 54.1454 51.3591 54.0951 51.3186 54.0291C51.2091 53.8471 51.3186 53.6529 51.6104 53.4587C51.5253 52.8762 51.4766 52.2451 51.4402 51.699H47.7923C47.7923 52.2816 48.0598 53.1068 47.6828 53.3981C47.3059 53.6893 46.929 53.3981 46.6371 53.3981C45.944 53.4951 45.7859 54.3325 45.9683 54.9029C46.1386 55.2403 46.214 55.6177 46.1872 55.9951C46.1872 56.3714 45.9197 56.6748 46.5398 57.0024C47.16 57.3301 48.0112 58.4466 47.9382 58.6529C47.8652 58.8592 47.2816 58.4102 47.2451 58.8714C47.2086 59.3325 48.072 58.7985 48.0233 59.7573C48.0014 60.2876 48.0926 60.818 48.2908 61.3107C48.7043 61.9867 48.9426 62.7536 48.9839 63.5437C48.8575 64.3069 48.9159 65.0892 49.1542 65.8252M44.3633 56.6262C45.1415 56.9053 46.625 56.2743 45.5792 55.0607C45.1415 54.551 45.8832 53.0947 45.9927 52.8155C46.1021 52.5364 46.783 52.1238 46.9897 51.6019H43.7675C43.8258 53.2718 44.0325 54.9333 44.3876 56.5655M44.9956 76.1044C44.4241 75.7403 43.8891 75.5097 43.5607 75.7039H43.4878C43.7796 76.0316 44.0714 76.3592 44.3754 76.6748L44.9956 76.068M53.1668 42.2087C54.0592 40.185 55.2702 38.3167 56.7539 36.6748L51.3794 30.9223C46.7511 35.8867 44.0703 42.3495 43.8282 49.1262H47.6221C48.2665 48.1068 48.0476 47.3301 48.2665 46.699C48.4915 46.1396 48.7772 45.6068 49.1177 45.1092C49.3974 44.6602 49.7135 44.1505 50.3336 44.1505C51.5496 44.1505 51.8901 43.4952 52.6683 43.1311C53.4465 42.767 54.8449 42.5607 54.6868 42.1481C54.5287 41.7354 51.7928 42.9612 51.732 42.7427C51.6712 42.5243 52.6075 42.4151 53.0209 42.0388C53.0952 41.9766 53.1769 41.9236 53.2641 41.8811M58.3712 37.8641C57.397 38.9409 56.556 40.1306 55.8663 41.4078L56.0973 41.2985C56.5062 41.0858 56.954 40.9578 57.4137 40.9224C57.8735 40.8869 58.3356 40.9447 58.7724 41.0922C59.4573 41.4745 60.1011 41.9259 60.6936 42.4393C60.8639 42.5607 60.9368 42.318 61.7272 42.2087C62.0677 42.2087 62.1406 42.4879 62.6149 42.5485C62.7766 42.5655 62.9395 42.5655 63.1012 42.5485L58.3712 37.8277M51.6834 47.5364C51.3242 47.3641 50.9372 47.2572 50.5404 47.2209C50.2434 47.1849 49.9423 47.2329 49.6714 47.3595C49.4005 47.4861 49.1707 47.6862 49.0082 47.9369C48.789 48.2741 48.7105 48.6835 48.7894 49.0777H51.5374C51.5374 48.5558 51.6104 48.0461 51.6834 47.5364ZM53.9937 53.6893C54.6404 56.9521 56.1521 59.9822 58.3712 62.4636L63.8065 57.0388C63.3456 56.5012 62.9384 55.92 62.5905 55.3034C62.5098 55.3916 62.4403 55.4894 62.3838 55.5947C62.2744 55.8374 62.3838 56.6505 62.0798 56.9903C61.7758 57.3301 60.4869 56.0073 60.11 55.8859C60.0271 55.8643 59.9404 55.8619 59.8564 55.8788C59.7725 55.8957 59.6935 55.9314 59.6255 55.9834C59.5575 56.0354 59.5022 56.1021 59.464 56.1786C59.4257 56.2551 59.4054 56.3393 59.4047 56.4248V56.432C59.4655 56.8568 59.4047 57.0146 59.198 57.051C58.9913 57.0874 58.1158 56.4685 58.5171 56.3107C58.9183 56.1529 58.3955 55.7282 58.1888 55.5704C57.982 55.4126 57.2889 55.5704 57.0336 55.1942C56.7809 54.8765 56.4499 54.6298 56.073 54.4782C55.9635 54.4782 55.4285 54.2233 55.0759 54.4053C54.7233 54.5874 54.5044 54.2597 54.2977 54.0534L53.945 53.6893M58.3103 34.8058C61.8383 31.6273 66.3557 29.7587 71.1023 29.5146V21.8447C64.3119 22.0843 57.8358 24.7601 52.8628 29.3811L58.286 34.8058M51.3429 27.8762C56.7128 22.856 63.7246 19.9498 71.0779 19.6966V12.0388C61.7087 12.2994 52.7645 15.9979 45.9562 22.4272L51.3794 27.8519M44.4362 23.9442C37.9553 30.7599 34.2378 39.7327 34.0033 49.1262H41.676C41.9297 41.7872 44.8416 34.789 49.8716 29.4296L44.4362 23.9442ZM34.0033 51.1893C34.1042 55.068 34.8058 58.9078 36.0826 62.5728H36.2042C36.9985 62.6346 37.7959 62.5013 38.5267 62.1845C39.2806 61.6019 38.5267 59.5146 39.0495 58.6529C39.6332 57.5728 41.0923 55.0121 41.4814 55.0121C41.8705 55.0121 41.8584 55.2791 42.0529 55.3277C41.8183 53.9593 41.6761 52.5767 41.6274 51.1893H34.0033ZM71.1144 90.3884C61.1585 90.1303 51.6525 86.1952 44.4362 79.3447L38.9887 84.7816C47.6429 93.0809 59.1148 97.8175 71.1144 98.0461V90.3884ZM71.1144 80.5825C64.3624 80.3679 57.877 77.9027 52.6926 73.5801C52.7996 73.7112 52.8969 73.8483 52.9844 73.9927C53.3371 74.5995 54.5774 75.8374 53.787 76.335C52.9966 76.8325 52.0603 76.4685 51.4523 76.4563C50.8443 76.4442 49.8229 77.4393 49.2636 77.5364C48.6508 77.6743 48.0095 77.6061 47.4397 77.3422C47.2216 77.2364 47.014 77.1104 46.8195 76.966L45.9562 77.8277C52.7658 84.2824 61.7267 87.9955 71.1144 88.2524V80.5825ZM71.1144 77.8884C70.0773 78.0241 69.0236 77.954 68.0137 77.682C67.2112 77.1238 66.2506 76.5777 66.1411 76.1408C65.9466 75.3762 64.9252 74.8058 64.9252 74.0898C64.9252 73.3738 66.0317 73.0218 65.7399 72.2209C65.448 71.4199 66.129 70.7646 67.2841 70.2063C63.9652 69.3896 60.8995 67.768 58.359 65.4854L52.8872 70.9709C57.8551 75.598 64.3351 78.2711 71.1266 78.4951L71.1144 77.8884ZM70.7861 67.9005C71.4549 68.3981 72.2453 67.7427 72.7803 67.6456C73.595 67.5121 74.4583 67.2816 75.2122 67.2087C75.9661 67.1359 75.2122 68.2646 75.65 68.3131C76.0877 68.3617 78.5804 68.7743 78.7507 68.2403C78.9209 67.7063 78.9209 67.6092 79.4194 67.5C80.3123 67.4471 81.1777 67.1717 81.9365 66.699C82.2283 66.4806 82.8363 66.4078 83.0065 66.068C83.1768 65.7282 82.8849 64.1869 82.3013 64.4417C82.0216 64.5631 81.669 64.9636 81.0853 65.267C80.5016 65.5704 80.149 65.6675 79.7599 65.1456C79.3708 64.6238 79.9666 64.3083 80.2584 63.9927C80.7084 63.4951 81.1218 62.9976 81.6203 62.9976C81.8149 62.9976 82.8363 62.4879 82.7633 62.0146C82.6904 61.5413 81.4379 62.0146 81.1583 61.8204C80.8786 61.6262 81.1583 61.2015 81.0123 61.1408C80.8664 61.0801 80.4165 61.6748 80.7692 62.0024C80.9394 62.1723 80.4773 62.6578 79.9545 62.318C79.4316 61.9782 79.4438 63.5316 79.4802 63.7743C79.5167 64.017 80.0761 63.9685 79.6991 64.4539C79.3222 64.9393 79.2006 64.5752 78.9209 64.818C78.6412 65.0607 78.5196 65.2185 78.9209 65.6311C79.3222 66.0437 78.7385 66.5898 78.6169 65.9951C78.5318 65.6068 77.7171 65.7282 77.559 65.2791C77.4009 64.8301 76.72 64.8786 75.9175 64.4539C75.2973 64.1384 75.3703 65.0728 76.416 65.3155C77.4617 65.5583 77.2672 65.6189 77.0118 66.1772C76.7565 66.7354 76.8416 65.8252 75.7959 65.5461C75.1149 65.3641 75.0906 65 74.5799 65.0121C74.0692 65.0243 74.2151 65.534 73.6436 65.4005C73.0721 65.267 73.1451 65.8738 72.7438 66.0437C72.3425 66.2136 72.2817 67.1238 71.7954 67.3665C71.0536 67.7306 69.5458 67.4636 69.6188 66.7354C69.6917 66.0073 69.7161 65.4612 70.1416 65.2063C70.5672 64.9515 71.1266 65.6311 71.6373 65.4005C72.148 65.1699 72.0507 64.5874 71.7224 64.1869C71.6251 64.0655 71.2239 63.8714 71.236 63.7379C71.2482 63.6044 72.0142 63.5194 72.452 63.2646C72.8143 62.9175 73.1524 62.5437 73.4612 62.1481C73.6679 61.9782 74.0935 61.9418 74.13 61.784C74.1665 61.6262 73.8382 61.2379 73.8625 60.9951C73.8868 60.7524 73.9841 60.5704 74.1665 60.5825C74.3489 60.5947 74.5799 61.1408 74.4583 61.2621C74.3367 61.3835 74.5556 61.6505 74.8109 61.5534C75.0663 61.4563 76.0269 61.0922 76.2336 61.0316C76.4403 60.9709 76.1363 60.1214 76.2336 59.9757C76.3309 59.8301 76.4525 59.9757 76.5863 59.8908C76.72 59.8058 76.3066 59.6117 76.3674 59.3204C76.4282 59.0291 77.3645 58.8471 77.097 58.6772C76.8294 58.5073 76.489 58.9927 76.2823 59.0898C75.808 59.2961 75.5892 58.7864 75.6013 58.3981C75.6013 58.2039 75.8688 57.5364 75.6013 57.4029C75.3338 57.2694 75.2365 58.0218 75.1879 58.1796C74.9933 58.568 75.0213 59.0316 75.2608 59.3932C75.4432 59.733 75.346 60.9102 74.9933 61.0437C74.6407 61.1772 74.434 60.4369 74.2516 60.1456C74.2338 60.1109 74.2053 60.0827 74.1703 60.0652C74.1353 60.0478 74.0956 60.0419 74.057 60.0485V60.1092L73.9355 60.3034C73.9355 60.3034 73.8503 60.4733 73.7774 60.6796C73.7578 60.7398 73.7228 60.7938 73.6759 60.8364C73.629 60.8789 73.5717 60.9086 73.5099 60.9223C73.1064 60.9708 72.7003 60.9952 72.2939 60.9951H71.8318C71.8829 61.2245 71.9559 61.4478 72.0507 61.6626C72.2696 62.0631 72.6709 62.3908 72.5979 62.6942C72.5249 62.9976 71.2847 63.2524 71.1874 63.034C71.0901 62.8155 71.5035 62.2209 71.467 61.9782C71.467 61.5291 71.1752 61.2621 71.1995 60.9466C69.0644 60.7284 67.0419 59.8838 65.3872 58.5194L59.9519 63.9442C62.696 66.3836 66.1016 67.9586 69.7404 68.4709C70.2633 68.1432 70.4821 67.5728 70.8956 67.8762M77.8995 80.0121C76.4021 80.2901 74.8861 80.4564 73.364 80.5097V88.1796C76.4136 88.0971 79.4438 87.6481 82.3864 86.8447C81.7784 86.3349 81.5109 85.5097 80.7692 85.2549C79.4924 84.818 79.1519 84.0413 79.8329 82.8884C80.2098 82.2816 80.0639 82.0388 79.6262 81.3835C79.2064 80.7593 78.6032 80.2802 77.8995 80.0121ZM73.364 78.3738C74.5871 78.324 75.8057 78.1942 77.0118 77.9854C76.8553 77.8647 76.6715 77.7839 76.4766 77.75C76.2816 77.7162 76.0814 77.7303 75.8932 77.7913C74.6772 78.1311 75.0663 77.1481 73.3275 77.3908V78.3738M73.3275 97.9733C85.3276 97.7472 96.8004 93.0102 105.453 84.7087L100.006 79.2719C97.1808 81.942 93.9868 84.1939 90.5212 85.9587C89.3833 86.7525 88.1597 87.4161 86.8733 87.9369C86.4333 88.1908 85.9442 88.348 85.4384 88.3981C85.2826 88.3969 85.1305 88.3505 85.0007 88.2646C81.2198 89.5192 77.274 90.2103 73.291 90.3155V97.9733M94.6554 29.1869C94.6591 29.2192 94.6591 29.2517 94.6554 29.284C94.6511 29.3045 94.6423 29.3238 94.6297 29.3405C94.6171 29.3573 94.601 29.3711 94.5825 29.3811C95.8517 30.7454 96.9915 32.2242 97.9872 33.7985C98.1088 33.6529 98.206 33.5194 98.3641 33.7015C98.5222 33.8835 98.0844 34.5752 98.887 34.4296C99.3734 34.3325 99.2639 34.9515 98.887 35.2913C99.1423 35.7282 99.3734 36.1893 99.6044 36.6384C99.8841 36.7718 100.103 36.9175 100.139 37.1117C100.327 37.6748 100.473 38.2512 100.577 38.835C100.967 39.8022 101.304 40.7913 101.586 41.7961C101.988 41.4684 102.425 41.6505 102.474 42.2087C102.496 42.7937 102.366 43.375 102.097 43.8956C102.447 45.574 102.654 47.2791 102.717 48.9927H110.402C110.254 44.0343 109.147 39.1512 107.143 34.6117C106.997 34.733 106.791 34.7451 106.535 35.0728C106.28 35.4005 105.514 34.9515 105.174 34.5267C104.529 33.7257 103.009 31.5049 102.328 31.3835C101.647 31.2621 101.331 30.5583 100.735 30.4369C100.139 30.3155 99.3855 29.9757 99.2882 29.3447V29.3325C99.2873 29.0678 99.1824 28.8139 98.9959 28.6256C98.8095 28.4372 98.5564 28.3294 98.2912 28.3252C97.5891 28.232 96.9451 27.8869 96.4794 27.3544L94.6433 29.1869M99.3247 73.8835C99.6009 74.4918 99.6734 75.1726 99.5314 75.8252L99.957 76.2379C106.42 69.4385 110.139 60.497 110.402 51.1286H102.717C102.461 58.4648 99.5544 65.4608 94.5338 70.8252L97.2941 73.5922C97.3185 73.5583 97.339 73.5217 97.3549 73.483C97.5044 72.9757 97.5628 72.4454 97.5251 71.9175C97.5251 71.6262 98.6073 71.699 98.7411 72.1723C98.9198 72.7561 99.135 73.3277 99.3855 73.8835M93.0504 79.1505C92.7221 79.7573 94.011 80.0243 93.7678 80.6068C93.5246 81.1893 92.5518 81.966 92.7099 82.2573C94.7806 80.9469 96.719 79.439 98.4979 77.7549L93.0747 72.3422C92.7014 72.6978 92.2965 73.0376 91.8587 73.3617C91.7614 73.9927 91.8587 74.4782 92.6126 74.7087C93.3665 74.9393 94.8135 75.801 94.5217 76.6141C94.2299 77.4272 93.3908 78.4223 93.0017 79.1505M96.2848 47.7184C96.7104 48.3131 95.2877 48.1432 94.9837 48.932C94.968 48.967 94.9476 48.9997 94.923 49.0291H100.589C100.589 48.216 100.48 47.4151 100.383 46.6019L100.261 46.8447C99.8354 47.7306 99.7625 47.1966 99.799 46.8447C99.8683 46.3459 100.008 45.8604 100.212 45.4005L100.066 44.6238C99.8559 44.8917 99.5794 45.1008 99.2639 45.2306C99.0207 45.3519 98.7775 45.9345 98.6924 46.1651C98.6073 46.3956 97.9507 46.1044 97.4765 46.3471C96.5888 46.7718 95.6647 46.8447 96.3213 47.767M97.3792 36.9296C96.2081 34.7299 94.7572 32.6904 93.0625 30.8617L87.6272 36.2864C88.5467 37.3244 89.3613 38.4504 90.0591 39.6481C90.862 39.7282 91.6028 40.1153 92.1262 40.7282C92.5275 41.2379 93.6705 42.2573 93.5003 42.7184C93.33 43.1796 93.634 43.3495 93.8894 43.5316C94.1447 43.7136 94.5703 43.7985 94.7892 43.5316C95.1905 43.0218 95.2513 42.318 95.7863 41.9053C96.3213 41.4927 97.7683 42.9126 97.7683 43.1917C97.7683 43.4709 97.4157 43.5437 97.3184 44.0413C97.1846 44.733 96.601 45.5461 97.3184 45.7767C98.2912 46.1165 98.4128 45.7767 98.887 45.0364C99.0937 44.7209 99.0572 44.2112 99.2882 43.9078C99.4475 43.7367 99.6372 43.5959 99.8476 43.4951C99.4879 41.9879 98.9997 40.5141 98.3884 39.0898C98.2514 38.9361 98.0748 38.8227 97.8777 38.7621C97.5251 38.6408 97.7197 38.3374 97.2576 38.1917C96.7955 38.0461 96.528 37.8762 96.4794 36.9782C96.4307 36.0801 97.1117 37.2209 97.2698 37.0874C97.4278 36.9539 97.3427 37.0146 97.3792 36.966M88.2108 40.7039C87.6992 39.8484 87.1176 39.0366 86.472 38.2767C86.2473 38.2791 86.0243 38.2379 85.8154 38.1553L84.0279 39.9393C84.3684 40.0364 84.7454 39.9393 85.1709 40.0971C85.5965 40.2549 85.4141 38.7743 86.1437 38.8835C86.8733 38.9927 87.08 39.5024 86.472 39.733C85.864 39.9636 86.5936 40.3034 85.9978 40.5097C85.402 40.716 86.4355 41.1772 86.4234 41.3956C86.4112 41.6141 85.6816 41.7961 86.7882 42.1359C87.8947 42.4757 86.7882 41.2136 86.9584 41.0316C87.1286 40.8495 87.7488 41.3714 87.919 41.1286C88.0892 40.8859 88.0771 40.8859 88.2108 40.7039ZM86.1072 67.3301C85.7181 67.2087 83.5902 66.3956 83.6023 66.6869C83.6145 66.9782 83.2376 66.7718 83.116 66.8932C84.2179 67.5862 85.3973 68.1483 86.6301 68.568C87.3189 68.7636 88.0452 68.7886 88.7459 68.6408C89.4998 68.4952 89.7186 68.835 90.0713 68.8228C90.4239 68.8107 90.9103 68.1189 91.2021 67.7063C91.9803 66.6019 91.8344 66.4927 92.0411 66.2743C92.2478 66.0558 93.0625 67.7549 92.9652 68.8228C92.9652 68.9927 92.9652 69.1505 92.9044 69.3083L92.9896 69.3811C97.6205 64.4173 100.305 57.9551 100.553 51.1772H94.7284C95.0713 51.6614 95.3802 52.1675 95.6525 52.6942C95.9444 53.301 96.1146 54.2597 96.6131 54.3083C97.4157 54.3811 98.2425 55.0485 98.2547 55.6068C98.2547 56.7597 94.7041 57.0388 94.2299 56.8932C93.7556 56.7476 93.5611 56.7476 93.5368 57.3665C93.5124 57.9854 92.2357 58.0825 91.725 58.5073C91.2143 58.932 91.1048 59.8422 90.7279 60.449C90.149 61.132 89.5056 61.7579 88.8067 62.318C87.9433 62.9248 86.3018 62.9612 87.0557 63.3617C87.5907 63.6408 88.7945 63.7379 88.6486 63.4587C88.5027 63.1796 88.7337 63.1068 88.9404 63.3738C89.1471 63.6408 89.67 63.1796 89.6578 62.8155C89.6457 62.4515 89.5727 61.9053 89.8889 61.8932C90.3996 61.8932 90.9468 61.2743 91.2143 61.335C91.4818 61.3956 91.8952 62.0388 91.6034 64.0291C91.3601 65.4594 90.8038 66.8186 89.974 68.0097C89.5727 68.6772 89.1593 68.1675 88.6121 67.8884C87.8168 67.635 87.004 67.4403 86.1802 67.3058M106.888 83.2646C115.208 74.63 119.954 63.1787 120.178 51.2015H112.506C112.247 61.138 108.304 70.6255 101.44 77.8277L106.888 83.2646ZM120.191 49.1262C119.974 37.1272 115.222 25.653 106.888 17.0024L101.197 22.682C102.016 23.9419 102.984 25.099 104.079 26.1286C104.651 26.7112 105.295 27.2694 105.745 27.7791C106.195 28.2888 109.332 32.1238 108.736 32.6335L108.603 32.7549C111.019 37.8469 112.348 43.3848 112.506 49.017H120.178M73.2436 9.8301C79.5649 9.98403 85.7603 11.6266 91.3249 14.6238C91.7894 14.5776 92.2467 14.4757 92.6868 14.3204C93.3799 14.0049 94.7174 14.7209 95.3741 15.0971C96.0307 15.4733 96.4198 15.9466 97.0642 16.3107C98.0078 16.8837 98.7085 17.7816 99.0341 18.835C99.2773 19.9151 99.9582 19.8422 99.6178 20.2791C99.4475 20.4976 99.7029 20.5704 100.031 20.7646L105.369 15.449C96.7176 7.14427 85.2451 2.40298 73.2436 2.17233V9.8301ZM73.2436 19.6359C79.5395 19.8564 85.6113 22.0234 90.6197 25.8374C90.0725 25.1092 89.5253 24.3568 89.2578 24.0898C88.7836 23.5922 87.0326 22.9733 87.2028 22.682C87.373 22.3908 88.9538 23.6529 89.2213 23.4223C89.4888 23.1917 88.4309 21.7233 88.516 21.6748C89.3756 22.2944 90.0894 23.0937 90.6075 24.017C90.875 24.4175 91.6046 24.2233 92.1639 24.6117C92.7233 25 92.6868 25.5097 93.1002 25.8252C93.1732 25.8859 94.0487 26.3956 93.538 26.335C93.3921 26.335 93.1732 26.0073 93.0029 26.165C92.8327 26.3228 93.0637 26.7961 93.3677 27.3786L95.9091 24.8301C95.5443 24.0777 94.8147 23.0947 94.304 22.9733C93.7933 22.8519 93.4528 23.2767 93.0881 23.5801C92.7233 23.8835 92.2855 23.9806 92.2247 23.7743C92.2077 23.4347 92.2077 23.0944 92.2247 22.7549C92.2247 22.4636 91.9572 22.233 91.8843 21.9539C91.7019 21.2864 91.9694 20.5461 91.5559 20.1092C91.1441 19.547 90.782 18.9501 90.4737 18.3252C89.9281 17.6406 89.5493 16.8388 89.3672 15.983C84.3416 13.4591 78.8191 12.0749 73.1949 11.9296L73.2436 19.6359ZM73.2436 29.4539C77.9917 29.6907 82.5115 31.5603 86.0355 34.7451L91.4587 29.3204C86.4857 24.6994 80.0097 22.0236 73.2193 21.784L73.2436 29.4539ZM73.2436 39.2718C73.9744 39.3447 74.6954 39.4915 75.3958 39.7087C75.5782 39.2597 76.0403 39.0413 76.4051 38.7864C76.7699 38.5316 77.1833 38.1432 77.1103 38.9563C77.1079 39.4296 76.8878 39.8774 76.5145 40.1699C77.272 40.4915 77.9907 40.8981 78.6546 41.3835L79.0802 41.7233L79.8219 40.983C79.8146 40.9552 79.8146 40.9259 79.8219 40.8981C79.8219 40.4854 80.4299 39.9879 81.1352 39.6845L83.5671 37.2573H83.3847C83.0685 37.2573 82.6065 37.8883 82.2903 37.7063C81.9742 37.5243 83.3482 36.25 83.9805 36.4927L84.2602 36.6019L84.5642 36.2985C81.4438 33.5146 77.4706 31.8676 73.2922 31.6262L73.2436 39.2718ZM72.3438 41.3714H72.1735C71.2871 41.3714 70.4067 41.5024 69.5592 41.7597C69.4498 41.8811 69.3768 41.9903 69.4376 42.0752C69.6443 42.3786 70.2888 41.7354 70.3739 42.3301C70.459 42.9248 69.6565 42.4515 69.7294 42.767C69.8024 43.0825 70.3253 42.9126 70.3374 43.2646C70.2896 43.6965 70.0813 44.0948 69.7538 44.3811C69.4133 44.5995 67.5772 44.8422 67.3948 45.267C67.2596 45.6426 67.0532 45.9887 66.7868 46.2864C66.4828 46.6141 64.9994 47.5 64.9994 47.7184C64.9994 48.2524 65.7046 47.5728 65.9113 47.3544C66.118 47.1359 66.6531 47.0267 67.1273 46.7597C67.6015 46.4927 68.0271 47.682 67.3218 47.7306C66.8841 47.7306 66.5193 48.9442 65.8384 48.75C65.6681 48.6893 65.1696 48.3859 65.0723 48.75C64.975 49.1141 66.0816 49.1262 66.4464 49.3689C67.3462 49.9636 65.7533 49.9151 65.4979 50.085C65.2426 50.2549 65.3763 50.5825 65.7168 50.449C66.0572 50.3155 66.495 49.9636 66.7139 50.5218C66.9814 51.2864 65.4979 54.0655 65.0115 53.7743C64.7683 53.6044 64.513 53.835 64.2819 53.932C64.5884 54.557 64.9677 55.1444 65.4128 55.6796C65.7168 55.1942 66.191 54.466 66.3977 54.466C66.6044 54.466 66.5801 54.2354 66.6895 54.0413C66.799 53.8471 67.1638 54.0413 67.1881 53.7136C67.2124 53.3859 68.0514 52.9126 68.1487 52.4272C68.1487 52.1723 67.8812 51.9053 68.0149 51.699C68.0563 51.6098 68.1171 51.5308 68.1928 51.4678C68.2685 51.4049 68.3573 51.3595 68.4527 51.335C68.6229 51.2743 69.0242 51.6748 69.1458 51.5049C69.2674 51.335 69.8632 51.5049 70.3617 51.7476C70.5685 51.8811 70.9697 51.7476 71.2129 52.0752C71.4561 52.4029 71.2129 52.6092 71.2129 52.7063C71.2129 52.8034 71.4196 52.7063 71.5169 52.7063C71.6142 52.7063 70.6171 53.5316 70.7387 53.9199C70.8603 54.3083 69.8267 55.9709 69.5227 56.2379C69.2187 56.5049 68.477 56.2379 68.2216 56.2379C67.9663 56.2379 67.8933 56.5534 67.4678 56.4442C67.0917 56.4064 66.7133 56.487 66.3856 56.6748C67.9733 58.0744 70.0187 58.8469 72.137 58.8471C72.6052 58.8435 73.0733 58.8022 73.5354 58.7257C73.7859 58.3653 73.9403 57.9478 73.9853 57.5121C73.9817 57.2439 74.023 56.9782 74.1069 56.7233C74.2285 56.5291 74.9338 55.6553 75.2256 55.6675C75.5174 55.6796 75.639 55.8981 76.0038 55.7888C76.6969 55.5704 77.1346 55.7888 77.1468 56.0558C77.159 56.3228 76.2592 56.3471 76.2956 56.5898C76.3321 56.8325 76.9644 57.0024 77.1833 56.7597C77.324 56.6071 77.4199 56.4189 77.4607 56.2156C77.5014 56.0122 77.4854 55.8016 77.4143 55.6068C77.1347 55.2549 77.1468 55.1092 77.5481 55.2427C77.9493 55.3762 77.7913 54.3568 78.0345 54.0291C78.2777 53.7015 77.4386 53.8714 77.0617 53.932C76.6847 53.9927 76.3929 53.216 76.3929 52.949C76.3929 52.682 77.0738 53.6286 77.4265 53.6529C77.6348 53.6331 77.8313 53.5468 77.9867 53.407C78.1422 53.2671 78.2485 53.081 78.2898 52.8762C78.2898 52.5364 77.5359 52.5 77.4143 52.0874C77.3535 51.8689 78.0345 52.0874 77.9858 51.8689C77.9372 51.6505 78.0588 51.2136 77.621 51.0316C77.1833 50.8495 76.8063 49.4782 76.4051 49.3932C76.0038 49.3083 75.8457 49.7209 75.6633 49.8665C75.4809 50.0121 75.177 49.7573 75.335 49.6117C75.6794 49.345 75.965 49.0103 76.174 48.6286C76.3443 48.0461 77.0982 48.6286 76.9644 47.8519C76.8307 47.0752 76.0768 47.1481 76.4172 46.7233C76.5052 46.6244 76.5583 46.4995 76.5685 46.3676C76.5788 46.2357 76.5456 46.1042 76.474 45.9929C76.4024 45.8816 76.2964 45.7967 76.172 45.7511C76.0476 45.7055 75.9117 45.7017 75.7849 45.7403C75.4566 45.801 75.104 45.2549 75.0675 44.7937C75.0675 44.5388 74.3015 44.5752 74.3379 44.2961C74.3987 43.75 73.5597 43.6893 73.049 43.7257C72.4215 43.5933 71.854 43.2611 71.4318 42.7791C71.3223 42.585 70.6171 42.949 70.8481 42.2087C71.0792 41.4684 71.7844 42.3422 72.0641 42.1238C72.1679 42.0602 72.2433 41.9594 72.275 41.842C72.3066 41.7247 72.2921 41.5997 72.2343 41.4927M71.0184 2.29369C59.0174 2.52685 47.5457 7.26777 38.8927 15.5704L44.3402 21.0073C51.5565 14.1552 61.0615 10.2162 71.0184 9.95146V2.29369ZM37.3727 17.0752C29.1044 25.7283 24.403 37.1707 24.2038 49.1262H31.8766C32.115 39.1662 36.0545 29.6503 42.9297 22.4272L37.47 16.9903" fill="white"/>
</svg>
