<svg width="2147" height="1127" viewBox="0 0 2147 1127" fill="none" xmlns="http://www.w3.org/2000/svg">
<path d="M0 0H2147V1127H0V0Z" fill="#009EDB"/>
<path d="M1372.33 913.298C1373.66 912.525 1375.04 911.837 1376.46 911.235C1377.88 910.633 1377.58 911.235 1377.75 911.923C1359.7 930.139 1337.24 943.402 1312.55 950.434C1295.74 955.076 1278.19 956.331 1260.87 954.131C1234.66 950.631 1209.67 940.902 1188.01 925.763C1174.66 917.167 1161.48 908.055 1148.3 899.115C1141.09 894.374 1133 891.112 1124.52 889.518C1116.03 887.924 1107.31 888.03 1098.86 889.831C1089.3 890.862 1096.54 895.418 1098 896.106C1121.57 907.625 1143.91 921.508 1164.67 937.54C1178.79 947.855 1203.94 971.925 1203.94 971.925L1185.08 988C1185.08 988 1170.7 971.925 1164.49 965.65C1139.41 939.157 1110.35 916.711 1078.36 899.115C1077.17 898.08 1075.64 897.51 1074.06 897.51C1072.47 897.51 1070.95 898.08 1069.75 899.115C1037.78 916.731 1008.72 939.175 983.62 965.65C977.418 971.925 963.035 988 963.035 988L944.172 971.925C944.172 971.925 969.322 947.684 983.447 937.54C1004.2 921.508 1026.54 907.625 1050.11 896.106C1051.58 895.418 1058.73 890.862 1049.34 889.831C1040.88 888.022 1032.14 887.911 1023.64 889.505C1015.14 891.099 1007.04 894.366 999.812 899.115C986.634 907.711 973.456 916.995 960.106 925.763C938.451 940.919 913.458 950.649 887.24 954.131C869.936 956.331 852.374 955.076 835.561 950.434C810.851 943.351 788.372 930.062 770.274 911.837C770.64 911.469 771.133 911.253 771.652 911.235C773.073 911.837 774.452 912.525 775.787 913.298C802.626 926.476 833.193 930.028 862.348 923.356C882.473 918.696 902.047 911.925 920.744 903.155C934.353 897.395 947.789 890.948 961.829 886.392C997.493 874.872 1035.75 874.006 1071.9 883.899H1075.69C1111.84 874.006 1150.1 874.872 1185.77 886.392C1199.81 890.948 1213.24 897.395 1226.85 903.155C1245.55 911.925 1265.12 918.696 1285.25 923.356C1314.4 930.027 1344.98 926.476 1371.81 913.298M1463.11 832.235C1451.5 841.514 1438.23 848.514 1424.01 852.867C1404 858.763 1383.28 861.859 1362.42 862.065C1335.56 862.924 1308.76 865.245 1282.15 869.028C1280.51 869.028 1279.74 868.512 1280.25 867.996C1280.39 867.953 1280.54 867.953 1280.68 867.996C1303.93 858.389 1322.65 840.32 1333.05 817.45C1341.66 801.375 1355.45 769.912 1358.89 764.755V763.465C1357.08 763.981 1330.81 786.417 1318.84 797.421C1304.03 811.175 1290.07 825.874 1275.17 839.628C1255.34 856.613 1231.71 868.584 1206.27 874.529L1205.32 874.959C1205.09 875.314 1204.89 875.688 1204.72 876.077H1205.32C1214.62 878.226 1241.67 884.071 1255.62 887.767C1276.77 893.871 1298.46 897.902 1320.39 899.802C1348.32 902.61 1376.49 897.829 1401.91 885.965C1427.34 874.101 1449.08 855.595 1464.83 832.407C1464.55 832.276 1464.24 832.208 1463.93 832.208C1463.61 832.208 1463.31 832.276 1463.02 832.407M1544.59 707.675C1531.09 723.474 1515.33 737.204 1497.82 748.422C1482.64 758.445 1466.58 767.076 1449.84 774.211C1428.71 782.958 1408.86 794.525 1390.85 808.596L1387.4 811.175C1386.8 811.69 1386.11 811.175 1386.88 810.057C1387.66 808.94 1414.96 781.174 1423.14 722.289C1425.99 701.658 1426.42 679.308 1433.05 659.708C1433.11 659.421 1433.1 659.124 1433.03 658.841C1432.95 658.557 1432.81 658.295 1432.62 658.075C1413.32 682.173 1398.29 709.385 1388.18 738.536C1382.66 754.267 1377.41 770.084 1371.72 785.73C1364.73 807.169 1352.95 826.744 1337.27 842.981L1335.81 844.528C1335.76 844.842 1335.76 845.16 1335.81 845.474L1341.23 844.528C1359.41 840.746 1377.5 836.448 1395.84 833.353C1425.69 828.864 1453.9 816.885 1477.84 798.538C1502.84 780.466 1523.18 756.717 1537.18 729.252C1540.9 722.048 1543.93 714.509 1546.22 706.73C1545.97 706.603 1545.69 706.537 1545.41 706.537C1545.12 706.537 1544.84 706.603 1544.59 706.73M1580.25 566.525C1571.45 591.981 1556.68 614.97 1537.18 633.576C1514.75 655.385 1494.05 678.895 1475.25 703.893C1474.82 704.495 1473.79 703.893 1474.13 703.119C1481.84 677.498 1483.81 650.499 1479.9 624.034C1476.37 601.683 1466.55 577.356 1464.14 550.02C1463.94 549.487 1463.54 549.055 1463.02 548.816C1462.51 548.575 1463.02 549.332 1462.08 551.395C1456.25 569.028 1452.38 587.247 1450.53 605.724C1449.33 627.988 1453.55 656.613 1451.74 679.566C1449.59 706.128 1447.78 732.347 1435.63 756.33V758.565C1445.37 752.29 1473.19 735.957 1491.53 723.664C1514.63 708.88 1534.67 689.793 1550.53 667.445C1570.7 638.811 1581.45 604.622 1581.28 569.619C1581.36 568.446 1581.36 567.268 1581.28 566.095C1581.2 564.917 1579.99 566.696 1579.9 566.868M1520.9 581.998C1520.9 581.998 1520.47 581.998 1520.39 582.514C1520.3 583.029 1519.52 581.998 1519.52 581.826C1520.39 574.347 1520.56 566.808 1520.04 559.304C1518.15 533.515 1502.3 511.508 1488.43 489.674C1478.92 475.467 1470.51 460.551 1463.28 445.059C1462.88 444.681 1462.37 444.44 1461.82 444.371C1461.82 446.778 1461.82 454.429 1462.68 459.415C1467.92 496.953 1477.39 533.778 1490.93 569.189C1499.6 591.257 1502.99 615.041 1500.83 638.647C1500.83 640.71 1500.83 640.968 1501.35 641.57C1509.96 629.363 1526.33 612.257 1536.49 599.964C1546.66 587.671 1602.9 523.543 1575.6 435.689C1574.52 431.946 1573.08 428.318 1571.29 424.858C1569.5 421.394 1570.08 425.975 1570.08 426.233C1570.08 489.416 1539.59 516.494 1527.02 559.733C1524.52 568.33 1522.63 575.637 1520.99 581.998M1520.99 451.506C1520.99 451.506 1517.97 442.91 1515.05 436.119C1513.84 433.024 1512.55 430.188 1511.51 428.124C1501.78 408.783 1489.12 398.811 1472.93 385.573C1460.71 374.559 1449.89 362.087 1440.71 348.437C1440.25 348.248 1439.72 348.248 1439.25 348.437H1438.56C1439.08 351.102 1447.86 378.954 1453.46 391.934C1462.51 410.074 1473.73 427.047 1486.88 442.48L1489.55 446.005C1504.95 467.394 1517.27 490.832 1526.16 515.635C1526.16 516.15 1527.45 516.58 1527.45 516.408C1529.17 509.961 1537.1 484.946 1543.04 468.097C1548.58 451.177 1553.15 433.957 1556.73 416.519C1562.68 374.999 1548.98 321.015 1524.69 291.53C1524.26 291.53 1523.92 292.819 1524 292.991L1525.21 296.859C1525.73 298.664 1526.24 300.47 1526.67 302.361C1531.69 325.124 1532.04 348.66 1527.71 371.561C1524.35 389.708 1522.64 408.122 1522.62 426.577C1522.62 429.672 1524.69 452.366 1524.43 453.311C1524.18 454.257 1523.14 453.311 1523.06 453.311M1448.21 219.149C1455.93 226.429 1462.08 235.204 1466.3 244.938C1473.01 260.583 1474.91 284.223 1479.3 302.017C1481.97 312.934 1483.61 320.585 1487.4 332.878C1487.4 333.995 1486.62 334.425 1486.02 333.393C1473.44 316.201 1457.94 305.799 1435.81 291.873C1423.12 284.281 1412.01 274.33 1403.08 262.56C1401.44 260.325 1399.72 258.176 1398.08 256.027C1398.08 256.027 1396.87 255.425 1396.62 255.597C1396.53 256.512 1396.53 257.433 1396.62 258.348C1400.92 279.344 1410.87 298.777 1425.38 314.568C1437.18 325.743 1450.45 335.714 1463.02 346.116C1479.19 359.879 1493.96 375.197 1507.12 391.848C1520.28 408.499 1508.16 392.45 1508.16 391.848C1508.16 388.582 1507.72 383.252 1507.72 377.234C1507.72 363.48 1508.33 345.17 1508.93 332.534C1508.93 327.462 1509.36 322.304 1509.36 317.232C1509.78 301.898 1506.99 286.645 1501.18 272.446C1491.77 249.251 1474.31 230.211 1452 218.805L1447.69 217.172C1447.58 217.444 1447.52 217.736 1447.52 218.031C1447.52 218.327 1447.58 218.619 1447.69 218.891M1351.57 174.62C1364.69 186.732 1376.27 200.418 1386.02 215.367C1395.03 230.039 1405.92 243.476 1418.41 255.339C1427.02 263.935 1452.34 283.707 1458.72 288.607H1459.23C1457.94 281.386 1446.49 228.433 1413.15 201.87C1394.08 186.845 1371.94 176.165 1348.3 170.58C1348.19 170.825 1348.14 171.088 1348.14 171.354C1348.14 171.619 1348.19 171.882 1348.3 172.127C1349.42 173.159 1350.28 173.761 1351.31 174.792M827.637 901.178C849.596 899.278 871.318 895.248 892.494 889.143C906.361 885.446 933.406 879.601 942.794 877.452H943.311C943.141 877.064 942.939 876.69 942.708 876.334L941.76 875.905C916.318 869.959 892.685 857.988 872.856 841.004C858.041 827.25 844.088 812.55 829.188 798.796C817.302 787.793 790.946 765.356 789.137 764.411C788.982 764.856 788.982 765.341 789.137 765.786C793.013 770.944 806.88 802.406 814.976 818.481C825.38 841.377 844.138 859.453 867.43 869.028C868.033 869.543 867.43 870.317 865.535 870.059H865.104C838.494 866.27 811.696 863.945 784.83 863.096C763.976 862.882 743.251 859.786 723.247 853.898C709.031 849.531 695.765 842.533 684.144 833.267C683.86 833.136 683.552 833.067 683.239 833.067C682.927 833.067 682.618 833.136 682.335 833.267C698.045 856.476 719.765 874.999 745.184 886.867C770.604 898.734 798.771 903.502 826.69 900.662M805.932 845.904L811.272 846.849C811.341 846.538 811.341 846.215 811.272 845.904L809.808 844.356C794.16 828.099 782.384 808.53 775.356 787.105C769.671 771.46 764.417 755.643 758.905 739.911C748.787 710.779 733.788 683.573 714.548 659.45C714.433 659.692 714.373 659.956 714.373 660.224C714.373 660.492 714.433 660.756 714.548 660.998C721.266 680.855 721.61 703.033 724.539 723.664C732.635 782.549 759.852 810.315 760.8 811.432C761.747 812.55 760.8 813.066 760.197 812.55L756.752 809.971C738.76 795.907 718.942 784.34 697.838 775.586C681.1 768.452 665.043 759.82 649.864 749.797C632.335 738.606 616.573 724.873 603.095 709.051C602.825 708.927 602.531 708.863 602.233 708.863C601.936 708.863 601.642 708.927 601.372 709.051C603.698 716.83 606.755 724.369 610.502 731.573C624.44 759.051 644.757 782.807 669.76 800.859C693.73 819.206 721.972 831.184 751.842 835.674C770.102 838.769 788.189 843.153 806.449 846.849M655.721 724.094C674.066 736.387 701.887 752.72 711.619 758.995C721.352 765.27 712.308 757.792 712.05 757.19C711.792 756.588 712.05 757.19 712.05 756.76C699.819 732.777 698.011 706.558 695.857 679.995C694.049 657.043 698.269 628.418 697.063 606.153C695.304 587.664 691.432 569.436 685.522 551.825C685.35 550.919 685.03 550.048 684.574 549.246C684.118 548.447 683.627 550.106 683.455 550.449C681.043 577.786 671.224 602.027 667.607 624.463C663.702 650.929 665.672 677.928 673.377 703.549C673.808 704.667 672.688 704.925 672.344 704.323C653.496 679.342 632.765 655.835 610.33 634.005C590.884 615.352 576.128 592.378 567.264 566.954C558.402 541.535 566.145 566.009 565.886 566.181C565.817 567.354 565.817 568.531 565.886 569.705C565.595 604.833 576.349 639.167 596.635 667.875C612.524 690.203 632.551 709.286 655.634 724.094M645.988 642C645.988 642 646.849 641.14 646.505 639.077C644.392 615.472 647.782 591.699 656.41 569.619C670.056 534.35 679.593 497.632 684.833 460.189C685.393 455.194 685.694 450.174 685.694 445.145C685.145 445.214 684.633 445.454 684.23 445.833C677.029 461.322 668.65 476.237 659.166 490.447C645.299 512.282 629.451 533.945 627.47 560.077C626.953 567.582 627.134 575.121 627.987 582.6C628.848 590.078 627.987 583.459 627.125 583.287C627.022 583.234 626.931 583.162 626.857 583.073C626.783 582.984 626.728 582.882 626.695 582.771C624.972 576.41 623.077 568.76 620.665 560.507C607.918 517.526 577.6 490.19 577.6 427.007C577.6 427.007 576.739 425.631 576.308 425.631C574.603 429.119 573.191 432.742 572.088 436.463C544.784 524.317 600.166 587.328 611.191 600.738C622.216 614.148 637.805 630.137 646.246 642.344M606.626 467.753C612.483 484.946 620.407 509.617 622.13 516.064C622.13 516.064 623.249 516.064 623.422 515.291C632.302 490.471 644.655 467.028 660.113 445.661L662.697 442.136C675.878 426.724 687.102 409.747 696.116 391.59C701.838 377.36 706.812 362.841 711.016 348.093C715.22 333.342 711.016 348.093 710.327 348.093C709.847 347.973 709.344 347.973 708.863 348.093C699.208 361.934 687.866 374.524 675.1 385.573C658.907 398.811 646.332 408.783 636.513 428.124C635.48 430.188 634.274 433.024 632.982 436.033C630.054 442.996 627.125 451.334 627.039 451.506C626.953 451.678 626.006 452.796 625.661 451.506C625.316 450.217 627.297 427.867 627.47 424.772C627.494 406.315 625.792 387.897 622.388 369.756C618.055 346.852 618.436 323.308 623.508 300.556C623.508 298.664 624.455 296.859 624.972 295.054C625.489 293.249 625.661 292.561 626.092 291.186C626.082 290.64 625.867 290.118 625.489 289.724C601.114 319.21 587.419 373.194 593.362 414.714C596.962 432.156 601.563 449.377 607.143 466.292M640.217 331.244C640.82 343.881 641.423 362.191 641.509 375.945V390.559C641.509 393.825 642.456 390.559 642.456 390.559C655.557 373.883 670.302 358.562 686.469 344.826C699.044 334.425 712.308 324.453 724.108 313.278C738.626 297.487 748.57 278.055 752.876 257.058C753.093 256.154 753.237 255.235 753.307 254.308C753.046 254.278 752.782 254.301 752.531 254.375C752.279 254.449 752.045 254.572 751.842 254.737C750.12 256.887 748.483 259.036 746.847 261.271C737.895 273.022 726.788 282.969 714.117 290.584C691.895 304.51 676.392 315.083 663.817 332.104C663.214 333.136 662.094 332.706 662.439 331.588C666.228 319.296 667.865 311.645 670.535 300.728C674.842 282.933 676.823 259.293 683.541 243.648C687.781 233.931 693.931 225.162 701.628 217.859C701.774 217.296 701.774 216.704 701.628 216.14C700.133 216.597 698.666 217.143 697.236 217.773C675.094 229.164 657.748 248.061 648.313 271.07C642.267 285.213 639.33 300.485 639.7 315.857V331.158M688.967 287.575H689.57C695.857 282.675 721.18 262.99 729.879 254.308C742.319 242.399 753.2 228.968 762.264 214.335C772.015 199.383 783.588 185.696 796.716 173.589L799.731 170.924C799.731 170.924 800.162 169.806 799.731 169.376C776.091 174.98 753.959 185.658 734.875 200.667C701.542 226.971 690.087 280.182 688.795 287.403M1064.5 577.098C1067.17 573.144 1060.62 570.737 1058.9 577.528C1057.18 584.319 1061.91 581.052 1064.5 577.098ZM1135.64 412.995C1133.06 411.706 1122.72 424.342 1124.36 426.405C1128.95 422.7 1132.78 418.153 1135.64 412.995ZM1137.88 410.76C1139.43 411.62 1146.49 407.837 1145.03 406.892C1143.56 405.946 1135.64 402.078 1135.47 404.399C1135.47 408.095 1136.33 409.986 1137.88 410.76ZM1263.29 526.638C1266.82 525.864 1266.39 520.191 1263.29 520.362C1260.19 520.534 1256.48 525.176 1257.43 525.262C1259.84 525.262 1261.56 527.068 1263.46 526.638M1217.9 402.422C1215.05 402.422 1214.36 405.516 1217.03 406.892C1219.38 407.364 1221.82 406.995 1223.92 405.86C1225.73 404.657 1227.89 403.195 1227.54 400.358C1227.2 397.522 1223.24 393.739 1225.39 391.762C1227.54 389.785 1229.95 392.966 1232.19 391.762C1234.43 390.559 1234.69 389.183 1234.69 386.862C1234.69 384.541 1233.57 379.469 1229.87 379.469C1226.16 379.469 1222.29 386.862 1222.03 387.292C1221.24 389.309 1221.24 391.55 1222.03 393.567C1223.67 397.436 1223.06 402.164 1217.81 402.164M1279.31 402.593C1279.31 404.313 1284.13 416.176 1284.65 419.786C1285.16 423.396 1286.2 432.68 1288.78 431.735C1291.36 430.789 1290.24 425.116 1289.9 423.139C1288.87 416.27 1287.23 409.513 1284.99 402.937C1283.7 398.897 1278.01 385.745 1276.38 386.261C1274.74 386.776 1279.22 395.802 1279.91 398.811C1280.18 400.26 1280.18 401.746 1279.91 403.195M1247.44 245.282C1250.45 246.485 1250.45 240.811 1245.28 236.685C1240.12 232.559 1233.31 234.536 1235.12 236.685C1238.84 240.064 1242.98 242.952 1247.44 245.282ZM1107.48 205.137C1101.36 201.269 1106.44 195.853 1101.53 192.157C1098.94 191.251 1096.15 191.053 1093.46 191.582C1090.76 192.111 1088.26 193.348 1086.2 195.165C1082.07 200.495 1091.54 198.776 1094.81 200.237C1098.09 201.698 1106.87 208.833 1108.34 207.544C1109.8 206.254 1108.34 205.825 1107.39 205.137M1144.43 186.569C1136.24 182.787 1105.32 182.959 1106.1 191.039C1106.87 199.12 1123.93 191.469 1128.41 191.039C1132.88 190.609 1151.66 190.265 1144.43 186.569ZM1059.41 546.151C1057.86 545.378 1054.42 546.839 1053.99 545.292C1053.56 543.744 1050.97 544.002 1051.58 545.292C1052.18 546.581 1050.8 548.214 1052.18 549.934C1053.27 550.801 1054.62 551.274 1056.01 551.274C1057.41 551.274 1058.76 550.801 1059.85 549.934C1060.34 549.393 1060.61 548.688 1060.61 547.957C1060.61 547.225 1060.34 546.52 1059.85 545.979M1042.62 483.742C1045.2 483.742 1045.12 481.765 1046.58 481.851C1048.05 481.937 1046.58 483.828 1049.42 483.828C1052.27 483.828 1054.68 477.209 1046.41 477.209C1039.69 477.209 1040.64 483.656 1042.62 483.742ZM1053.3 490.533C1048.22 489.244 1049.25 492.167 1046.06 492.511C1040.9 493.026 1045.55 488.642 1042.96 486.579C1041.84 485.719 1038.74 490.19 1038.57 492.94C1038.57 494.316 1038.57 498.872 1040.55 498.958C1042.53 499.044 1054.42 500.419 1058.29 501.365C1062.17 502.31 1058.29 491.737 1053.3 490.533ZM996.195 551.997C997.745 551.997 998.865 546.409 997.917 543.401C996.97 540.392 991.888 542.713 991.458 544.002C991.027 545.292 994.644 551.739 996.195 551.739M921.261 551.223C921.261 548.816 921.261 541.767 919.625 540.392C917.988 539.016 918.161 541.595 916.955 541.423C915.749 541.251 916.093 538.071 914.888 538.071C913.682 538.071 915.318 543.658 916.61 546.667C917.902 549.676 921.003 555.263 921.261 550.965M919.452 533.773C921.03 528.172 921.898 522.396 922.036 516.58C921.606 512.11 919.28 507.984 918.677 507.984C918.074 507.984 918.677 511.079 919.194 515.377C918.779 520.139 917.826 524.84 916.352 529.389C916.352 531.366 918.247 535.922 919.452 533.343M822.986 743.866C789.95 710.906 763.743 671.775 745.861 628.706C727.98 585.637 718.773 539.475 718.768 492.854C718.76 298.183 879.247 138 1074.31 138C1269.34 138 1429.85 298.183 1429.85 492.854C1429.85 687.517 1269.35 847.7 1074.31 847.709C1027.62 847.833 981.366 838.72 938.227 820.896C895.088 803.072 855.925 776.891 822.986 743.866ZM734.435 500.677C736.022 585.516 769.644 666.629 828.576 727.791L867.249 689.279C859.643 681.306 852.51 672.896 845.888 664.092C842.749 662.959 839.938 661.069 837.706 658.591C834.433 654.55 832.71 648.533 831.16 648.533C829.61 648.533 831.16 652.315 827.543 652.831C822.719 653.519 816.001 641.656 813.331 637.358C810.661 633.06 804.718 632.2 802.565 627.472C801.876 626.097 800.153 621.799 798.516 624.377C795.933 628.59 786.803 615.093 784.477 615.781C782.152 616.469 784.477 619.478 782.841 620.681C781.204 621.885 772.677 610.366 769.749 611.655C766.82 612.944 766.476 614.492 766.304 617.844C766.131 621.197 770.524 630.309 768.974 630.997C767.423 631.684 755.796 603.832 758.207 602.629C760.619 601.425 759.327 603.832 760.877 602.629C762.428 601.425 759.758 599.706 759.069 596.697C758.38 593.689 755.537 593.431 755.279 589.906C755.021 586.382 760.016 587.585 760.016 585.866C759.919 584.978 760.032 584.08 760.346 583.244C760.66 582.408 761.167 581.657 761.825 581.052C763.461 579.591 767.337 581.052 768.112 576.152C768.888 571.252 770.955 576.152 771.385 578.989C771.816 581.826 781.204 583.545 781.635 581.052C782.066 578.559 777.931 579.505 777.931 578.129C777.931 575.465 783.013 578.129 786.544 578.129C788.095 578.129 790.851 575.808 794.296 577.614C796.948 579.209 799.865 580.315 802.909 580.88C794.305 554.714 789.575 527.434 788.87 499.903H734.435M1044.07 421.591C1046.66 417.035 1052.69 411.877 1052.69 412.995C1052.69 414.112 1049.07 417.121 1047.09 420.646C1053.38 418.274 1059.95 416.742 1066.64 416.09V361.675C1037.04 363.385 1008.9 375.051 986.798 394.771L1025.3 433.196C1029.72 429.542 1034.55 426.398 1039.68 423.826L1043.82 421.935M1014.96 510.649V506.952C1014.94 506.724 1014.94 506.493 1014.96 506.265C1015.19 505.999 1015.49 505.802 1015.82 505.696C1016.16 505.589 1016.52 505.578 1016.86 505.663C1018.24 505.663 1019.96 506.694 1021.59 506.78C1022.24 506.839 1022.89 506.727 1023.48 506.455C1024.07 506.184 1024.58 505.762 1024.95 505.233C1025.4 504.606 1025.82 503.944 1026.16 503.256C1026.44 502.69 1026.61 502.078 1026.68 501.451C1026.73 501.224 1026.73 500.989 1026.68 500.763C1026.68 500.161 1025.56 499.989 1024.01 500.763H1023.06C1022.43 500.849 1021.79 500.849 1021.16 500.763H1020.3C1019.88 500.704 1019.46 500.559 1019.09 500.338C1018.72 500.116 1018.4 499.822 1018.15 499.474C1017.94 499.179 1017.77 498.862 1017.63 498.528C1017.48 498.13 1017.28 497.754 1017.03 497.41C1016 496.108 1014.67 495.076 1013.15 494.402C1012.38 493.973 1011.65 493.454 1011 492.854C1010.57 492.58 1010.19 492.231 1009.88 491.823L1009.11 490.963L1008.59 490.447H1005.32C1004.3 490.288 1003.26 490.377 1002.28 490.706C1001.31 491.036 1000.43 491.596 999.718 492.339L998.77 493.284L997.909 494.402C997.555 494.846 997.265 495.338 997.048 495.863C996.358 497.041 995.781 498.279 995.325 499.56C990.932 511.079 985.764 507.554 986.712 511.68C986.712 512.196 988.004 512.54 989.813 512.626H1002.56L1003.68 512.196L1005.49 511.508C1006.01 511.293 1006.56 511.149 1007.12 511.079C1008.2 510.796 1009.33 510.842 1010.37 511.21C1011.42 511.578 1012.33 512.251 1012.98 513.142C1013.77 514.491 1014.3 515.978 1014.53 517.526V516.236C1014.58 515.98 1014.58 515.719 1014.53 515.463V514.603M911.175 604.52C913.587 609.592 917.721 613.804 917.807 619.821C917.894 620.879 917.894 621.945 917.807 623.002C920.564 626.441 923.492 629.879 926.42 633.146L965.007 594.634C946.469 574.179 934.107 548.907 929.349 521.738C928.828 521.912 928.263 521.905 927.747 521.717C927.231 521.53 926.794 521.174 926.507 520.706C925.731 519.417 926.507 518.041 928.574 516.666C927.971 512.54 927.626 508.07 927.368 504.201H901.529C901.529 508.328 903.424 514.173 900.754 516.236C898.083 518.299 895.413 516.236 893.346 516.236C888.437 516.924 887.317 522.855 888.609 526.896C889.815 529.285 890.349 531.959 890.159 534.632C890.159 537.297 888.265 539.446 892.657 541.767C897.05 544.088 903.079 551.997 902.562 553.458C902.045 554.92 897.911 551.739 897.653 555.005C897.394 558.272 903.51 554.49 903.165 561.281C903.01 565.037 903.656 568.794 905.06 572.284C907.988 577.072 909.677 582.505 909.969 588.101C909.074 593.507 909.487 599.048 911.175 604.262M877.24 539.102C882.752 541.08 893.26 536.609 885.853 528.013C882.752 524.403 888.006 514.087 888.781 512.11C889.557 510.133 894.38 507.21 895.844 503.514H873.019C873.433 515.342 874.897 527.111 877.412 538.673M881.719 677.073C877.671 674.494 873.881 672.86 871.555 674.236H871.038C873.106 676.557 875.173 678.878 877.326 681.113L881.719 676.815M939.598 436.979C945.92 422.644 954.497 409.41 965.007 397.78L926.937 357.033C894.154 392.198 875.165 437.975 873.45 485.977H900.323C904.888 478.757 903.337 473.255 904.888 468.785C906.481 464.822 908.505 461.048 910.917 457.524C912.898 454.343 915.137 450.733 919.53 450.733C928.143 450.733 930.555 446.091 936.067 443.512C941.579 440.933 951.484 439.472 950.365 436.549C949.245 433.626 929.866 442.308 929.435 440.761C929.004 439.214 935.636 438.44 938.565 435.775C939.091 435.334 939.67 434.959 940.287 434.658M976.462 406.204C969.562 413.831 963.605 422.259 958.719 431.305L960.356 430.531C963.252 429.024 966.424 428.118 969.68 427.867C972.937 427.616 976.211 428.025 979.305 429.07C984.156 431.778 988.716 434.975 992.913 438.612C994.119 439.472 994.636 437.752 1000.23 436.979C1002.65 436.979 1003.16 438.956 1006.52 439.386C1007.67 439.506 1008.82 439.506 1009.97 439.386L976.462 405.946M929.09 474.716C926.547 473.496 923.805 472.739 920.994 472.481C918.891 472.226 916.758 472.566 914.839 473.463C912.92 474.36 911.292 475.777 910.142 477.553C908.589 479.942 908.033 482.841 908.591 485.634H928.057C928.057 481.937 928.574 478.327 929.09 474.716ZM945.455 518.299C950.036 541.411 960.744 562.874 976.462 580.45L1014.96 542.025C1011.7 538.217 1008.81 534.1 1006.35 529.732C1005.78 530.357 1005.29 531.05 1004.89 531.796C1004.11 533.515 1004.89 539.274 1002.73 541.681C1000.58 544.088 991.449 534.718 988.779 533.859C988.192 533.706 987.578 533.688 986.983 533.808C986.388 533.928 985.829 534.181 985.347 534.549C984.865 534.917 984.474 535.39 984.203 535.932C983.932 536.474 983.789 537.07 983.783 537.675V537.727C984.214 540.736 983.783 541.853 982.319 542.111C980.855 542.369 974.654 537.985 977.496 536.867C980.338 535.75 976.635 532.741 975.17 531.624C973.706 530.506 968.797 531.624 966.988 528.959C965.198 526.709 962.853 524.961 960.184 523.887C959.408 523.887 955.619 522.082 953.121 523.371C950.623 524.661 949.073 522.34 947.609 520.878L945.111 518.299M976.032 384.541C1001.02 362.027 1033.02 348.791 1066.64 347.062V292.733C1018.54 294.43 972.671 313.384 937.445 346.116L975.859 384.541M926.679 335.457C964.715 299.897 1014.38 279.311 1066.47 277.518V223.275C1000.1 225.12 936.749 251.319 888.523 296.859L926.937 335.285M877.757 307.605C831.85 355.883 805.518 419.44 803.857 485.977H858.205C860.002 433.993 880.628 384.422 916.257 346.46L877.757 307.605ZM803.857 500.591C804.571 528.065 809.541 555.263 818.585 581.224H819.446C825.073 581.662 830.721 580.717 835.897 578.473C841.237 574.347 835.897 559.562 839.601 553.458C843.735 545.807 854.071 527.669 856.827 527.669C859.583 527.669 859.497 529.561 860.875 529.904C859.213 520.212 858.206 510.419 857.86 500.591H803.857ZM1066.73 778.251C996.206 776.423 928.872 748.549 877.757 700.025L839.17 738.536C900.471 797.323 981.73 830.874 1066.73 832.493V778.251ZM1066.73 708.793C1018.9 707.273 972.962 689.811 936.239 659.192C936.997 660.121 937.686 661.092 938.306 662.115C940.804 666.413 949.59 675.181 943.991 678.706C938.393 682.23 931.761 679.652 927.454 679.566C923.147 679.48 915.912 686.529 911.95 687.216C907.61 688.193 903.067 687.71 899.031 685.841C897.487 685.091 896.016 684.199 894.638 683.176L888.523 689.279C936.758 735 1000.23 761.301 1066.73 763.121V708.793ZM1066.73 689.709C1059.38 690.671 1051.92 690.174 1044.76 688.248C1039.08 684.294 1032.27 680.425 1031.5 677.331C1030.12 671.915 1022.89 667.875 1022.89 662.803C1022.89 657.731 1030.72 655.238 1028.66 649.565C1026.59 643.891 1031.41 639.249 1039.6 635.295C1016.09 629.51 994.372 618.024 976.376 601.855L937.617 640.71C972.807 673.486 1018.71 692.421 1066.81 694.007L1066.73 689.709ZM1064.4 618.962C1069.14 622.486 1074.74 617.844 1078.53 617.157C1084.3 616.211 1090.41 614.578 1095.75 614.062C1101.09 613.546 1095.75 621.541 1098.85 621.885C1101.95 622.228 1119.61 625.151 1120.82 621.369C1122.02 617.586 1122.02 616.899 1125.55 616.125C1131.88 615.75 1138.01 613.8 1143.38 610.451C1145.45 608.904 1149.76 608.388 1150.96 605.981C1152.17 603.574 1150.1 592.657 1145.97 594.462C1143.99 595.322 1141.49 598.159 1137.35 600.308C1133.22 602.457 1130.72 603.145 1127.97 599.448C1125.21 595.752 1129.43 593.517 1131.5 591.282C1134.68 587.757 1137.61 584.233 1141.14 584.233C1142.52 584.233 1149.76 580.622 1149.24 577.27C1148.72 573.917 1139.85 577.27 1137.87 575.894C1135.89 574.519 1137.87 571.51 1136.84 571.081C1135.8 570.651 1132.62 574.863 1135.11 577.184C1136.32 578.387 1133.05 581.826 1129.34 579.419C1125.64 577.012 1125.73 588.015 1125.98 589.734C1126.24 591.454 1130.21 591.11 1127.54 594.548C1124.87 597.987 1124 595.408 1122.02 597.127C1120.04 598.847 1119.18 599.964 1122.02 602.887C1124.87 605.81 1120.73 609.678 1119.87 605.466C1119.27 602.715 1113.5 603.574 1112.38 600.394C1111.26 597.213 1106.43 597.557 1100.75 594.548C1096.36 592.313 1096.87 598.932 1104.28 600.652C1111.69 602.371 1110.31 602.801 1108.5 606.755C1106.69 610.709 1107.29 604.262 1099.89 602.285C1095.06 600.996 1094.89 598.417 1091.27 598.503C1087.66 598.589 1088.69 602.199 1084.64 601.253C1080.59 600.308 1081.11 604.606 1078.27 605.81C1075.43 607.013 1075 613.46 1071.55 615.179C1066.3 617.758 1055.62 615.867 1056.13 610.709C1056.65 605.552 1056.82 601.683 1059.84 599.878C1062.85 598.073 1066.81 602.887 1070.43 601.253C1074.05 599.62 1073.36 595.494 1071.03 592.657C1070.34 591.798 1067.5 590.422 1067.59 589.477C1067.67 588.531 1073.1 587.929 1076.2 586.124C1078.77 583.665 1081.16 581.018 1083.35 578.215C1084.81 577.012 1087.83 576.754 1088.09 575.637C1088.35 574.519 1086.02 571.768 1086.19 570.049C1086.36 568.33 1087.05 567.04 1088.35 567.126C1089.64 567.212 1091.27 571.081 1090.41 571.94C1089.55 572.8 1091.1 574.691 1092.91 574.003C1094.72 573.316 1101.52 570.737 1102.99 570.307C1104.45 569.877 1102.3 563.86 1102.99 562.828C1103.68 561.797 1104.54 562.828 1105.49 562.226C1106.43 561.625 1103.5 560.249 1103.94 558.186C1104.37 556.123 1111 554.834 1109.1 553.63C1107.21 552.427 1104.8 555.865 1103.33 556.553C1099.97 558.014 1098.42 554.404 1098.51 551.653C1098.51 550.278 1100.4 545.55 1098.51 544.604C1096.61 543.658 1095.93 548.988 1095.58 550.106C1094.2 552.856 1094.4 556.14 1096.1 558.702C1097.39 561.109 1096.7 569.447 1094.2 570.393C1091.71 571.338 1090.24 566.095 1088.95 564.032C1088.82 563.785 1088.62 563.586 1088.37 563.462C1088.12 563.338 1087.84 563.297 1087.57 563.344V563.774L1086.71 565.149C1086.71 565.149 1086.11 566.353 1085.59 567.814C1085.45 568.24 1085.2 568.623 1084.87 568.924C1084.54 569.226 1084.13 569.436 1083.69 569.533C1080.84 569.877 1077.96 570.049 1075.08 570.049H1071.81C1072.17 571.674 1072.69 573.255 1073.36 574.777C1074.91 577.614 1077.75 579.935 1077.24 582.084C1076.72 584.233 1067.93 586.038 1067.24 584.491C1066.55 582.943 1069.48 578.731 1069.22 577.012C1069.22 573.831 1067.16 571.94 1067.33 569.705C1052.21 568.159 1037.88 562.177 1026.16 552.513L987.659 590.938C1007.1 608.217 1031.22 619.373 1056.99 623.002C1060.7 620.681 1062.25 616.641 1065.18 618.79M1114.79 704.753C1104.18 706.721 1093.44 707.899 1082.66 708.277V762.606C1104.26 762.021 1125.73 758.84 1146.57 753.15C1142.26 749.539 1140.37 743.694 1135.11 741.889C1126.07 738.794 1123.66 733.292 1128.48 725.126C1131.15 720.828 1130.12 719.108 1127.02 714.466C1124.05 710.045 1119.77 706.652 1114.79 704.753ZM1082.66 693.148C1091.33 692.795 1099.96 691.876 1108.5 690.397C1107.39 689.541 1106.09 688.969 1104.71 688.729C1103.33 688.49 1101.91 688.59 1100.58 689.021C1091.96 691.428 1094.72 684.465 1082.4 686.185V693.148M1082.4 831.978C1167.4 830.376 1248.67 796.822 1309.96 738.02L1271.37 699.509C1251.36 718.423 1228.74 734.374 1204.19 746.874C1196.13 752.497 1187.46 757.197 1178.35 760.886C1175.24 762.685 1171.77 763.798 1168.19 764.153C1167.09 764.145 1166.01 763.816 1165.09 763.207C1138.31 772.095 1110.36 776.99 1082.14 777.735V831.978M1233.48 344.74C1233.5 344.969 1233.5 345.2 1233.48 345.428C1233.45 345.573 1233.38 345.71 1233.29 345.829C1233.2 345.948 1233.09 346.046 1232.96 346.116C1241.95 355.78 1250.02 366.255 1257.08 377.406C1257.94 376.375 1258.63 375.429 1259.75 376.719C1260.87 378.008 1257.76 382.908 1263.45 381.876C1266.89 381.189 1266.12 385.573 1263.45 387.98C1265.26 391.074 1266.89 394.341 1268.53 397.522C1270.51 398.467 1272.06 399.499 1272.32 400.874C1273.65 404.863 1274.68 408.946 1275.42 413.081C1278.19 419.932 1280.57 426.938 1282.57 434.056C1285.41 431.735 1288.51 433.024 1288.86 436.979C1289.01 441.122 1288.09 445.24 1286.19 448.927C1288.67 460.816 1290.13 472.894 1290.58 485.032H1345.02C1343.96 449.91 1336.13 415.321 1321.93 383.166C1320.9 384.026 1319.43 384.111 1317.63 386.432C1315.82 388.753 1310.39 385.573 1307.98 382.564C1303.41 376.891 1292.65 361.159 1287.82 360.3C1283 359.44 1280.76 354.454 1276.54 353.595C1272.32 352.735 1266.98 350.328 1266.29 345.858V345.772C1266.29 343.897 1265.54 342.099 1264.22 340.764C1262.9 339.43 1261.11 338.666 1259.23 338.637C1254.26 337.976 1249.69 335.532 1246.4 331.76L1233.39 344.74M1266.55 661.341C1268.51 665.65 1269.02 670.473 1268.01 675.096L1271.03 678.018C1316.81 629.856 1343.15 566.52 1345.02 500.161H1290.58C1288.77 552.126 1268.18 601.681 1232.61 639.679L1252.17 659.278C1252.34 659.038 1252.48 658.778 1252.6 658.505C1253.66 654.911 1254.07 651.155 1253.8 647.415C1253.8 645.352 1261.47 645.868 1262.42 649.221C1263.68 653.356 1265.21 657.404 1266.98 661.341M1222.11 698.649C1219.78 702.947 1228.91 704.839 1227.19 708.965C1225.47 713.091 1218.58 718.593 1219.7 720.656C1234.36 711.374 1248.09 700.693 1260.69 688.764L1222.28 650.424C1219.63 652.943 1216.77 655.35 1213.67 657.645C1212.98 662.115 1213.67 665.554 1219.01 667.187C1224.35 668.82 1234.6 674.924 1232.53 680.683C1230.46 686.443 1224.52 693.492 1221.76 698.649M1245.02 476.006C1248.03 480.218 1237.95 479.014 1235.8 484.602C1235.69 484.85 1235.55 485.081 1235.37 485.29H1275.51C1275.51 479.53 1274.73 473.857 1274.04 468.097L1273.18 469.816C1270.17 476.092 1269.65 472.309 1269.91 469.816C1270.4 466.283 1271.39 462.845 1272.84 459.587L1271.8 454.085C1270.31 455.983 1268.35 457.464 1266.12 458.383C1264.4 459.243 1262.67 463.369 1262.07 465.002C1261.47 466.636 1256.82 464.573 1253.46 466.292C1247.17 469.301 1240.62 469.816 1245.28 476.35M1252.77 399.585C1244.47 384.004 1234.2 369.557 1222.19 356.603L1183.69 395.029C1190.21 402.381 1195.98 410.357 1200.92 418.84C1206.61 419.408 1211.85 422.15 1215.56 426.491C1218.4 430.102 1226.5 437.322 1225.29 440.589C1224.09 443.856 1226.24 445.059 1228.05 446.349C1229.86 447.638 1232.87 448.24 1234.42 446.349C1237.27 442.738 1237.7 437.752 1241.49 434.829C1245.28 431.907 1255.53 441.964 1255.53 443.942C1255.53 445.919 1253.03 446.434 1252.34 449.959C1251.39 454.859 1247.26 460.618 1252.34 462.252C1259.23 464.659 1260.09 462.252 1263.45 457.008C1264.91 454.773 1264.66 451.162 1266.29 449.013C1267.42 447.801 1268.76 446.804 1270.25 446.091C1267.71 435.414 1264.25 424.975 1259.92 414.886C1258.95 413.797 1257.7 412.994 1256.3 412.565C1253.8 411.706 1255.18 409.556 1251.91 408.525C1248.63 407.493 1246.74 406.29 1246.4 399.929C1246.05 393.567 1250.87 401.648 1251.99 400.702C1253.11 399.757 1252.51 400.187 1252.77 399.843M1187.83 426.319C1184.2 420.26 1180.08 414.509 1175.51 409.127C1173.92 409.144 1172.34 408.852 1170.86 408.267L1158.2 420.904C1160.61 421.591 1163.28 420.904 1166.29 422.021C1169.31 423.139 1168.02 412.651 1173.18 413.425C1178.35 414.198 1179.82 417.809 1175.51 419.442C1171.2 421.075 1176.37 423.482 1172.15 424.944C1167.93 426.405 1175.25 429.672 1175.17 431.219C1175.08 432.766 1169.91 434.056 1177.75 436.463C1185.59 438.87 1177.75 429.93 1178.96 428.64C1180.16 427.351 1184.55 431.047 1185.76 429.328C1186.97 427.609 1186.88 427.609 1187.83 426.319ZM1172.93 614.922C1170.17 614.062 1155.1 608.302 1155.18 610.366C1155.27 612.429 1152.6 610.967 1151.74 611.827C1159.54 616.736 1167.9 620.717 1176.63 623.69C1181.51 625.076 1186.65 625.253 1191.62 624.206C1196.96 623.174 1198.51 625.581 1201 625.495C1203.5 625.409 1206.95 620.509 1209.01 617.586C1214.53 609.764 1213.49 608.99 1214.96 607.443C1216.42 605.895 1222.19 617.93 1221.5 625.495C1221.5 626.698 1221.5 627.816 1221.07 628.934L1221.68 629.449C1254.48 594.289 1273.5 548.515 1275.25 500.505H1233.99C1236.42 503.935 1238.61 507.52 1240.54 511.25C1242.61 515.549 1243.81 522.34 1247.34 522.683C1253.03 523.199 1258.88 527.927 1258.97 531.882C1258.97 540.048 1233.82 542.025 1230.46 540.994C1227.1 539.962 1225.72 539.962 1225.55 544.346C1225.38 548.73 1216.34 549.418 1212.72 552.427C1209.1 555.435 1208.33 561.883 1205.66 566.181C1201.56 571.019 1197 575.452 1192.05 579.419C1185.93 583.717 1174.3 583.975 1179.64 586.812C1183.43 588.789 1191.96 589.477 1190.93 587.499C1189.89 585.522 1191.53 585.007 1192.99 586.898C1194.46 588.789 1198.16 585.522 1198.08 582.943C1197.99 580.365 1197.47 576.496 1199.71 576.41C1203.33 576.41 1207.21 572.026 1209.1 572.456C1211 572.886 1213.92 577.442 1211.86 591.54C1210.13 601.671 1206.19 611.298 1200.32 619.735C1197.47 624.463 1194.55 620.853 1190.67 618.876C1185.04 617.082 1179.28 615.702 1173.44 614.75M1320.12 727.791C1379.06 666.629 1412.68 585.516 1414.26 500.677H1359.92C1358.08 571.061 1330.16 638.264 1281.54 689.279L1320.12 727.791ZM1414.35 485.977C1412.82 400.984 1379.16 319.709 1320.12 258.434L1279.81 298.664C1285.62 307.588 1292.47 315.785 1300.23 323.078C1304.28 327.204 1308.84 331.158 1312.03 334.769C1315.21 338.379 1337.44 365.543 1333.22 369.154L1332.27 370.014C1349.39 406.082 1358.8 445.309 1359.92 485.204H1414.26M1081.81 207.63C1126.58 208.72 1170.47 220.355 1209.88 241.585C1213.18 241.258 1216.41 240.537 1219.53 239.436C1224.44 237.201 1233.92 242.273 1238.57 244.938C1243.22 247.603 1245.97 250.955 1250.54 253.534C1257.22 257.593 1262.19 263.953 1264.49 271.414C1266.21 279.065 1271.04 278.549 1268.63 281.644C1267.42 283.191 1269.23 283.707 1271.55 285.082L1309.37 247.431C1248.08 188.605 1166.82 155.021 1081.81 153.387V207.63ZM1081.81 277.088C1126.4 278.649 1169.41 293.999 1204.89 321.015C1201.01 315.857 1197.14 310.527 1195.24 308.636C1191.88 305.112 1179.48 300.728 1180.69 298.664C1181.89 296.601 1193.09 305.541 1194.98 303.908C1196.88 302.275 1189.39 291.873 1189.99 291.53C1196.08 295.918 1201.13 301.58 1204.8 308.12C1206.7 310.957 1211.87 309.582 1215.83 312.333C1219.79 315.083 1219.53 318.694 1222.46 320.929C1222.98 321.359 1229.18 324.969 1225.56 324.539C1224.53 324.539 1222.98 322.218 1221.77 323.336C1220.57 324.453 1222.2 327.806 1224.35 331.932L1242.36 313.88C1239.77 308.55 1234.6 301.587 1230.99 300.728C1227.37 299.868 1224.96 302.877 1222.37 305.026C1219.79 307.175 1216.69 307.862 1216.26 306.401C1216.14 303.996 1216.14 301.586 1216.26 299.18C1216.26 297.117 1214.36 295.484 1213.85 293.507C1212.55 288.779 1214.45 283.535 1211.52 280.44C1208.6 276.458 1206.04 272.23 1203.86 267.804C1199.99 262.954 1197.31 257.275 1196.02 251.213C1160.42 233.335 1121.3 223.531 1081.46 222.501L1081.81 277.088ZM1081.81 346.632C1115.44 348.309 1147.46 361.552 1172.42 384.111L1210.83 345.686C1175.61 312.954 1129.74 294.001 1081.64 292.303L1081.81 346.632ZM1081.81 416.176C1086.99 416.691 1092.09 417.732 1097.05 419.27C1098.35 416.09 1101.62 414.542 1104.2 412.737C1106.79 410.932 1109.71 408.181 1109.2 413.941C1109.18 417.293 1107.62 420.465 1104.98 422.537C1110.34 424.815 1115.43 427.695 1120.14 431.133L1123.15 433.54L1128.41 428.296C1128.35 428.099 1128.35 427.892 1128.41 427.695C1128.41 424.772 1132.71 421.247 1137.71 419.098L1154.93 401.906H1153.64C1151.4 401.906 1148.13 406.376 1145.89 405.086C1143.65 403.797 1153.38 394.771 1157.86 396.49L1159.84 397.264L1162 395.115C1139.89 375.395 1111.75 363.729 1082.15 362.019L1081.81 416.176ZM1075.43 431.047H1074.23C1067.95 431.047 1061.71 431.976 1055.71 433.798C1054.94 434.658 1054.42 435.431 1054.85 436.033C1056.31 438.182 1060.88 433.626 1061.48 437.838C1062.08 442.05 1056.4 438.698 1056.92 440.933C1057.43 443.168 1061.14 441.964 1061.22 444.457C1060.88 447.517 1059.41 450.338 1057.09 452.366C1054.68 453.913 1041.67 455.633 1040.38 458.641C1039.42 461.302 1037.96 463.754 1036.07 465.862C1033.92 468.183 1023.41 474.458 1023.41 476.006C1023.41 479.788 1028.41 474.974 1029.87 473.427C1031.34 471.879 1035.13 471.106 1038.48 469.215C1041.84 467.323 1044.86 475.748 1039.86 476.092C1036.76 476.092 1034.18 484.688 1029.36 483.312C1028.15 482.883 1024.62 480.734 1023.93 483.312C1023.24 485.891 1031.08 485.977 1033.66 487.697C1040.04 491.909 1028.75 491.565 1026.94 492.768C1025.13 493.972 1026.08 496.293 1028.49 495.347C1030.91 494.402 1034.01 491.909 1035.56 495.863C1037.45 501.279 1026.94 520.964 1023.5 518.901C1021.78 517.698 1019.97 519.331 1018.33 520.019C1020.5 524.446 1023.19 528.606 1026.34 532.397C1028.49 528.959 1031.85 523.801 1033.32 523.801C1034.78 523.801 1034.61 522.168 1035.38 520.792C1036.16 519.417 1038.74 520.792 1038.92 518.471C1039.09 516.15 1045.03 512.798 1045.72 509.359C1045.72 507.554 1043.83 505.663 1044.77 504.201C1045.07 503.569 1045.5 503.01 1046.03 502.564C1046.57 502.118 1047.2 501.796 1047.87 501.623C1049.08 501.193 1051.92 504.03 1052.78 502.826C1053.64 501.623 1057.86 502.826 1061.4 504.545C1062.86 505.491 1065.7 504.545 1067.42 506.866C1069.15 509.187 1067.42 510.649 1067.42 511.336C1067.42 512.024 1068.89 511.336 1069.58 511.336C1070.27 511.336 1063.2 517.182 1064.07 519.933C1064.93 522.683 1057.61 534.46 1055.45 536.352C1053.3 538.243 1048.05 536.352 1046.24 536.352C1044.43 536.352 1043.91 538.587 1040.9 537.813C1038.23 537.545 1035.55 538.116 1033.23 539.446C1044.48 549.36 1058.97 554.832 1073.97 554.834C1077.29 554.808 1080.6 554.516 1083.88 553.974C1085.65 551.421 1086.74 548.464 1087.06 545.378C1087.04 543.478 1087.33 541.595 1087.92 539.79C1088.79 538.415 1093.78 532.225 1095.85 532.311C1097.92 532.397 1098.78 533.945 1101.36 533.171C1106.27 531.624 1109.37 533.171 1109.46 535.062C1109.54 536.953 1103.17 537.125 1103.43 538.844C1103.69 540.564 1108.16 541.767 1109.71 540.048C1110.71 538.967 1111.39 537.634 1111.68 536.194C1111.97 534.753 1111.85 533.262 1111.35 531.882C1109.37 529.389 1109.46 528.357 1112.3 529.303C1115.14 530.248 1114.02 523.027 1115.74 520.706C1117.47 518.385 1111.52 519.589 1108.85 520.019C1106.18 520.448 1104.12 514.947 1104.12 513.056C1104.12 511.164 1108.94 517.87 1111.44 518.042C1112.91 517.901 1114.3 517.29 1115.41 516.299C1116.51 515.309 1117.26 513.99 1117.55 512.54C1117.55 510.133 1112.21 509.875 1111.35 506.952C1110.92 505.405 1115.74 506.952 1115.4 505.405C1115.06 503.858 1115.92 500.763 1112.82 499.474C1109.71 498.184 1107.04 488.47 1104.2 487.869C1101.36 487.267 1100.24 490.19 1098.95 491.221C1097.66 492.253 1095.5 490.447 1096.62 489.416C1099.06 487.527 1101.09 485.157 1102.57 482.453C1103.77 478.327 1109.11 482.453 1108.16 476.951C1107.22 471.45 1101.88 471.965 1104.29 468.957C1104.91 468.256 1105.29 467.371 1105.36 466.437C1105.43 465.503 1105.2 464.571 1104.69 463.783C1104.18 462.994 1103.43 462.393 1102.55 462.07C1101.67 461.747 1100.71 461.72 1099.81 461.994C1097.48 462.424 1094.99 458.555 1094.73 455.289C1094.73 453.483 1089.3 453.741 1089.56 451.764C1089.99 447.896 1084.05 447.466 1080.43 447.724C1075.99 446.786 1071.97 444.433 1068.98 441.019C1068.2 439.643 1063.2 442.222 1064.84 436.979C1066.48 431.735 1071.47 437.924 1073.45 436.377C1074.19 435.926 1074.72 435.212 1074.95 434.381C1075.17 433.55 1075.07 432.665 1074.66 431.907M1066.05 154.247C981.04 155.898 899.782 189.48 838.49 248.29L877.076 286.802C928.192 238.266 995.519 210.365 1066.05 208.489V154.247ZM827.723 258.95C769.157 320.242 735.855 401.293 734.444 485.977H788.792C790.481 415.428 818.386 348.023 867.085 296.859L828.412 258.348" fill="white"/>
</svg>
