<svg width="11" height="14" viewBox="0 0 11 14" fill="none" xmlns="http://www.w3.org/2000/svg">
<path d="M0.785714 12.4444C0.785714 13.3 1.49286 14 2.35714 14H8.64286C9.50714 14 10.2143 13.3 10.2143 12.4444V4.66667C10.2143 3.81111 9.50714 3.11111 8.64286 3.11111H2.35714C1.49286 3.11111 0.785714 3.81111 0.785714 4.66667V12.4444ZM10.2143 0.777778H8.25L7.69214 0.225556C7.55071 0.0855555 7.34643 0 7.14214 0H3.85786C3.65357 0 3.44929 0.0855555 3.30786 0.225556L2.75 0.777778H0.785714C0.353571 0.777778 0 1.12778 0 1.55556C0 1.98333 0.353571 2.33333 0.785714 2.33333H10.2143C10.6464 2.33333 11 1.98333 11 1.55556C11 1.12778 10.6464 0.777778 10.2143 0.777778Z" fill="white"/>
</svg>