<svg width="144" height="31" viewBox="0 0 144 31" fill="none" xmlns="http://www.w3.org/2000/svg">
<path d="M31 30.2062H42.4433V26.37H35.6613V23.8578H41.5577V20.0907H35.6613V17.7196H42.1872V13.9299H31V30.2062Z" fill="white"/>
<path d="M51.2307 30.555C54.9357 30.555 57.6392 28.4153 58.222 25.0448H53.9808C53.538 26.1599 52.5351 26.8585 51.2774 26.8585C49.6916 26.8585 48.5966 25.7181 48.5966 24.0442C48.5966 22.3929 49.6916 21.2539 51.2774 21.2539C52.4417 21.2539 53.398 21.8353 53.9101 22.8347H58.106C57.5698 19.6265 54.8664 17.5574 51.2307 17.5574C47.1055 17.5574 44.2153 20.2546 44.2153 24.0442C44.2153 27.8817 47.0815 30.555 51.2307 30.555Z" fill="white"/>
<path d="M66.7992 30.555C71.0644 30.555 73.9545 27.927 73.9545 24.0442C73.9545 20.184 71.0644 17.5574 66.7992 17.5574C62.5113 17.5574 59.6211 20.184 59.6211 24.0442C59.6211 27.927 62.5113 30.555 66.7992 30.555ZM64.0024 24.0442C64.0024 22.4168 65.168 21.2539 66.7992 21.2539C68.4303 21.2539 69.5733 22.4168 69.5733 24.0442C69.5733 25.6955 68.4303 26.8585 66.7992 26.8585C65.168 26.8585 64.0024 25.6955 64.0024 24.0442Z" fill="white"/>
<path d="M80.2898 30.2062H84.9751V18.2771H89.9392V13.9299H75.3257V18.2771H80.2898V30.2062Z" fill="white"/>
<path d="M92.1538 30.2063H96.6284V24.9517C96.6284 22.8586 97.538 21.9045 99.5413 21.9045H100.963V17.906H99.5186C97.7941 17.906 96.6978 18.3704 95.9296 19.4402L95.3694 17.906H92.1538V30.2063Z" fill="white"/>
<path d="M107.349 30.4858C109.12 30.4858 110.612 29.9043 111.661 28.8571L112.15 30.2063H115.367V23.0449C115.367 19.5334 113.153 17.5574 109.191 17.5574C105.742 17.5574 103.666 19.1142 103.294 21.9511H107.489C107.606 21.2312 108.305 20.7429 109.213 20.7429C110.216 20.7429 111.009 21.3244 111.009 22.1374V22.8347H106.859C104.32 22.8347 102.688 24.3462 102.688 26.6017C102.688 28.9968 104.505 30.4858 107.349 30.4858ZM107.07 26.3928C107.07 25.6955 107.676 25.2764 108.632 25.2764H111.055C111.055 26.6256 110.03 27.5318 108.677 27.5318C107.722 27.5318 107.07 27.09 107.07 26.3928Z" fill="white"/>
<path d="M123.128 30.555C126.624 30.555 128.699 29.0899 128.699 26.6256C128.699 24.5325 127.253 23.2538 124.247 22.6723C122.382 22.3237 121.846 22.0216 121.846 21.4162C121.846 20.8826 122.289 20.5792 122.941 20.5792C123.757 20.5792 124.223 20.9984 124.27 21.7422H128.512C128.348 19.0224 126.438 17.5574 122.988 17.5574C119.469 17.5574 117.558 18.9293 117.558 21.4162C117.558 23.5093 118.909 24.7188 121.986 25.3003C123.617 25.625 124.294 26.0215 124.294 26.6017C124.294 27.1366 123.873 27.4626 123.175 27.4626C122.358 27.4626 121.822 26.9516 121.822 26.2065H117.441C117.441 28.8345 119.679 30.555 123.128 30.555Z" fill="white"/>
<path d="M131.052 30.2064H135.527V23.5798C135.527 22.0909 136.296 21.2539 137.531 21.2539C138.72 21.2539 139.419 22.0217 139.419 23.4627V30.2064H143.893V22.9984C143.893 19.6492 141.959 17.5574 138.836 17.5574C137.554 17.5574 136.39 17.9287 135.527 18.6033V13H131.052V30.2064Z" fill="white"/>
<mask id="mask0_475_175" style="mask-type:luminance" maskUnits="userSpaceOnUse" x="9" y="0" width="12" height="11">
<path d="M9.80957 0H20.4975V10.2261H9.80957V0Z" fill="white"/>
</mask>
<g mask="url(#mask0_475_175)">
<path d="M10.5852 9.95256C11.3454 8.57288 13.358 5.52753 17.4525 2.8564C13.8617 4.514 11.2301 8.01447 10.258 9.45554C9.16331 7.13696 9.2348 2.58326 20.4979 0C19.8357 9.19379 13.2773 10.9845 10.5852 9.95256Z" fill="white"/>
</g>
<path d="M9.35175 10.0217C8.89517 9.2073 7.68658 7.41003 5.22773 5.83335C7.38416 6.8119 8.9645 8.87786 9.54833 9.7284C10.2055 8.35965 10.1628 5.67207 3.39844 4.14746C3.79638 9.57399 7.73526 10.6307 9.35175 10.0217Z" fill="white"/>
<path d="M14.9552 16.0999C15.1747 16.3201 15.3837 16.5489 15.5801 16.7893C15.7115 16.9504 15.4834 16.6559 15.6051 16.8224C15.6408 16.8717 15.6769 16.9202 15.7122 16.9699C15.8171 17.1177 15.9168 17.2688 16.012 17.4229C16.1686 17.6766 16.3115 17.9385 16.4402 18.2076C16.474 18.2786 16.5068 18.3507 16.5388 18.4224C16.5168 18.3731 16.4591 18.2139 16.5462 18.4459C16.6012 18.5926 16.6567 18.7386 16.7058 18.8875C16.7973 19.1648 16.8739 19.4468 16.936 19.7322C16.9647 19.8649 16.9889 19.9984 17.013 20.1319C17.058 20.3801 17.0238 20.1922 17.0175 20.1396C17.0294 20.2356 17.0394 20.3316 17.0484 20.4279C17.1016 21.024 17.093 21.6274 17.0175 22.2213C17.0517 21.9521 16.9822 22.4033 16.9714 22.4577C16.9453 22.5912 16.9159 22.7236 16.8832 22.8556C16.8084 23.1586 16.7169 23.4572 16.6087 23.7499C16.5815 23.8234 16.5529 23.8966 16.5242 23.9694C16.4502 24.1584 16.5998 23.8072 16.5146 23.9922C16.4565 24.1176 16.3978 24.243 16.3345 24.3658C16.1891 24.6501 16.0269 24.9258 15.8495 25.1913C15.7598 25.3259 15.6657 25.4576 15.5686 25.587C15.6862 25.4304 15.4585 25.7179 15.4224 25.7602C15.2052 26.0121 14.9734 26.2515 14.7287 26.4769C14.6067 26.5887 14.482 26.6971 14.3541 26.8019C14.3065 26.8409 14.2585 26.8799 14.2101 26.9178C14.3675 26.7957 14.2027 26.9211 14.1755 26.9398C13.9081 27.1219 13.641 27.3002 13.3579 27.4576C13.218 27.5352 13.0763 27.6091 12.9327 27.6786C12.8791 27.7047 12.8248 27.7301 12.7705 27.7547C12.7411 27.7683 12.5135 27.8672 12.6511 27.8099C12.7884 27.7525 12.5589 27.8444 12.5284 27.8562C12.4729 27.8768 12.4175 27.8974 12.3617 27.9172C12.1947 27.9761 12.0258 28.0298 11.8551 28.0787C11.5724 28.1592 11.2856 28.2258 10.9958 28.2772C10.9184 28.2908 10.8414 28.3026 10.764 28.3151C10.8161 28.3067 11.0107 28.2894 10.7555 28.3147C10.6 28.3302 10.4445 28.3445 10.2886 28.3526C9.99625 28.3684 9.70275 28.3692 9.41037 28.3556C9.27385 28.3489 9.13733 28.3394 9.00118 28.3265C8.92344 28.3192 8.84569 28.3111 8.76795 28.3015C9.02499 28.3331 8.75344 28.2956 8.70248 28.2868C8.10172 28.1846 7.51101 28.0191 6.94596 27.7915C7.16543 27.8801 6.75438 27.7014 6.70789 27.6786C6.58178 27.6175 6.45791 27.5536 6.33516 27.4866C6.05207 27.3315 5.77792 27.1608 5.51455 26.9748C5.49112 26.9582 5.28727 26.8093 5.39812 26.8928C5.49819 26.9678 5.33823 26.8446 5.33414 26.8409C5.20655 26.7358 5.08007 26.6302 4.95769 26.5192C4.71106 26.2952 4.47708 26.0573 4.25835 25.8069C4.22487 25.7687 3.95109 25.4267 4.07162 25.587C3.98643 25.4741 3.90422 25.3587 3.82462 25.2417C3.64532 24.9766 3.48127 24.7019 3.33322 24.4188C3.26887 24.2959 3.2101 24.1709 3.14983 24.0463C3.04233 23.822 3.11747 23.9738 3.13793 24.0242C3.10817 23.9514 3.07953 23.8786 3.052 23.805C2.94152 23.5131 2.84778 23.2149 2.77078 22.9122C2.728 22.7431 2.69043 22.5724 2.65807 22.4007C2.64728 22.3434 2.63761 22.2864 2.62719 22.229C2.55986 21.8558 2.64728 22.4827 2.60934 22.1062C2.57623 21.7789 2.55614 21.4513 2.55875 21.1225C2.56098 20.7942 2.58144 20.4654 2.62273 20.1396C2.58962 20.4 2.66737 19.9105 2.68039 19.8462C2.71535 19.6748 2.75516 19.5046 2.80054 19.3354C2.88684 19.0144 2.99434 18.7007 3.11598 18.3911C3.19038 18.2025 3.04047 18.5533 3.12565 18.3687C3.16694 18.279 3.20824 18.1896 3.25213 18.101C3.32281 17.9587 3.3972 17.8186 3.47569 17.6803C3.65462 17.3659 3.854 17.0633 4.07162 16.7735C4.05599 16.7945 3.9682 16.9026 4.06008 16.7893C4.12481 16.7099 4.19065 16.6312 4.25835 16.554C4.39525 16.3974 4.53846 16.2473 4.68539 16.0999C5.17121 15.6123 5.17716 14.7934 4.68539 14.3069C4.19698 13.8237 3.36038 13.8174 2.8727 14.3069C0.775441 16.4121 -0.304436 19.3921 0.0749904 22.3364C0.467064 25.3807 2.26599 28.1342 4.98894 29.6474C7.55825 31.0748 10.7547 31.3054 13.4859 30.1919C16.3509 29.0237 18.5817 26.5806 19.3409 23.5862C20.1812 20.2705 19.1888 16.7375 16.7675 14.3069C16.2817 13.8193 15.4421 13.8252 14.9552 14.3069C14.4612 14.7956 14.4679 15.6108 14.9552 16.0999Z" fill="white"/>
<path d="M10.9503 21.7146C10.9503 18.7197 10.9503 15.7249 10.9503 12.7304C10.9503 12.3016 10.9503 11.8729 10.9503 11.4437C10.9503 10.7807 10.3426 10.1452 9.62871 10.1761C8.91287 10.2067 8.30713 10.7329 8.30713 11.4437C8.30713 14.4386 8.30713 17.433 8.30713 20.4279C8.30713 20.8566 8.30713 21.2858 8.30713 21.7146C8.30713 22.3776 8.91517 23.013 9.62871 22.9825C10.3449 22.9516 10.9503 22.4254 10.9503 21.7146Z" fill="white"/>
</svg>
